<svg width="16" height="15" viewBox="0 0 16 15" fill="none" xmlns="http://www.w3.org/2000/svg">
<path fill-rule="evenodd" clip-rule="evenodd" d="M7.86434 13.491C8.07517 13.491 8.63709 13.2838 9.22742 12.1032C9.50792 11.5422 9.74351 10.8473 9.90759 10.0535H5.82109C5.98517 10.8473 6.22076 11.5422 6.50126 12.1032C7.09159 13.2838 7.65351 13.491 7.86434 13.491ZM5.62217 8.67851C5.55574 7.91606 5.55574 7.14929 5.62217 6.38684H10.1065C10.1725 7.14931 10.1725 7.91604 10.1065 8.67851H5.62217ZM11.3083 10.0535C11.1029 11.1755 10.7647 12.1692 10.3311 12.9575C11.6223 12.3679 12.6619 11.3387 13.2644 10.0535H11.3083ZM13.7127 8.67851H11.4852C11.5449 7.91579 11.5449 7.14956 11.4852 6.38684H13.7118C13.86 7.14353 13.86 7.92182 13.7118 8.67851H13.7127ZM4.24259 8.67851H2.01601C1.86772 7.92182 1.86772 7.14353 2.01601 6.38684H4.24351C4.18374 7.14956 4.18374 7.91579 4.24351 8.67851H4.24259ZM2.46426 10.0535H4.42042C4.62576 11.1755 4.96401 12.1692 5.39759 12.9575C4.10643 12.3679 3.0668 11.3387 2.46426 10.0535ZM5.82109 5.01184H9.90759C9.74351 4.21801 9.50792 3.52317 9.22742 2.96217C8.63709 1.78151 8.07517 1.57434 7.86434 1.57434C7.65351 1.57434 7.09159 1.78151 6.50126 2.96217C6.22076 3.52317 5.98517 4.21801 5.82109 5.01184ZM11.3083 5.01184H13.2644C12.6619 3.72667 11.6223 2.69744 10.3311 2.10784C10.7647 2.89617 11.1029 3.88984 11.3083 5.01184ZM5.39851 2.10784C4.96492 2.89617 4.62667 3.88984 4.42134 5.01184H2.46426C3.0668 3.72667 4.10734 2.69744 5.39851 2.10784ZM7.86434 0.199341C9.80926 0.199341 11.6745 0.971958 13.0498 2.34722C14.4251 3.72249 15.1977 5.58775 15.1977 7.53267C15.1977 9.4776 14.4251 11.3429 13.0498 12.7181C11.6745 14.0934 9.80926 14.866 7.86434 14.866C5.91942 14.866 4.05416 14.0934 2.67889 12.7181C1.30362 11.3429 0.531006 9.4776 0.531006 7.53267C0.531006 5.58775 1.30362 3.72249 2.67889 2.34722C4.05416 0.971958 5.91942 0.199341 7.86434 0.199341Z" fill="#222222"/>
</svg>
