<svg width="27" height="27" viewBox="0 0 27 27" fill="none" xmlns="http://www.w3.org/2000/svg">
<path d="M21.0439 19.0893L26.5757 24.6211L24.749 26.4478L19.2172 20.916C17.2282 22.5073 14.7057 23.4593 11.9622 23.4593C5.54516 23.4593 0.337158 18.2513 0.337158 11.8343C0.337158 5.41729 5.54516 0.20929 11.9622 0.20929C18.3792 0.20929 23.5872 5.41729 23.5872 11.8343C23.5872 14.5778 22.6352 17.1003 21.0439 19.0893ZM18.4524 18.1309C20.0318 16.5031 21.0038 14.2828 21.0038 11.8343C21.0038 6.83877 16.9577 2.79262 11.9622 2.79262C6.96664 2.79262 2.92049 6.83877 2.92049 11.8343C2.92049 16.8298 6.96664 20.876 11.9622 20.876C14.4106 20.876 16.631 19.904 18.2588 18.3245L18.4524 18.1309Z" fill="white"/>
</svg>
