<svg width="17" height="17" viewBox="0 0 17 17" fill="none" xmlns="http://www.w3.org/2000/svg">
<path d="M16.062 15.866L12.3495 12.1535M12.3495 12.1535C12.9454 11.5577 13.4181 10.8503 13.7405 10.0717C14.063 9.29316 14.229 8.45872 14.229 7.61603C14.229 6.77334 14.063 5.9389 13.7405 5.16035C13.4181 4.38181 12.9454 3.6744 12.3495 3.07853C11.7536 2.48266 11.0462 2.00998 10.2677 1.6875C9.48915 1.36502 8.65471 1.19904 7.81201 1.19904C6.96932 1.19904 6.13488 1.36502 5.35634 1.6875C4.57779 2.00998 3.87039 2.48266 3.27451 3.07853C2.07109 4.28195 1.39502 5.91414 1.39502 7.61603C1.39502 9.31792 2.07109 10.9501 3.27451 12.1535C4.47793 13.357 6.11012 14.033 7.81201 14.033C9.51391 14.033 11.1461 13.357 12.3495 12.1535Z" stroke="#222222" stroke-width="1.5" stroke-linecap="round" stroke-linejoin="round"/>
</svg>
