<svg width="32" height="32" viewBox="0 0 32 32" fill="none" xmlns="http://www.w3.org/2000/svg">
<path d="M24.0436 22.0893L29.5754 27.6211L27.7488 29.4478L22.2169 23.916C20.2279 25.5073 17.7054 26.4593 14.9619 26.4593C8.54491 26.4593 3.33691 21.2513 3.33691 14.8343C3.33691 8.41729 8.54491 3.20929 14.9619 3.20929C21.3789 3.20929 26.5869 8.41729 26.5869 14.8343C26.5869 17.5778 25.635 20.1003 24.0436 22.0893ZM21.4522 21.1309C23.0316 19.5031 24.0036 17.2828 24.0036 14.8343C24.0036 9.83877 19.9574 5.79262 14.9619 5.79262C9.96639 5.79262 5.92025 9.83877 5.92025 14.8343C5.92025 19.8298 9.96639 23.876 14.9619 23.876C17.4104 23.876 19.6308 22.904 21.2585 21.3245L21.4522 21.1309Z" fill="#222222"/>
</svg>
