<svg width="16" height="17" viewBox="0 0 16 17" fill="none" xmlns="http://www.w3.org/2000/svg">
<path d="M8.37557 1.20586H8.6919C7.65788 2.17851 6.99324 3.48721 6.81351 4.90448C6.63378 6.32175 6.95032 7.75797 7.7081 8.96349C8.46589 10.169 9.61701 11.0676 10.9614 11.5031C12.3057 11.9385 13.7583 11.8833 15.0666 11.347C14.5634 12.5729 13.7408 13.6375 12.6867 14.4273C11.6326 15.217 10.3865 15.7023 9.08139 15.8313C7.77623 15.9603 6.46095 15.7283 5.27585 15.1599C4.09075 14.5915 3.08028 13.7081 2.35224 12.604C1.6242 11.4998 1.20589 10.2163 1.14192 8.89035C1.07796 7.5644 1.37075 6.24573 1.98906 5.07502C2.60737 3.90431 3.528 2.92546 4.65276 2.2429C5.77752 1.56034 7.06421 1.19966 8.37557 1.19934V1.20586Z" stroke="#222222" stroke-width="1.5" stroke-linecap="round" stroke-linejoin="round"/>
</svg>
