<svg width="32" height="32" viewBox="0 0 32 32" fill="none" xmlns="http://www.w3.org/2000/svg">
<path fill-rule="evenodd" clip-rule="evenodd" d="M9.57181 5C8.35959 5 7.197 5.48143 6.33967 6.33843C5.48234 7.19543 5.00047 8.35784 5 9.57005V21.7615C5 22.974 5.48167 24.1369 6.33905 24.9943C7.19643 25.8517 8.35929 26.3333 9.57181 26.3333H21.7633C22.9755 26.3329 24.1379 25.851 24.9949 24.9937C25.8519 24.1363 26.3333 22.9737 26.3333 21.7615V9.57005C26.3329 8.35814 25.8512 7.196 24.9943 6.33905C24.1373 5.4821 22.9752 5.00047 21.7633 5H9.57181ZM23.0783 9.57707C23.0783 9.9263 22.9396 10.2612 22.6926 10.5082C22.4457 10.7551 22.1108 10.8938 21.7615 10.8938C21.4123 10.8938 21.0774 10.7551 20.8304 10.5082C20.5835 10.2612 20.4448 9.9263 20.4448 9.57707C20.4448 9.22784 20.5835 8.89292 20.8304 8.64598C21.0774 8.39904 21.4123 8.26031 21.7615 8.26031C22.1108 8.26031 22.4457 8.39904 22.6926 8.64598C22.9396 8.89292 23.0783 9.22784 23.0783 9.57707ZM15.6693 12.014C14.7008 12.014 13.7719 12.3987 13.0871 13.0836C12.4022 13.7684 12.0175 14.6973 12.0175 15.6658C12.0175 16.6343 12.4022 17.5632 13.0871 18.248C13.7719 18.9329 14.7008 19.3176 15.6693 19.3176C16.6378 19.3176 17.5667 18.9329 18.2515 18.248C18.9364 17.5632 19.3211 16.6343 19.3211 15.6658C19.3211 14.6973 18.9364 13.7684 18.2515 13.0836C17.5667 12.3987 16.6378 12.014 15.6693 12.014ZM10.26 15.6658C10.26 14.2316 10.8298 12.8562 11.8439 11.8421C12.858 10.828 14.2334 10.2583 15.6675 10.2583C17.1017 10.2583 18.4771 10.828 19.4912 11.8421C20.5053 12.8562 21.0751 14.2316 21.0751 15.6658C21.0751 17.0999 20.5053 18.4754 19.4912 19.4895C18.4771 20.5036 17.1017 21.0733 15.6675 21.0733C14.2334 21.0733 12.858 20.5036 11.8439 19.4895C10.8298 18.4754 10.26 17.0999 10.26 15.6658Z" fill="white" fill-opacity="0.9"/>
</svg>
