<svg width="159" height="62" viewBox="0 0 159 62" fill="none" xmlns="http://www.w3.org/2000/svg">
<path fill-rule="evenodd" clip-rule="evenodd" d="M119.892 29.3827C117.93 29.3296 116.076 28.8622 114.394 27.7446C112.529 26.5047 111.179 24.7664 110.581 22.4457C109.852 19.6222 110.357 17.0155 111.992 14.6993C113.463 12.6145 115.436 11.3701 117.764 10.8231C120.722 10.1272 123.52 10.6447 126.074 12.4449C127.828 13.6805 129.104 15.3937 129.657 17.6156C130.522 21.0878 129.597 24.0351 127.196 26.4295C125.634 27.9864 123.761 28.8534 121.683 29.1836C121.276 29.2472 120.866 29.2866 120.457 29.3259L120.457 29.326C120.268 29.3441 120.08 29.3622 119.892 29.3827ZM126.601 20.1427C126.601 18.1759 126.25 16.4818 125.411 14.9396C124.694 13.6244 123.708 12.6263 122.364 12.125C121.476 11.7911 120.534 11.666 119.599 11.7579C118.753 11.8375 117.941 12.0233 117.19 12.47C115.905 13.2223 114.907 14.4524 114.375 15.9392C113.723 17.6796 113.536 19.5877 113.837 21.4402C114.047 22.7907 114.43 24.0764 115.166 25.1984C116.708 27.5574 118.81 28.5423 121.424 28.1324C122.959 27.8921 124.175 27.0325 125.054 25.6259C126.063 24.0116 126.602 22.0998 126.601 20.1427ZM59.0765 20.324V20.7413C59.0765 22.4545 59.0797 24.1673 59.086 25.8795C59.0824 26.3284 59.1697 26.7725 59.3414 27.1799C59.4585 27.4849 59.6449 27.7519 59.8829 27.9553C60.121 28.1587 60.4026 28.2917 60.7009 28.3417C60.8542 28.3688 61.006 28.4057 61.1554 28.4523C61.2339 28.4678 61.3042 28.515 61.3525 28.5847C61.4008 28.6543 61.4235 28.7412 61.4162 28.8283C61.3974 29.0406 61.228 29.0937 61.068 29.0922C60.6825 29.0922 60.2935 29.0792 59.9098 29.0664L59.6642 29.0583C59.3615 29.0476 59.0588 29.0336 58.7562 29.0195L58.7561 29.0195C58.0988 28.989 57.4417 28.9584 56.7853 28.9625C56.1637 28.9625 55.5421 29.0036 54.9204 29.0447H54.9204H54.9204H54.9204H54.9203H54.9203H54.9203H54.9202H54.9202H54.9202H54.9202H54.9201C54.6302 29.0639 54.3402 29.0831 54.0502 29.0981H53.6549C53.595 29.1063 53.5341 29.0988 53.4774 29.076L53.4535 29.0596L53.4376 29.0488C53.3477 28.988 53.2421 28.9166 53.2246 28.8386C53.1924 28.6764 53.3362 28.5953 53.468 28.5526C53.5439 28.5274 53.6227 28.5096 53.7012 28.4918L53.741 28.4827L53.7827 28.473C53.8887 28.4471 53.9962 28.4203 54.1027 28.3938C54.196 28.3706 54.2885 28.3476 54.3784 28.3255C54.6205 28.2697 54.8469 28.1506 55.0381 27.9784C55.2294 27.8061 55.3799 27.5859 55.4769 27.3362C55.6534 26.9311 55.7518 26.4904 55.766 26.0417C55.7862 25.5154 55.8023 24.9875 55.801 24.4612C55.792 20.9226 55.779 17.3792 55.762 13.8308C55.7546 13.5028 55.7127 13.1767 55.6369 12.8592C55.4823 12.1722 55.0614 11.7549 54.4523 11.5559C54.405 11.5403 54.3575 11.5255 54.3101 11.5107C54.196 11.4751 54.0821 11.4395 53.9709 11.3937C53.8692 11.3558 53.7752 11.2967 53.6939 11.2197C53.6654 11.1903 53.6434 11.1542 53.6294 11.1141C53.6154 11.074 53.6099 11.031 53.6132 10.9882C53.6303 10.9497 53.6556 10.9161 53.687 10.8905C53.7183 10.8648 53.7548 10.8478 53.7934 10.8408C54.0326 10.8177 54.2728 10.8093 54.5128 10.8157C54.8849 10.8294 55.2568 10.847 55.6287 10.8645L55.6287 10.8645C56.301 10.8963 56.9731 10.9281 57.6458 10.9366C58.6906 10.9499 59.7112 10.9366 60.7385 10.8821C60.945 10.8713 61.1514 10.8586 61.3578 10.8459C62.2788 10.7894 63.1986 10.7329 64.1203 10.8437C64.731 10.895 65.3305 11.0517 65.8966 11.3082C67.0422 11.8729 67.771 12.8091 67.9136 14.2053C67.9796 15.0002 67.7986 15.7962 67.3999 16.4641C66.9382 17.2723 66.3192 17.9585 65.5873 18.4737C65.1861 18.7649 64.764 19.021 64.342 19.277L64.342 19.277L64.3419 19.2771L64.3418 19.2771L64.3417 19.2772L64.3416 19.2772L64.3416 19.2773L64.3415 19.2773L64.3414 19.2774L64.3413 19.2774L64.3412 19.2775L64.3412 19.2775L64.3411 19.2776C64.1652 19.3842 63.9894 19.4909 63.8151 19.6001C63.7696 19.6284 63.7229 19.6529 63.6722 19.6794L63.6722 19.6794L63.6721 19.6795L63.6719 19.6796C63.6327 19.7001 63.5912 19.7219 63.5461 19.7476C63.5602 19.7665 63.5711 19.7838 63.5806 19.799C63.5956 19.8229 63.6072 19.8414 63.6228 19.8522C64.2869 20.3287 64.8956 20.8921 65.4354 21.5301L65.8114 21.9615L65.8116 21.9617C66.7736 23.0657 67.7355 24.1696 68.7217 25.247C69.3129 25.8837 69.9341 26.4861 70.5827 27.0517C71.3209 27.7019 72.1546 28.156 73.12 28.2607C73.4024 28.2901 73.5692 28.4435 73.5786 28.6234C73.588 28.8032 73.4723 28.9507 73.1752 29.0421C72.9791 29.1031 72.7776 29.1402 72.5741 29.1527C71.3236 29.2131 70.0784 29.1895 68.8508 28.8696C67.8643 28.6181 66.9568 28.0827 66.222 27.3185C65.35 26.3934 64.5461 25.3941 63.8178 24.3299L63.7778 24.2734C63.018 23.1982 62.2575 22.122 61.31 21.2337C61.0146 20.9481 60.6902 20.7008 60.3432 20.4965C60.1232 20.3702 59.8627 20.3283 59.6082 20.2874C59.5657 20.2805 59.5233 20.2737 59.4813 20.2665C59.3444 20.2623 59.2079 20.2817 59.0765 20.324ZM59.0833 15.9997H59.0765V18.4103C59.0765 18.9086 59.2218 19.0634 59.6803 19.0767H60.2181C61.2216 19.083 62.2007 18.7374 63.0123 18.0903C64.0558 17.2794 64.5641 16.1736 64.4148 14.7612C64.3139 13.7866 63.9442 12.9669 63.1925 12.4022C62.2512 11.6974 61.228 11.5514 60.1348 11.8493C59.9454 11.8928 59.7693 11.9887 59.6232 12.1277C59.477 12.2668 59.3657 12.4445 59.2998 12.644C59.1815 12.9868 59.1108 13.3471 59.09 13.7129C59.0703 14.2432 59.0748 14.7777 59.0794 15.3106V15.3107V15.3107V15.3107V15.3108V15.3108V15.3109V15.3109V15.311V15.311V15.3111V15.3111C59.0813 15.5411 59.0833 15.7708 59.0833 15.9997ZM92.7599 41.5405C91.5147 41.9888 90.2311 42.2976 88.929 42.462C88.0624 42.5622 87.1933 42.6413 86.317 42.7211C85.9044 42.7586 85.4902 42.7963 85.074 42.8364C85.0629 42.8884 85.0552 42.9411 85.0511 42.9942C85.0511 43.5255 85.0496 44.0567 85.0481 44.588C85.0451 45.6506 85.0421 46.7131 85.0511 47.7756C85.0463 48.2268 85.1118 48.6756 85.2447 49.1026C85.4908 49.8693 85.9601 50.3293 86.705 50.4295C86.8354 50.4461 86.9644 50.4737 87.0909 50.5121C87.156 50.5293 87.2129 50.5726 87.2505 50.6334C87.288 50.6942 87.3035 50.7682 87.294 50.8409C87.2929 50.9079 87.268 50.9718 87.2245 51.0189C87.181 51.066 87.1225 51.0926 87.0613 51.093C86.9082 51.1236 86.7531 51.1404 86.5974 51.1431C86.1159 51.1286 85.6349 51.1096 85.1541 51.0906C84.8548 51.0787 84.5556 51.0669 84.2564 51.0561C84.0877 51.0501 83.9192 51.0424 83.7507 51.0348C83.3067 51.0146 82.8631 50.9945 82.4196 51.0031C81.9268 51.0138 81.434 51.0416 80.9412 51.0695C80.6178 51.0878 80.2944 51.1061 79.971 51.1195C79.8169 51.1306 79.6623 51.1076 79.5165 51.0517C79.4781 51.0395 79.4442 51.0141 79.4198 50.9793C79.3954 50.9445 79.3817 50.902 79.3808 50.8581C79.3799 50.8142 79.3918 50.7712 79.4148 50.7352C79.4377 50.6992 79.4705 50.6722 79.5085 50.6581C79.6175 50.604 79.7322 50.5649 79.85 50.5416C79.9406 50.5182 80.0317 50.4972 80.1226 50.4762C80.2663 50.4431 80.4097 50.4101 80.5506 50.3676C80.7907 50.3018 81.012 50.1709 81.1941 49.987C81.3761 49.8031 81.5132 49.572 81.5927 49.3149C81.793 48.7369 81.8266 48.1354 81.8522 47.5294C81.8698 47.1341 81.8697 46.7387 81.8697 46.3434L81.8697 46.2644C81.8697 42.9048 81.8652 39.5441 81.8562 36.1825C81.8647 35.6681 81.7942 35.1557 81.6478 34.6669C81.4461 34.0299 81.0709 33.5847 80.4376 33.4343C80.1458 33.3635 79.8567 33.2751 79.5717 33.1733C79.5293 33.1564 79.491 33.1294 79.4593 33.0942C79.4277 33.059 79.4036 33.0165 79.3888 32.9699C79.3646 32.8372 79.4641 32.7502 79.5838 32.7384C79.8678 32.6987 80.1541 32.6824 80.4403 32.6897C81.5172 32.7956 82.5993 32.8242 83.6796 32.7752C84.4428 32.7244 85.2091 32.7083 85.9749 32.6923C86.2305 32.687 86.486 32.6816 86.7413 32.675C86.8604 32.6743 86.9791 32.6922 87.0936 32.7281C87.1541 32.7383 87.2086 32.7738 87.2457 32.8271C87.2828 32.8804 87.2996 32.9475 87.2926 33.0141C87.2953 33.0809 87.2754 33.1465 87.2367 33.1982C87.1979 33.2499 87.1432 33.2841 87.0829 33.2942L87.0666 33.298L87.0306 33.306L86.9705 33.3188C86.9015 33.3334 86.8327 33.3479 86.7655 33.3679C86.5675 33.4187 86.3722 33.4818 86.1806 33.5567C85.9768 33.6382 85.7927 33.7699 85.6426 33.9417C85.4925 34.1135 85.3803 34.3207 85.3146 34.5475C85.1087 35.1956 85.0015 35.8766 84.9973 36.5629C84.9906 37.4559 85.0072 38.3534 85.0241 39.265V39.2651V39.2652V39.2652V39.2653V39.2654V39.2655V39.2656V39.2656V39.2658V39.2659V39.266C85.0309 39.629 85.0377 39.9943 85.043 40.3624C87.6436 40.7635 90.2024 40.5747 92.768 39.9363C92.7422 39.3393 92.7672 38.7488 92.792 38.1621L92.792 38.1618C92.8266 37.3418 92.861 36.5294 92.7559 35.7181C92.6991 35.3157 92.615 34.9185 92.5045 34.5298C92.4473 34.3059 92.3388 34.1018 92.1894 33.9369C92.0399 33.772 91.8544 33.6517 91.6506 33.5876C91.3926 33.4968 91.1281 33.4248 90.866 33.3534C90.792 33.3333 90.7182 33.3132 90.6448 33.2927C90.6211 33.2859 90.5966 33.2802 90.5721 33.2745C90.4435 33.2445 90.3144 33.2144 90.3019 33.02C90.2912 32.8726 90.4364 32.7531 90.6798 32.7472C90.9801 32.7298 91.2811 32.7352 91.5807 32.7634C92.8314 32.928 94.0748 32.8755 95.3197 32.823C95.6809 32.8078 96.0423 32.7926 96.404 32.7826C96.5794 32.7782 96.7556 32.7725 96.9318 32.7668L96.9322 32.7668C97.2258 32.7574 97.5193 32.748 97.8091 32.7443C97.9284 32.7383 98.0475 32.7599 98.1587 32.8077C98.2371 32.8585 98.2941 32.9412 98.3174 33.0377C98.3244 33.0666 98.3262 33.0968 98.3225 33.1265C98.3187 33.1562 98.3097 33.1848 98.2958 33.2106C98.2819 33.2364 98.2634 33.2589 98.2415 33.2768C98.2196 33.2947 98.1947 33.3077 98.1681 33.3149C98.0438 33.363 97.9172 33.4039 97.7889 33.4372C96.7401 33.6776 96.2211 34.2732 96.0772 35.4483C96.0257 35.879 95.9996 36.3129 95.9992 36.7472V36.7528C95.9992 40.3352 95.9992 43.9175 96.014 47.4999C96.0229 48 96.0953 48.4962 96.2291 48.9743C96.4537 49.8059 96.966 50.3086 97.7876 50.3824C97.9417 50.3972 98.0903 50.4529 98.2206 50.5445C98.4196 50.692 98.3779 50.9412 98.148 51.0222C98.0326 51.0579 97.9126 51.0724 97.793 51.065C97.5046 51.0581 97.2162 51.0529 96.9277 51.0476C96.0984 51.0324 95.2691 51.0172 94.4421 50.9647C93.7404 50.9206 93.0452 50.9671 92.3488 51.0137L92.3486 51.0137C92.207 51.0232 92.0654 51.0327 91.9236 51.0414C91.5283 51.065 91.1316 51.0797 90.7349 51.0827C90.4781 51.0827 90.2993 50.9706 90.3033 50.8217C90.3033 50.607 90.4499 50.5751 90.5911 50.5445L90.5912 50.5444C90.6167 50.5389 90.642 50.5334 90.6663 50.5268L91.5041 50.3042C91.7337 50.2468 91.9465 50.1269 92.1227 49.9555C92.299 49.7842 92.4331 49.5669 92.5125 49.3237C92.6707 48.9096 92.7556 48.4663 92.7626 48.0174C92.7752 45.9612 92.7833 43.9054 92.7868 41.8501C92.7868 41.8004 92.7816 41.7518 92.7744 41.6851L92.7744 41.6847L92.7743 41.6838C92.77 41.6439 92.7649 41.5975 92.7599 41.5405ZM40.0095 44.397C39.1785 43.4444 38.3455 42.4896 37.2678 41.7601C37.4534 41.6584 37.5798 41.5876 37.7035 41.5051C38.4345 41.1354 39.1258 40.678 39.7648 40.1413C40.4237 39.5751 40.9925 38.922 41.3515 38.0771C42.0682 36.3949 41.7146 34.6108 40.101 33.5375C39.5379 33.1817 38.9123 32.9611 38.2656 32.8902C37.2114 32.7428 36.1545 32.7929 35.0989 32.8578C34.8651 32.8721 34.6309 32.8886 34.3964 32.9052L34.3959 32.9053L34.3936 32.9054L34.3931 32.9055C33.4917 32.9692 32.5856 33.0333 31.6795 32.9713L31.5422 32.9619C30.8565 32.9148 30.1707 32.8678 29.485 32.8401C29.0747 32.8199 28.6637 32.8177 28.2525 32.8155H28.2524H28.2523H28.2522H28.2522H28.2521H28.252H28.2519H28.2519H28.2518H28.2517C28.0622 32.8144 27.8727 32.8134 27.6832 32.8106C27.542 32.8077 27.382 32.8372 27.382 33.0082C27.3913 33.0706 27.4137 33.1298 27.4476 33.181C27.4814 33.2322 27.5257 33.274 27.577 33.3031C27.7812 33.4115 27.9953 33.496 28.2157 33.5552C28.5233 33.6289 28.804 33.8011 29.0223 34.0499C29.2406 34.2987 29.3867 34.613 29.442 34.9529C29.4945 35.1945 29.5229 35.4417 29.5267 35.6901C29.5428 39.6709 29.5563 43.6518 29.5563 47.6326C29.5586 48.0929 29.4965 48.5509 29.3721 48.9905C29.1435 49.7631 28.6997 50.3263 27.8929 50.3941C27.7849 50.4012 27.6778 50.4194 27.5729 50.4487C27.4213 50.4865 27.2742 50.5434 27.1346 50.6183C26.9436 50.7303 26.9571 50.9544 27.1628 51.0252C27.3382 51.0753 27.5197 51.0952 27.7007 51.0842C28.219 51.0781 28.7374 51.0688 29.2558 51.0595L29.2564 51.0595C30.1309 51.0438 31.0054 51.0281 31.8798 51.0281C32.504 51.0251 33.1288 51.04 33.7534 51.055H33.7536H33.7539H33.7541H33.7543H33.7545H33.7547H33.7549H33.7552H33.7554H33.7556C34.0439 51.0618 34.3321 51.0687 34.6202 51.0738C34.7161 51.0797 34.8121 51.0797 34.908 51.0738C35.0599 51.0576 35.1971 51.0075 35.2132 50.8055C35.2293 50.6035 35.1083 50.5254 34.9604 50.4826C34.813 50.4388 34.665 50.4002 34.5168 50.3615L34.5162 50.3614C34.455 50.3454 34.3937 50.3294 34.3325 50.3131C34.0499 50.2417 33.7887 50.0924 33.5736 49.8793C33.3585 49.6661 33.1967 49.3962 33.1035 49.0952C32.9348 48.6153 32.8473 48.1057 32.8453 47.5913V42.7259V42.3632C32.8782 42.3399 32.9128 42.3196 32.9488 42.3027C33.6023 42.1494 34.1563 42.3986 34.6565 42.8291C35.5413 43.5987 36.2782 44.5172 36.9707 45.483C37.0963 45.6582 37.2212 45.8339 37.3462 46.0096C38.1294 47.1107 38.9111 48.2097 39.8388 49.1837C40.6623 50.0573 41.6928 50.6601 42.8132 50.9235C44.0341 51.2272 45.2698 51.1918 46.5069 51.1446C46.7092 51.1219 46.9072 51.0662 47.0945 50.9795C47.229 50.9264 47.354 50.8394 47.346 50.6404C47.3379 50.4413 47.2182 50.3735 47.069 50.3263C46.9197 50.2791 46.7678 50.2423 46.6145 50.2113C46.1509 50.1419 45.7034 49.9774 45.2954 49.7263C44.3918 49.1224 43.556 48.4044 42.8051 47.5869C42.1886 46.9068 41.5859 46.2115 40.9833 45.5163C40.725 45.2182 40.4666 44.9202 40.2072 44.6234C40.1412 44.548 40.0754 44.4725 40.0095 44.397ZM32.8412 40.3654V38.0344C32.8412 37.8108 32.8404 37.5878 32.8396 37.3647V37.3645V37.3643V37.3641V37.3639V37.3637V37.3635V37.3633V37.3631V37.3629V37.3627C32.8379 36.8771 32.8361 36.3906 32.8426 35.895C32.8473 35.6187 32.8743 35.3434 32.9233 35.0723C33.0672 34.3145 33.5055 33.8958 34.198 33.769C34.9578 33.6172 35.7414 33.7078 36.4557 34.0299C37.4668 34.5003 37.9872 35.3834 38.1687 36.5364C38.2421 37.0179 38.2311 37.5102 38.1365 37.9872C37.9765 38.8305 37.526 39.4616 36.9263 39.9806C36.2174 40.5986 35.3563 40.9703 34.4535 41.048C34.12 41.0885 33.7843 41.1018 33.449 41.0878C32.969 41.0569 32.8412 40.8917 32.8412 40.3654ZM117.501 42.2909V42.6964L117.522 47.6754C117.522 48.1504 117.601 48.6213 117.754 49.0657C117.859 49.4118 118.05 49.7187 118.306 49.951C118.562 50.1834 118.873 50.3318 119.202 50.3794C119.378 50.418 119.551 50.4738 119.717 50.546C119.771 50.5611 119.817 50.5977 119.847 50.6485C119.877 50.6993 119.888 50.7607 119.879 50.8202C119.871 50.8849 119.843 50.9448 119.8 50.9898C119.757 51.0349 119.701 51.0624 119.642 51.0679C119.583 51.0773 119.522 51.0807 119.462 51.0783C119.209 51.0731 118.955 51.0668 118.701 51.0605L118.701 51.0605L118.7 51.0604C118.234 51.0489 117.768 51.0373 117.302 51.0326C116.426 51.0237 115.554 51.0193 114.672 51.0326C114.193 51.0387 113.714 51.0547 113.235 51.0707C112.907 51.0816 112.58 51.0926 112.252 51.1004C112.12 51.1129 111.987 51.0974 111.861 51.0547C111.815 51.0313 111.774 50.9976 111.741 50.9557C111.708 50.9137 111.683 50.8646 111.668 50.8114C111.656 50.7524 111.76 50.6212 111.832 50.5932C112.048 50.5143 112.269 50.4552 112.494 50.4163C113.539 50.2379 113.985 49.598 114.163 48.361C114.209 47.9823 114.228 47.6003 114.221 47.2183C114.213 43.4242 114.201 39.6301 114.184 35.8361C114.176 35.4689 114.124 35.1045 114.028 34.7524C113.962 34.4701 113.826 34.2129 113.637 34.0082C113.448 33.8036 113.211 33.6593 112.953 33.5906C112.938 33.5861 112.924 33.5818 112.909 33.5776L112.882 33.5697L112.857 33.5629L112.857 33.5627C112.807 33.549 112.758 33.5353 112.711 33.5183C112.572 33.4773 112.438 33.4246 112.307 33.3606L112.274 33.3427C112.145 33.274 111.999 33.1955 112.038 32.9949C112.076 32.8033 112.215 32.8118 112.345 32.8197C112.363 32.8208 112.381 32.8219 112.399 32.8224C112.636 32.8303 112.874 32.8379 113.111 32.8454L113.113 32.8455C113.943 32.872 114.773 32.8985 115.603 32.9374C116.718 33.0008 117.835 32.9964 118.95 32.9241C120.062 32.8416 121.182 32.8209 122.298 32.8386C123.043 32.8474 123.777 33.0336 124.449 33.3841C125.525 33.9503 126.18 34.8585 126.317 36.1855C126.404 37.0318 126.183 37.8073 125.797 38.5209C125.439 39.1488 124.978 39.6987 124.437 40.1427C123.802 40.684 123.113 41.1454 122.384 41.5183L121.981 41.7351C121.984 41.753 121.985 41.769 121.986 41.7824C121.987 41.8044 121.988 41.8195 121.999 41.825C122.927 42.4447 123.67 43.2926 124.413 44.1406L124.554 44.302C124.795 44.5761 125.036 44.8508 125.276 45.1254C126.093 46.0575 126.909 46.9892 127.745 47.898C128.464 48.6528 129.265 49.3079 130.13 49.8486C130.401 50.0241 130.696 50.0883 130.992 50.1527L130.992 50.1527L130.992 50.1527L130.992 50.1528C131.082 50.1722 131.171 50.1917 131.26 50.2143C131.448 50.253 131.632 50.3117 131.81 50.3897C132.059 50.5136 132.068 50.804 131.81 50.922C131.563 51.0525 131.295 51.1287 131.021 51.1461L130.742 51.1463C129.89 51.1474 129.028 51.1484 128.179 51.062C126.813 50.9361 125.529 50.2922 124.549 49.2412C123.883 48.5375 123.26 47.7864 122.684 46.9927C122.581 46.8521 122.478 46.7113 122.375 46.5705C121.772 45.7448 121.169 44.9192 120.532 44.1206C120.149 43.6663 119.738 43.2412 119.302 42.8482C118.978 42.5286 118.571 42.3285 118.138 42.2762C117.925 42.2669 117.713 42.2718 117.501 42.2909ZM117.491 38.0063V40.417C117.491 40.874 117.601 41.017 118.002 41.0628C118.664 41.1542 119.337 41.0943 119.977 40.887C120.617 40.6797 121.211 40.3294 121.722 39.8582C122.042 39.5782 122.308 39.2318 122.505 38.8389C122.702 38.446 122.827 38.0143 122.872 37.5685C123.062 35.9466 122.264 34.459 120.893 33.9444C120.184 33.6831 119.424 33.6377 118.694 33.8132C118.437 33.856 118.197 33.9829 118.007 34.1773C117.816 34.3716 117.684 34.6245 117.627 34.9028C117.554 35.1913 117.513 35.4883 117.504 35.7874C117.491 36.532 117.491 37.2692 117.491 38.0063ZM100.273 20.5054C100.276 20.4542 100.279 20.4033 100.279 20.3535C100.5 20.2449 100.748 20.222 100.983 20.2887C101.352 20.351 101.7 20.5222 101.988 20.7841C102.403 21.1442 102.796 21.5317 103.168 21.9444C103.735 22.6226 104.272 23.3333 104.792 24.0572L104.92 24.2348C105.634 25.2204 106.342 26.1993 107.163 27.0797C107.951 27.9555 108.94 28.5824 110.025 28.8947C111.239 29.2323 112.478 29.2043 113.714 29.1645C114.013 29.1409 114.306 29.0652 114.584 28.9404C114.835 28.8327 114.839 28.5497 114.612 28.3904C114.539 28.3469 114.459 28.3179 114.377 28.3049C114.295 28.2872 114.213 28.2732 114.131 28.2593C114.036 28.2431 113.94 28.2268 113.845 28.2047C113.058 28.006 112.327 27.5985 111.717 27.0178C111.053 26.4118 110.399 25.7867 109.789 25.1188C108.953 24.204 108.136 23.2699 107.318 22.3361C107.029 22.0057 106.74 21.6753 106.45 21.3458C105.985 20.8118 105.466 20.3379 104.904 19.9333C104.851 19.8892 104.803 19.8398 104.76 19.7859C104.956 19.6591 105.152 19.5347 105.347 19.4108C105.814 19.1141 106.275 18.8212 106.723 18.5091C107.345 18.0796 107.892 17.5302 108.336 16.8873C108.776 16.2415 109.083 15.5279 109.112 14.7125C109.159 13.4284 108.687 12.411 107.707 11.6974C106.935 11.1357 106.06 10.9322 105.152 10.8511C104.243 10.7692 103.335 10.8281 102.428 10.887C101.981 10.9161 101.534 10.9451 101.086 10.9573C100.355 10.9779 99.6217 10.9986 98.8903 10.9779C98.2647 10.9582 97.6382 10.9248 97.011 10.8915L97.0109 10.8915C96.6067 10.8699 96.2022 10.8484 95.7976 10.8305C95.638 10.8216 95.4777 10.8246 95.3177 10.8275C95.2378 10.829 95.1579 10.8305 95.0782 10.8305C94.9437 10.832 94.8092 10.8777 94.8092 11.0251C94.8285 11.136 94.8858 11.2347 94.9693 11.3008C95.0564 11.3693 95.1545 11.4193 95.2584 11.4483C95.3405 11.4793 95.4254 11.5003 95.5106 11.5213C95.5426 11.5292 95.5747 11.5371 95.6066 11.5456C95.9092 11.6108 96.1881 11.7708 96.4093 12.0064C96.6306 12.2419 96.7847 12.5428 96.8531 12.8725C96.9304 13.2175 96.9697 13.5714 96.9701 13.9267C96.9916 15.6119 96.9916 17.2986 96.9916 18.9853C96.9979 21.1723 97.001 23.3593 97.001 25.5463C97.0191 26.1941 96.8911 26.8367 96.6286 27.4173C96.5295 27.636 96.3882 27.8284 96.2145 27.9811C96.0408 28.1339 95.8389 28.2434 95.6228 28.302C95.4876 28.3408 95.3514 28.3736 95.2151 28.4064C95.1291 28.4271 95.043 28.4478 94.9572 28.47C94.827 28.4924 94.7 28.533 94.5793 28.5909C94.5412 28.6181 94.5088 28.6539 94.4842 28.6958C94.4597 28.7377 94.4435 28.7849 94.4368 28.8342C94.4314 28.8902 94.5188 28.989 94.5847 29.0185C94.6951 29.0685 94.8135 29.0936 94.933 29.0922C95.3425 29.0792 95.7524 29.0626 96.1622 29.046L96.1625 29.046L96.1629 29.046L96.1632 29.046L96.1635 29.046L96.1638 29.046L96.1641 29.046L96.1645 29.046L96.1648 29.0459C96.6785 29.0252 97.1923 29.0044 97.7056 28.9905C98.3403 28.9728 98.9763 28.9654 99.611 28.9817C100.069 28.9936 100.527 29.0164 100.985 29.0392C101.319 29.0558 101.652 29.0724 101.986 29.0849C102.142 29.0929 102.299 29.071 102.448 29.02C102.493 28.9969 102.533 28.9631 102.565 28.921C102.596 28.8789 102.619 28.8296 102.631 28.7767C102.628 28.7283 102.614 28.6814 102.591 28.6403C102.567 28.5991 102.535 28.565 102.497 28.5408C102.343 28.4707 102.182 28.4212 102.018 28.3934C101.243 28.2268 100.699 27.7609 100.48 26.919C100.366 26.5041 100.302 26.075 100.287 25.6422C100.266 23.982 100.266 22.3219 100.266 20.6617C100.266 20.6097 100.269 20.5574 100.273 20.5054ZM100.269 16.905V16.0351C100.269 15.2713 100.273 14.5066 100.282 13.7409C100.278 13.3577 100.351 12.9782 100.496 12.6292C100.571 12.4343 100.686 12.2614 100.833 12.1244C100.98 11.9874 101.154 11.8901 101.342 11.8404C102.24 11.5704 103.199 11.6755 104.031 12.1353C105.327 12.8489 105.722 14.2643 105.644 15.491C105.577 16.5629 105.094 17.3753 104.331 18.0122C103.474 18.7267 102.422 19.1037 101.346 19.0826C101.178 19.0826 101.009 19.0826 100.841 19.0723C100.412 19.0487 100.269 18.9072 100.269 18.4059V16.905ZM77.185 19.7446C77.2271 19.7921 77.272 19.8364 77.3195 19.8773C77.9907 20.3654 78.606 20.9401 79.1522 21.5891C79.3572 21.823 79.5619 22.0572 79.7665 22.2915C80.6172 23.2653 81.4681 24.2394 82.3417 25.1866C82.9737 25.8707 83.6501 26.5135 84.3399 27.1195C85.0323 27.7612 85.8824 28.1639 86.7831 28.2769C86.8787 28.2844 86.9724 28.3099 87.0601 28.3521C87.3115 28.4995 87.329 28.7944 87.0762 28.9418C86.9303 29.0334 86.7678 29.0887 86.6002 29.104L86.303 29.1141C85.5517 29.1397 84.7986 29.1655 84.0454 29.1394C83.3493 29.1086 82.661 28.9655 82.0029 28.7148C81.0802 28.3659 80.2467 27.7806 79.5718 27.0074C78.7352 26.0807 78.0014 25.0629 77.2673 24.0446L77.2669 24.044L77.2666 24.0437L77.2665 24.0435C77.0853 23.7921 76.904 23.5407 76.7211 23.2905C76.0794 22.3864 75.3459 21.5653 74.5347 20.843C74.2164 20.5598 73.8397 20.3665 73.4375 20.2798C73.2005 20.2105 72.9481 20.2455 72.7342 20.3771V27.3952C72.65 27.3737 72.5709 27.3548 72.4955 27.3367L72.4954 27.3367L72.4953 27.3367L72.4952 27.3367L72.4951 27.3367L72.495 27.3366L72.4949 27.3366L72.4947 27.3366C72.3429 27.3003 72.2059 27.2675 72.0713 27.2242C71.4703 27.0281 70.9822 26.6226 70.5236 26.1729C70.342 25.9954 70.1677 25.809 69.9932 25.6224C69.8575 25.4774 69.7217 25.3322 69.5824 25.191C69.5319 25.1448 69.4923 25.086 69.4668 25.0196C69.4413 24.9532 69.4307 24.881 69.4358 24.8091V24.4936C69.426 20.8961 69.4148 17.2996 69.4022 13.7041C69.4036 13.4156 69.3687 13.1284 69.2987 12.8504C69.2258 12.5213 69.0684 12.222 68.8451 11.9881C68.6218 11.7542 68.3419 11.5955 68.0387 11.5308C67.9094 11.5034 67.7815 11.4685 67.6555 11.4261C67.5525 11.3944 67.4577 11.3369 67.3785 11.2581C67.35 11.2186 67.3293 11.173 67.3177 11.1243C67.3061 11.0755 67.3039 11.0247 67.3113 10.975C67.322 10.916 67.4336 10.8497 67.5049 10.8438C67.7319 10.8197 67.9601 10.8118 68.188 10.8202C68.6625 10.8391 69.1371 10.8621 69.6116 10.8851C70.5409 10.9301 71.4702 10.9751 72.3994 10.9897C72.8629 10.9995 73.3263 10.9635 73.7898 10.9275C74.0215 10.9094 74.2533 10.8914 74.485 10.8791L74.6312 10.8713C76.0832 10.7938 77.5356 10.7162 78.9667 11.09C80.2965 11.435 81.1625 12.3491 81.5215 13.794C81.695 14.4988 81.5699 15.205 81.3144 15.8773C80.9689 16.79 80.3866 17.4991 79.7008 18.1198C79.1433 18.6184 78.5307 19.0379 77.8775 19.3687C77.7114 19.4543 77.5474 19.5448 77.3713 19.642C77.3108 19.6754 77.2489 19.7096 77.185 19.7446ZM72.7571 16.0115H72.741C72.741 16.2528 72.7398 16.4943 72.7386 16.7357C72.7362 17.2187 72.7338 17.7016 72.741 18.1832C72.7557 19.031 72.7921 19.0679 73.5639 19.0856C74.7122 19.1224 75.7785 18.8379 76.709 18.0727C77.4445 17.4682 77.9743 16.7118 78.0886 15.6724C78.2231 14.372 77.8439 12.6838 76.1913 11.9864C75.4372 11.6656 74.6099 11.614 73.8274 11.839C73.6203 11.8854 73.4281 11.991 73.2701 12.145C73.1122 12.2991 72.9941 12.4961 72.9279 12.7162C72.8301 13.0261 72.7744 13.3499 72.7625 13.6775C72.7483 14.2273 72.7514 14.7771 72.7545 15.3233L72.7545 15.3252C72.7558 15.5547 72.7571 15.7835 72.7571 16.0115ZM57.5329 33.4505C56.078 32.6823 54.5263 32.3993 52.5994 32.3875C50.921 32.3845 49.2711 32.8633 47.8138 33.7763C45.0976 35.4394 43.3563 37.8589 43.0417 41.337C42.9014 42.6792 43.0782 44.0384 43.5553 45.2839C44.4818 47.6429 46.0591 49.3223 48.1823 50.3543C50.2517 51.3554 52.43 51.5958 54.6648 51.1785C56.8613 50.7924 58.8958 49.6731 60.4912 47.9732C62.9962 45.3296 63.7223 40.8224 61.583 37.2588C60.581 35.6023 59.1788 34.2838 57.5329 33.4505ZM59.3442 41.7675V42.0447C59.3213 43.9083 58.9448 45.6673 58.056 47.2684C57.0946 49.0023 55.7163 50.0093 53.8674 50.2275C52.1301 50.431 50.5542 50.0108 49.1908 48.7812C48.2925 47.9703 47.6619 46.9352 47.1966 45.7764C46.5122 44.0823 46.3401 42.3101 46.5122 40.4833C46.6294 39.0484 47.0697 37.6678 47.7937 36.4656C48.8196 34.7878 50.2557 33.8781 52.0871 33.6643C53.1035 33.5298 54.1345 33.6555 55.0991 34.0314C56.3187 34.519 57.35 35.4485 58.0224 36.6661C58.7729 38.0067 59.2128 39.5283 59.3038 41.0981C59.32 41.3252 59.3321 41.5449 59.3442 41.7675ZM110.419 36.5954C110.681 35.382 110.95 34.1671 111.219 32.9595C111.155 32.8774 111.073 32.8142 110.981 32.7756C110.888 32.737 110.789 32.7242 110.691 32.7384C110.492 32.7409 110.293 32.7424 110.094 32.7438C109.608 32.7474 109.122 32.7509 108.636 32.7708C105.982 32.8799 103.328 32.9536 100.672 32.8578C100.384 32.8571 100.097 32.8778 99.8114 32.9197C99.7146 32.9339 99.6224 32.9734 99.5424 33.0347C99.5137 33.0475 99.489 33.0694 99.4717 33.0977C99.4543 33.1259 99.4451 33.1592 99.4451 33.1932C99.4451 33.2273 99.4543 33.2605 99.4717 33.2888C99.489 33.317 99.5137 33.3389 99.5424 33.3517C99.6661 33.4306 99.7962 33.4967 99.931 33.5493C100.169 33.6445 100.385 33.7977 100.562 33.9974C100.739 34.1971 100.872 34.4381 100.952 34.7023C101.059 35.0256 101.12 35.3654 101.132 35.7093C101.149 37.9503 101.149 40.1899 101.149 42.431C101.149 42.7844 101.149 43.1377 101.15 43.4911C101.15 44.7846 101.151 46.0781 101.143 47.3717C101.149 47.7795 101.118 48.187 101.05 48.588C100.862 49.5523 100.392 50.2467 99.4362 50.4104C99.2921 50.4354 99.1492 50.4678 99.0059 50.5004C98.938 50.5158 98.8699 50.5313 98.8015 50.546C98.6859 50.5711 98.5393 50.6227 98.5514 50.7701C98.5576 50.853 98.6517 50.9358 98.7275 51.0026L98.7464 51.0193C98.8064 51.0632 98.8761 51.0886 98.9481 51.093C99.1618 51.1222 99.3768 51.1389 99.5922 51.1431C100.436 51.137 101.28 51.129 102.123 51.121L102.125 51.121C103.108 51.1116 104.09 51.1023 105.072 51.096C105.3 51.095 105.532 51.1075 105.764 51.1201H105.764H105.764H105.764H105.764C105.892 51.1271 106.019 51.134 106.147 51.1387C106.391 51.1473 106.636 51.1563 106.88 51.1652C107.68 51.1945 108.48 51.2238 109.28 51.2419C109.556 51.2454 109.832 51.2163 110.102 51.1549C110.347 51.1144 110.58 51.0139 110.785 50.8607C110.989 50.7075 111.159 50.5057 111.283 50.2703C111.318 50.1982 111.355 50.1269 111.391 50.0559L111.391 50.0557C111.479 49.883 111.567 49.7117 111.64 49.5331C111.971 48.67 112.163 47.7507 112.209 46.8158C112.221 46.6536 112.21 46.4811 112.041 46.4236C111.97 46.4027 111.894 46.4108 111.828 46.4463C111.762 46.4818 111.71 46.5424 111.682 46.6168C111.572 46.804 111.478 47.0013 111.4 47.2065C110.992 48.4199 110.173 49.1645 109.087 49.5655C107.914 49.999 106.72 49.9607 105.54 49.6039C104.725 49.3532 104.265 48.6514 104.265 47.7314V42.7907C104.265 42.7059 104.271 42.621 104.278 42.5339L104.278 42.5333L104.283 42.468C104.285 42.4465 104.286 42.4248 104.288 42.403C104.306 42.4008 104.323 42.3985 104.338 42.3963L104.356 42.3937C104.394 42.3882 104.425 42.3838 104.454 42.3838C105.416 42.3844 106.375 42.3036 107.325 42.142C108.454 41.9672 109.554 41.6141 110.591 41.0937C110.785 40.9872 110.965 40.855 111.129 40.7001C111.27 40.5733 111.39 40.4022 111.303 40.1825C111.215 39.9629 111.018 39.9791 110.832 40.0056C110.819 40.0078 110.805 40.0094 110.792 40.0111C110.77 40.0137 110.748 40.0163 110.726 40.0218C109.623 40.299 108.495 40.438 107.364 40.4361C106.703 40.4361 106.045 40.3882 105.383 40.3401C105.24 40.3297 105.098 40.3193 104.955 40.3093C104.718 40.2782 104.484 40.2319 104.253 40.1708C104.251 40.1528 104.25 40.1358 104.249 40.1195C104.248 40.1084 104.247 40.0976 104.246 40.0872L104.244 40.0643C104.238 40.0047 104.234 39.9546 104.234 39.9039V35.9496C104.242 35.7659 104.258 35.5829 104.284 35.4011C104.302 35.2104 104.359 35.0266 104.45 34.8631C104.542 34.6996 104.665 34.5605 104.812 34.456C105.172 34.1898 105.589 34.0303 106.022 33.9931C106.672 33.9267 107.316 33.999 107.961 34.0742C108.402 34.1108 108.817 34.3117 109.139 34.6436C109.461 34.9754 109.669 35.4182 109.729 35.898C109.74 36.0419 109.758 36.1852 109.783 36.327C109.817 36.4927 109.875 36.6515 109.954 36.7974C110.075 36.9979 110.283 36.9625 110.379 36.7428C110.397 36.6954 110.411 36.646 110.419 36.5954ZM52.7971 10.9086C52.5281 12.1618 52.2686 13.3782 52.0158 14.5946C52.0092 14.6727 51.9792 14.7462 51.9306 14.8038C51.882 14.8614 51.8174 14.8998 51.7469 14.9131C51.6795 14.9184 51.6126 14.8971 51.5584 14.853C51.5041 14.8089 51.466 14.745 51.4511 14.6727C51.3934 14.5003 51.3515 14.322 51.326 14.1405C51.1431 12.8312 50.6739 12.2975 49.4637 12.069C48.6905 11.9215 47.9133 11.8655 47.1428 12.097C46.9586 12.154 46.7787 12.227 46.605 12.3152C46.1075 12.5629 45.8708 13.0185 45.821 13.5935C45.8022 13.7999 45.8065 14.0135 45.8107 14.2272L45.8107 14.2274C45.8125 14.319 45.8143 14.4106 45.8143 14.5017V18.1877C45.9175 18.2039 46.0195 18.2226 46.1207 18.2412C46.3505 18.2834 46.5766 18.3249 46.8053 18.3351C47.5476 18.3793 48.2925 18.4191 49.0361 18.4191C50.1052 18.4132 51.1711 18.2892 52.2175 18.0491C52.3201 18.0129 52.4271 17.9935 52.5349 17.9916C52.6505 17.9932 52.7616 18.0415 52.8468 18.1272C52.8717 18.1838 52.8846 18.2458 52.8846 18.3086C52.8846 18.3714 52.8717 18.4334 52.8468 18.4899C52.7744 18.6256 52.6711 18.7384 52.547 18.8172C52.2925 18.9914 52.0253 19.1423 51.7482 19.2684C50.5488 19.7859 49.3171 20.1648 48.0222 20.243C47.6796 20.2632 47.3369 20.2815 46.9942 20.2998C46.7372 20.3135 46.4801 20.3272 46.2231 20.3417C46.1459 20.3417 46.0682 20.3501 45.9837 20.3591C45.9401 20.3638 45.8947 20.3687 45.8466 20.3727C45.8466 20.4492 45.8423 20.5213 45.8381 20.5907L45.8381 20.5908C45.8342 20.6552 45.8305 20.7172 45.8305 20.7782C45.8305 21.2572 45.8323 21.7364 45.8341 22.2156C45.8385 23.3839 45.843 24.5525 45.821 25.7203C45.8194 26.1581 45.9507 26.584 46.1941 26.931C46.4376 27.2781 46.7794 27.5264 47.1657 27.637C48.3624 27.951 49.5645 27.9761 50.7505 27.5308C51.4485 27.2688 52.0623 26.7905 52.5174 26.1538C52.6268 26.0032 52.702 25.8238 52.7775 25.6438L52.7775 25.6438L52.7775 25.6438C52.818 25.5471 52.8586 25.4503 52.9047 25.3576L52.9576 25.2506C53.0734 25.0159 53.1952 24.7689 53.3363 24.5452C53.3694 24.5031 53.4108 24.47 53.4574 24.4482C53.5041 24.4265 53.5546 24.4168 53.6052 24.4199C53.7477 24.4376 53.7652 24.5865 53.7666 24.728C53.7746 25.8176 53.4976 26.8261 53.0942 27.811C52.7258 28.6956 52.1167 29.1659 51.2413 29.1777C50.4387 29.1896 49.636 29.1737 48.8334 29.1579H48.8333H48.8332C48.6395 29.154 48.4459 29.1502 48.2522 29.1468C47.8028 29.1388 47.3534 29.1271 46.9039 29.1154H46.9038H46.9038H46.9037C46.1884 29.0968 45.4728 29.0781 44.7561 29.0745C44.0288 29.0745 43.3015 29.0847 42.574 29.0949L42.5736 29.0949C42.0637 29.1021 41.5537 29.1092 41.0435 29.1129C40.84 29.1151 40.6368 29.0943 40.4371 29.0509C40.3349 29.0188 40.2421 28.9578 40.1682 28.874C40.1472 28.859 40.1304 28.8379 40.1198 28.813C40.1091 28.7881 40.105 28.7605 40.108 28.7332C40.1109 28.7059 40.1208 28.68 40.1364 28.6586C40.152 28.6371 40.1728 28.6208 40.1964 28.6116C40.3246 28.5439 40.4602 28.4944 40.5998 28.4641C40.6831 28.4459 40.7678 28.4345 40.8523 28.4232L40.8523 28.4232C40.9586 28.409 41.0646 28.3948 41.1672 28.3668C41.4518 28.3016 41.717 28.1596 41.9389 27.9536C42.1607 27.7476 42.3323 27.4843 42.4379 27.1873C42.6185 26.6697 42.7097 26.1197 42.7068 25.5655C42.7176 25.1969 42.714 24.8276 42.7104 24.4585V24.4584L42.7104 24.4583C42.7086 24.2739 42.7068 24.0895 42.7068 23.9053C42.7015 20.5447 42.6952 17.1846 42.688 13.825C42.6908 13.588 42.6746 13.3511 42.6396 13.1172C42.5944 12.7494 42.4574 12.4025 42.2439 12.1145C42.0304 11.8265 41.7486 11.6087 41.4294 11.4851C41.4003 11.4726 41.3684 11.4616 41.3359 11.4505C41.2003 11.404 41.055 11.3542 41.0637 11.1711C41.074 10.9528 41.2868 10.9171 41.4574 10.8885L41.4778 10.885C41.6665 10.8477 41.8576 10.828 42.0493 10.8261C42.4817 10.8322 42.9149 10.843 43.3482 10.8538C44.0573 10.8715 44.7666 10.8892 45.4728 10.8865C46.3831 10.8865 47.2935 10.8556 48.2073 10.8246C48.5083 10.8144 48.8096 10.8042 49.1114 10.7951C49.5071 10.7834 49.9026 10.7679 50.298 10.7524C50.8512 10.7307 51.4044 10.709 51.958 10.6978C52.0005 10.6996 52.0436 10.7002 52.0873 10.7008C52.3217 10.7039 52.5704 10.7073 52.7971 10.9086ZM78.4758 32.9182C77.1734 32.6187 75.8451 32.4753 74.5144 32.4907C73.2501 32.4571 71.9867 32.5922 70.7521 32.8932C69.4317 33.2175 68.1771 33.7188 67.0758 34.6167C64.9244 36.3653 63.6013 38.63 63.4453 41.6127C63.3579 43.2684 63.6578 44.8431 64.4646 46.2629C65.9423 48.8431 68.0292 50.5298 70.7575 51.2021C72.0494 51.5248 73.3891 51.5429 74.6879 51.2552C76.0823 50.9558 77.4013 50.3302 78.5551 49.421C79.0533 49.0274 79.519 48.581 79.9838 48.1354L79.9838 48.1354L79.9838 48.1354L79.984 48.1352L79.9842 48.135C80.1163 48.0084 80.2484 47.8818 80.3811 47.7564C80.4826 47.6725 80.566 47.565 80.6252 47.4416C80.6845 47.3183 80.7182 47.1821 80.724 47.0428C80.7267 46.8718 80.6756 46.7008 80.5237 46.6683C80.4376 46.6507 80.3099 46.7553 80.2305 46.8379C80.1416 46.9337 80.0579 47.035 79.9746 47.136L79.9745 47.136L79.9744 47.1361L79.9744 47.1362L79.9744 47.1362C79.8472 47.2901 79.7207 47.4434 79.577 47.5751C78.2812 48.7695 76.6705 49.4774 74.981 49.595C73.5384 49.7347 72.0898 49.4104 70.8126 48.6617C68.4823 47.2876 66.4614 44.0808 66.9199 40.2386C67.3999 36.2312 70.3837 33.682 73.1053 33.5684C73.9564 33.533 74.7887 33.5847 75.5821 33.9223C76.8407 34.459 77.7093 35.3952 77.9379 36.905C77.9824 37.3494 77.9972 37.7969 77.9823 38.2437C77.9836 38.3897 78.0065 38.5342 78.1409 38.5548C78.1919 38.5568 78.2427 38.5461 78.2893 38.5233C78.3359 38.5006 78.3771 38.4665 78.4099 38.4236C78.5359 38.2174 78.6334 37.9918 78.699 37.7542C78.9641 36.66 79.2162 35.5614 79.4683 34.4632L79.4683 34.4631L79.4688 34.4611L79.5905 33.9311C79.6698 33.5817 79.6348 33.4402 79.3471 33.2765C79.0732 33.1134 78.78 32.9928 78.4758 32.9182ZM32.9393 20.8607V21.7571C32.9368 22.055 32.9313 22.353 32.9258 22.6511C32.9139 23.3017 32.902 23.9525 32.9205 24.6027C32.9386 25.3263 33.0033 26.0476 33.1141 26.7612C33.2674 27.7402 33.7864 28.2356 34.6833 28.383C34.8167 28.3963 34.9462 28.4395 35.0638 28.5098C35.1049 28.5448 35.1383 28.5895 35.1616 28.6405C35.1848 28.6916 35.1974 28.7477 35.1983 28.8047C35.1858 28.8526 35.1625 28.8962 35.1306 28.9315C35.0986 28.9668 35.059 28.9927 35.0154 29.0067C34.7814 29.0635 34.5425 29.0926 34.3028 29.0937L33.9556 29.0871C33.1702 29.0725 32.3842 29.0579 31.6014 29.0052C30.5458 28.9371 29.4872 28.9509 28.4334 29.0465C28.2159 29.0644 28.0055 29.0533 27.7936 29.0422C27.7434 29.0396 27.6932 29.037 27.6427 29.0347C27.5083 29.0347 27.3953 28.9816 27.3738 28.8268C27.3523 28.672 27.4746 28.6027 27.5943 28.5673C27.7906 28.5098 27.9883 28.4553 28.1886 28.4096C29.0882 28.2017 29.4809 27.9039 29.7283 26.6506C29.7846 26.3276 29.8107 25.999 29.8063 25.6702L29.8074 25.2144C29.8165 21.7291 29.8256 18.2451 29.8063 14.7597C29.7923 14.1949 29.716 13.634 29.579 13.0892C29.4846 12.7503 29.3316 12.4345 29.1286 12.1589C29.0269 12.0026 28.895 11.873 28.7422 11.7792C28.5895 11.6854 28.4197 11.6297 28.2451 11.6163C28.031 11.5905 27.8227 11.5242 27.6293 11.4202C27.59 11.4092 27.5551 11.3847 27.5296 11.3502C27.5041 11.3157 27.4894 11.2731 27.4878 11.2287C27.4861 11.1843 27.4975 11.1405 27.5204 11.1039C27.5432 11.0672 27.5762 11.0396 27.6145 11.0251C27.7848 10.9317 27.9704 10.8765 28.1604 10.8629C28.4607 10.8492 28.7614 10.8531 29.0613 10.8747C31.2356 10.9705 33.4099 10.9455 35.5842 10.8747C36.2486 10.8554 36.913 10.8476 37.5775 10.8398C38.0304 10.8344 38.4834 10.8291 38.9364 10.8201C39.1713 10.8157 39.4075 10.8053 39.6432 10.795C39.8771 10.7847 40.1105 10.7744 40.3416 10.77C40.5049 10.7784 40.6675 10.7986 40.8283 10.8305C40.797 11.0296 40.767 11.2247 40.7374 11.4168C40.6704 11.8518 40.6057 12.2718 40.5338 12.6911C40.3994 13.4534 40.2649 14.2142 40.1224 14.975C40.1188 14.994 40.1167 15.0146 40.1145 15.0351C40.1093 15.0847 40.1041 15.1345 40.0794 15.1637L40.0586 15.1908C39.9902 15.2809 39.9093 15.3873 39.8252 15.3966C39.7683 15.3929 39.7127 15.3761 39.662 15.3474C39.6112 15.3187 39.5666 15.2787 39.5307 15.23C39.4586 15.1247 39.4123 15.0008 39.3963 14.8703C39.3587 14.6505 39.3385 14.4275 39.3358 14.2039C39.3358 13.2927 38.9068 12.6882 38.1888 12.3181C37.9052 12.1753 37.6031 12.0818 37.2933 12.0409C36.4332 11.9326 35.565 11.9252 34.7035 12.0188C34.454 12.051 34.2097 12.1204 33.9774 12.2252C33.71 12.332 33.4754 12.5189 33.3002 12.7647C33.125 13.0105 33.0162 13.3053 32.9863 13.6156C32.9497 13.8628 32.929 14.1126 32.9245 14.3631C32.9203 15.0647 32.9205 15.7658 32.9207 16.467C32.9208 17.1097 32.921 17.7525 32.9178 18.3955C32.9178 18.4463 32.9213 18.4945 32.926 18.559V18.559L32.926 18.559C32.9285 18.5919 32.9312 18.6289 32.9339 18.6727C33.1122 18.6886 33.2894 18.707 33.4657 18.7252C33.8771 18.7677 34.2842 18.8098 34.6927 18.8202L34.8306 18.8236C35.7463 18.8462 36.664 18.8689 37.5756 18.8128C38.2386 18.7719 38.8984 18.6802 39.558 18.5885C39.851 18.5477 40.1439 18.507 40.437 18.4707C40.5301 18.4475 40.6254 18.437 40.7208 18.4398C40.8176 18.4545 40.9668 18.4943 40.9897 18.5636C41.0036 18.6243 41.0062 18.6874 40.9974 18.7492C40.9886 18.811 40.9686 18.8702 40.9386 18.9234C40.8625 19.0251 40.7676 19.108 40.6602 19.1666C39.6994 19.8191 38.6345 20.2658 37.5218 20.4833C36.1423 20.7797 34.7371 20.9078 33.3319 20.8651C33.2412 20.8595 33.1512 20.8599 33.0432 20.8604H33.0432C33.0104 20.8605 32.9759 20.8607 32.9393 20.8607ZM86.5235 20.7826V20.3904C86.5936 20.3806 86.65 20.3712 86.7021 20.3626C86.7441 20.3556 86.7833 20.3491 86.8247 20.3432C87.0451 20.3296 87.2655 20.3175 87.4858 20.3053C87.865 20.2844 88.244 20.2635 88.6225 20.2356C89.9636 20.1314 91.2805 19.7898 92.522 19.2241C92.7858 19.0976 93.0406 18.9497 93.2844 18.7818C93.3873 18.7147 93.4733 18.6204 93.5345 18.5076C93.5688 18.4524 93.5876 18.3874 93.5885 18.3207C93.5894 18.2539 93.5724 18.1884 93.5396 18.1321C93.5068 18.0759 93.4596 18.0315 93.404 18.0044C93.3483 17.9773 93.2866 17.9687 93.2266 17.9797C93.1196 17.9929 93.0136 18.0141 92.9092 18.0432C91.8514 18.2865 90.7737 18.4115 89.6929 18.4162C88.9614 18.4147 88.2285 18.3764 87.4984 18.3307C87.2768 18.3157 87.0564 18.2739 86.8331 18.2315C86.7258 18.2111 86.6178 18.1906 86.5087 18.1729C86.5087 17.6559 86.5068 17.1448 86.5048 16.6375C86.5009 15.6344 86.4971 14.6463 86.5087 13.6583C86.5001 13.406 86.5547 13.1559 86.6666 12.9352C86.7785 12.7145 86.9434 12.5317 87.1434 12.4066C87.4674 12.2054 87.8217 12.0701 88.1895 12.007C88.9856 11.8596 89.7682 11.9731 90.5454 12.1633C90.8596 12.2263 91.1516 12.3837 91.389 12.618C91.6264 12.8523 91.7999 13.1543 91.89 13.4902C91.9472 13.745 91.9921 14.0029 92.0245 14.2628C92.0446 14.405 92.0812 14.5437 92.1334 14.6757C92.1912 14.8039 92.2907 14.9248 92.4386 14.9042C92.5865 14.8835 92.6497 14.7685 92.6833 14.6093C92.8164 13.9754 92.9518 13.342 93.0872 12.7086C93.2009 12.1765 93.3146 11.6444 93.4269 11.1121C93.4794 10.8629 93.4269 10.7833 93.1889 10.7479C93.0109 10.7189 92.8311 10.7046 92.6511 10.7051C92.1678 10.7192 91.685 10.7369 91.2021 10.7547C90.7726 10.7705 90.3431 10.7863 89.9134 10.7995C89.5958 10.8087 89.2782 10.8188 88.9606 10.8289C88.0057 10.8594 87.0504 10.8898 86.0959 10.8953C85.3994 10.899 84.7029 10.8819 84.0063 10.8647C83.5733 10.8541 83.1404 10.8435 82.7074 10.8378C82.5043 10.8418 82.3018 10.865 82.1023 10.9071C82.0949 10.9083 82.0874 10.9096 82.0798 10.9108C81.9315 10.9347 81.7515 10.9638 81.7285 11.1504C81.7035 11.3486 81.8468 11.395 81.9808 11.4384C82.0123 11.4485 82.0433 11.4586 82.0714 11.4703C82.6563 11.7166 83.0799 12.1412 83.2493 12.812C83.3321 13.1267 83.3773 13.4518 83.3838 13.7792C83.3936 17.3286 83.4013 20.8725 83.4066 24.411C83.408 25.1986 83.4093 25.1998 83.9524 25.6887L83.9579 25.6937C85.4814 27.0649 87.1851 28.1103 88.9614 29.0229C89.0603 29.0668 89.1654 29.0918 89.272 29.0966C89.4066 29.1067 89.5411 29.1172 89.6755 29.1278C90.1524 29.1652 90.6288 29.2026 91.1061 29.2175C91.4899 29.2358 91.8744 29.2141 92.2544 29.1526C92.8622 29.0406 93.357 28.7103 93.626 28.066C93.6625 27.9799 93.7024 27.8952 93.7423 27.8104C93.7905 27.7081 93.8388 27.6055 93.8814 27.4999C94.2512 26.6391 94.441 25.6986 94.4368 24.7472C94.4368 24.7344 94.437 24.7215 94.4371 24.7086C94.4388 24.5906 94.4405 24.4717 94.3023 24.4199C94.2391 24.3929 94.1689 24.3931 94.1058 24.4204C94.0427 24.4477 93.9914 24.5002 93.9621 24.5673C93.8879 24.7008 93.8249 24.8415 93.7739 24.9875C93.4216 25.9842 92.8393 26.7877 91.9667 27.2581C91.3047 27.6242 90.581 27.8371 89.8408 27.8835C89.1006 27.9299 88.3595 27.8089 87.6638 27.5279C86.8866 27.2315 86.5235 26.63 86.5235 25.7232V20.7826Z" fill="#FFC329"/>
</svg>
