<svg width="32" height="32" viewBox="0 0 32 32" fill="none" xmlns="http://www.w3.org/2000/svg">
<path d="M29.1101 9.91592C28.9583 9.35128 28.6607 8.83636 28.247 8.4227C27.8333 8.00903 27.3181 7.71113 26.753 7.55881C24.6726 7 16.3333 7 16.3333 7C16.3333 7 7.99405 7 5.91369 7.55584C5.34827 7.70767 4.83281 8.0054 4.41906 8.41914C4.00532 8.83288 3.70785 9.34806 3.55655 9.91295C3 11.9936 3 16.3333 3 16.3333C3 16.3333 3 20.673 3.55655 22.7507C3.8631 23.8981 4.76786 24.8017 5.91369 25.1079C7.99405 25.6667 16.3333 25.6667 16.3333 25.6667C16.3333 25.6667 24.6726 25.6667 26.753 25.1079C27.9018 24.8017 28.8036 23.8981 29.1101 22.7507C29.6667 20.673 29.6667 16.3333 29.6667 16.3333C29.6667 16.3333 29.6667 11.9936 29.1101 9.91592ZM13.6845 20.3163V12.3503L20.5893 16.3036L13.6845 20.3163Z" fill="white" fill-opacity="0.9"/>
</svg>
