<svg width="105" height="41" viewBox="0 0 105 41" fill="none" xmlns="http://www.w3.org/2000/svg">
<path fill-rule="evenodd" clip-rule="evenodd" d="M92.8925 18.8882C90.9306 18.835 89.0764 18.3669 87.3942 17.2474C85.5292 16.0055 84.1792 14.2643 83.5808 11.9398C82.852 9.11175 83.3576 6.50077 84.9927 4.18071C86.4637 2.09252 88.4363 0.846101 90.7639 0.298208C93.7221 -0.398842 96.5203 0.119515 99.0738 1.92269C100.829 3.16025 102.105 4.87629 102.657 7.10183C103.522 10.5797 102.597 13.5318 100.197 15.9301C98.6341 17.4896 96.761 18.358 94.6836 18.6888C94.2759 18.7525 93.8663 18.7919 93.4575 18.8313C93.2689 18.8495 93.0805 18.8677 92.8925 18.8882ZM99.6009 9.63306C99.6009 7.66301 99.25 5.96617 98.4109 4.42143C97.6942 3.10413 96.7086 2.10433 95.3639 1.60222C94.4761 1.26779 93.5342 1.1425 92.5993 1.2345C91.7536 1.31425 90.9414 1.50032 90.1897 1.94779C88.905 2.70135 87.9071 3.93348 87.3754 5.4227C86.7231 7.16592 86.5365 9.07718 86.8375 10.9326C87.0473 12.2854 87.4305 13.5732 88.166 14.697C89.7084 17.0599 91.81 18.0464 94.424 17.6358C95.9596 17.3951 97.1752 16.5342 98.0546 15.1253C99.0636 13.5083 99.6027 11.5934 99.6009 9.63306ZM32.0768 9.81469V10.2326C32.0768 11.9487 32.0799 13.6642 32.0862 15.3793C32.0826 15.8289 32.1699 16.2737 32.3417 16.6818C32.4587 16.9873 32.6452 17.2547 32.8832 17.4584C33.1212 17.6622 33.4028 17.7954 33.7011 17.8455C33.8544 17.8726 34.0062 17.9096 34.1556 17.9563C34.2341 17.9718 34.3044 18.0191 34.3527 18.0888C34.401 18.1586 34.4238 18.2456 34.4164 18.3329C34.3976 18.5455 34.2282 18.5987 34.0682 18.5972C33.6827 18.5972 33.2936 18.5842 32.9099 18.5714L32.6644 18.5633C32.3617 18.5526 32.059 18.5385 31.7564 18.5244C31.0991 18.4938 30.442 18.4632 29.7855 18.4673C29.1639 18.4673 28.5423 18.5085 27.9207 18.5497H27.9207H27.9206H27.9206H27.9206H27.9205H27.9205H27.9205H27.9205H27.9204H27.9204H27.9204C27.6304 18.5689 27.3404 18.5881 27.0505 18.6031H26.6551C26.5952 18.6114 26.5344 18.6038 26.4776 18.581C26.465 18.5722 26.4517 18.5631 26.438 18.5539L26.4379 18.5538C26.3479 18.4928 26.2424 18.4214 26.2249 18.3432C26.1926 18.1808 26.3365 18.0995 26.4682 18.0567C26.544 18.0315 26.6228 18.0136 26.7012 17.9958L26.7013 17.9958L26.7014 17.9958L26.7015 17.9958L26.731 17.9891C26.7483 17.9851 26.7656 17.9811 26.7829 17.977C26.8889 17.951 26.9965 17.9242 27.103 17.8977C27.1963 17.8744 27.2887 17.8514 27.3786 17.8293C27.6208 17.7734 27.8471 17.6541 28.0383 17.4816C28.2296 17.309 28.3801 17.0884 28.4771 16.8384C28.6536 16.4326 28.752 15.9912 28.7662 15.5417C28.7864 15.0145 28.8025 14.4858 28.8012 13.9586C28.7922 10.4143 28.7792 6.86503 28.7622 3.31086C28.7548 2.98225 28.7129 2.65567 28.6372 2.33765C28.4825 1.64946 28.0616 1.23153 27.4525 1.03216C27.4052 1.01656 27.3577 1.00173 27.3103 0.986915C27.1962 0.951222 27.0823 0.915628 26.9711 0.86971C26.8695 0.831727 26.7754 0.772559 26.6941 0.695448C26.6657 0.665984 26.6436 0.62982 26.6296 0.589668C26.6156 0.549517 26.6101 0.506417 26.6135 0.46359C26.6306 0.42495 26.6559 0.391374 26.6872 0.365678C26.7186 0.339983 26.7551 0.322918 26.7936 0.315909C27.0328 0.292793 27.273 0.28441 27.513 0.290802C27.8851 0.304477 28.2571 0.322086 28.6289 0.339692C29.3012 0.371521 29.9734 0.403343 30.646 0.411901C31.6908 0.425192 32.7114 0.411901 33.7387 0.35726C33.9452 0.346447 34.1516 0.333755 34.358 0.321066C35.279 0.26443 36.1989 0.207864 37.1205 0.318861C37.7312 0.370178 38.3307 0.527178 38.8968 0.784053C40.0425 1.34967 40.7713 2.28744 40.9138 3.68597C40.9798 4.48216 40.7988 5.27948 40.4001 5.94842C39.9384 6.75791 39.3194 7.44527 38.5875 7.96131C38.1863 8.25302 37.7643 8.50945 37.3423 8.76587L37.3422 8.76593L37.3421 8.76598C37.166 8.873 36.9899 8.98001 36.8153 9.08958C36.7698 9.11787 36.7231 9.14241 36.6725 9.169L36.6724 9.16903C36.6332 9.18964 36.5915 9.21148 36.5464 9.23726C36.5605 9.2562 36.5713 9.27357 36.5808 9.28878C36.5958 9.31271 36.6074 9.33128 36.623 9.34211C37.2872 9.81932 37.8958 10.3837 38.4356 11.0227L38.8116 11.4548C39.7737 12.5607 40.7357 13.6665 41.7219 14.7457C42.3132 15.3834 42.9343 15.9868 43.5829 16.5533C44.3211 17.2046 45.1548 17.6595 46.1203 17.7643C46.4026 17.7938 46.5694 17.9474 46.5788 18.1276C46.5882 18.3078 46.4726 18.4555 46.1754 18.547C45.9794 18.6081 45.7778 18.6453 45.5743 18.6578C44.3238 18.7183 43.0787 18.6947 41.851 18.3742C40.8645 18.1224 39.9571 17.5861 39.2222 16.8206C38.3502 15.894 37.5463 14.893 36.818 13.8272L36.778 13.7705C36.0182 12.6935 35.2577 11.6156 34.3102 10.7259C34.0148 10.4398 33.6904 10.192 33.3434 9.98748C33.1234 9.86096 32.8629 9.81898 32.6085 9.77798C32.5659 9.77112 32.5235 9.76429 32.4815 9.7571C32.3447 9.75282 32.2081 9.77226 32.0768 9.81469ZM32.0835 5.48323H32.0768V7.8978C32.0768 8.39696 32.222 8.55202 32.6805 8.56532H33.2184C34.2218 8.57158 35.2009 8.22541 36.0125 7.57734C37.056 6.7651 37.5643 5.6575 37.415 4.24272C37.3142 3.26656 36.9444 2.44546 36.1927 1.87984C35.2515 1.17393 34.2282 1.02773 33.135 1.32604C32.9456 1.36965 32.7695 1.46566 32.6234 1.60496C32.4772 1.74426 32.3659 1.92225 32.3 2.12204C32.1817 2.46542 32.111 2.82632 32.0902 3.19272C32.0705 3.72385 32.075 4.25931 32.0796 4.79305V4.79309V4.79314V4.79318V4.79323V4.79327V4.79332V4.79336V4.7934V4.79345V4.79349V4.79354C32.0815 5.02392 32.0835 5.25398 32.0835 5.48323ZM65.7602 31.0659C64.5149 31.515 63.2313 31.8242 61.9293 31.9889C61.0631 32.0892 60.1946 32.1684 59.3189 32.2482L59.3186 32.2482L59.3182 32.2483L59.318 32.2483L59.3178 32.2483L59.3177 32.2484L59.3175 32.2484L59.3173 32.2484C58.9046 32.286 58.4904 32.3238 58.0742 32.364C58.0631 32.416 58.0554 32.4688 58.0513 32.522C58.0513 33.0541 58.0498 33.5863 58.0483 34.1184C58.0453 35.1827 58.0423 36.247 58.0513 37.3113C58.0465 37.7632 58.112 38.2127 58.2449 38.6404C58.491 39.4083 58.9603 39.8691 59.7052 39.9695C59.8356 39.9861 59.9646 40.0137 60.0911 40.0522C60.1562 40.0695 60.2131 40.1128 60.2507 40.1737C60.2882 40.2346 60.3037 40.3087 60.2942 40.3815C60.2931 40.4487 60.2682 40.5127 60.2247 40.5599C60.1812 40.6071 60.1227 40.6337 60.0615 40.6341C59.9084 40.6647 59.7533 40.6815 59.5976 40.6843C59.116 40.6697 58.6349 40.6507 58.154 40.6316C57.8548 40.6197 57.5557 40.6079 57.2566 40.5971C57.0888 40.5911 56.921 40.5834 56.7534 40.5758H56.7532H56.7531H56.753H56.7529H56.7528H56.7527H56.7526H56.7524H56.7523H56.7522L56.7509 40.5757C56.3069 40.5556 55.8633 40.5354 55.4198 40.544C54.927 40.5547 54.4341 40.5826 53.9413 40.6105C53.6179 40.6289 53.2946 40.6472 52.9712 40.6606C52.8171 40.6718 52.6625 40.6487 52.5167 40.5927C52.4783 40.5804 52.4444 40.555 52.42 40.5202C52.3956 40.4853 52.3819 40.4428 52.381 40.3988C52.3801 40.3548 52.392 40.3117 52.415 40.2757C52.4379 40.2396 52.4707 40.2126 52.5087 40.1984C52.6177 40.1443 52.7324 40.1051 52.8502 40.0817C52.9409 40.0583 53.0319 40.0372 53.1229 40.0163C53.2666 39.9831 53.4099 39.95 53.5508 39.9075C53.7909 39.8415 54.0122 39.7104 54.1943 39.5262C54.3763 39.342 54.5134 39.1105 54.5929 38.853C54.7932 38.2741 54.8268 37.6716 54.8524 37.0646C54.87 36.6686 54.8699 36.2726 54.8699 35.8766L54.8699 35.7975C54.8699 32.4324 54.8654 29.0663 54.8564 25.6992C54.8649 25.1839 54.7945 24.6707 54.648 24.181C54.4463 23.543 54.0711 23.0971 53.4378 22.9464C53.146 22.8755 52.8569 22.7869 52.5719 22.685C52.5295 22.6681 52.4912 22.641 52.4595 22.6057C52.4279 22.5705 52.4038 22.528 52.389 22.4812C52.3648 22.3483 52.4643 22.2612 52.584 22.2494C52.868 22.2096 53.1543 22.1933 53.4405 22.2006C54.5174 22.3067 55.5995 22.3353 56.6798 22.2863C57.443 22.2353 58.2093 22.2193 58.9751 22.2032L58.9758 22.2032C59.2311 22.1979 59.4864 22.1925 59.7415 22.1859C59.8606 22.1852 59.9793 22.2031 60.0938 22.239C60.1543 22.2493 60.2088 22.2848 60.2459 22.3382C60.283 22.3917 60.2998 22.4588 60.2928 22.5255C60.2955 22.5925 60.2756 22.6582 60.2369 22.7099C60.1982 22.7617 60.1434 22.796 60.0831 22.8061C60.0458 22.8149 60.0083 22.8228 59.9709 22.8307L59.9708 22.8308L59.9707 22.8308L59.9707 22.8308L59.9706 22.8308L59.9706 22.8308L59.9705 22.8308L59.9705 22.8308L59.9704 22.8308L59.9704 22.8308L59.9704 22.8309L59.9703 22.8309C59.9014 22.8454 59.8327 22.8599 59.7657 22.88C59.5677 22.9308 59.3724 22.994 59.1808 23.069C58.977 23.1507 58.7929 23.2826 58.6428 23.4546C58.4927 23.6267 58.3805 23.8343 58.3148 24.0614C58.1089 24.7107 58.0017 25.3927 57.9975 26.0802C57.9908 26.9747 58.0074 27.8737 58.0243 28.787V28.7871V28.7871V28.7872V28.7872V28.7873V28.7874V28.7874V28.7875V28.7877C58.0311 29.1513 58.0379 29.5172 58.0432 29.8859C60.6438 30.2876 63.2026 30.0986 65.7682 29.4591C65.7424 28.8611 65.7674 28.2696 65.7922 27.682L65.7922 27.6817C65.8268 26.8603 65.8612 26.0466 65.7561 25.234C65.6993 24.8309 65.6152 24.4331 65.5047 24.0437C65.4475 23.8194 65.339 23.615 65.1896 23.4498C65.0401 23.2846 64.8546 23.1642 64.6508 23.1C64.3929 23.009 64.1284 22.9369 63.8663 22.8655L63.8663 22.8654C63.7923 22.8453 63.7184 22.8251 63.645 22.8046C63.6213 22.7978 63.5968 22.7921 63.5723 22.7863C63.4437 22.7563 63.3146 22.7262 63.3022 22.5314C63.2914 22.3838 63.4366 22.2641 63.68 22.2582C63.9803 22.2407 64.2813 22.2462 64.5809 22.2745C65.8316 22.4393 67.075 22.3868 68.3199 22.3342C68.6811 22.3189 69.0425 22.3036 69.4042 22.2937C69.5798 22.2892 69.7561 22.2836 69.9324 22.2779C70.226 22.2684 70.5195 22.259 70.8093 22.2553C70.9286 22.2493 71.0477 22.2709 71.1589 22.3188C71.2373 22.3697 71.2943 22.4525 71.3176 22.5492C71.3246 22.5782 71.3264 22.6084 71.3227 22.6381C71.3189 22.6679 71.3099 22.6965 71.296 22.7224C71.2821 22.7482 71.2636 22.7708 71.2417 22.7887C71.2198 22.8066 71.1949 22.8196 71.1683 22.8268C71.044 22.875 70.9174 22.9159 70.7891 22.9494C69.7403 23.1901 69.2213 23.7867 69.0774 24.9637C69.0259 25.3951 68.9998 25.8297 68.9994 26.2648V26.2703C68.9994 29.8586 68.9994 33.4468 69.0142 37.0351C69.0231 37.5359 69.0956 38.033 69.2293 38.5119C69.4539 39.3448 69.9662 39.8484 70.7878 39.9222C70.9419 39.9372 71.0905 39.9929 71.2208 40.0847C71.4198 40.2324 71.3781 40.4819 71.1482 40.5632C71.0328 40.5989 70.9128 40.6134 70.7932 40.606C70.5048 40.5991 70.2163 40.5938 69.9278 40.5886C69.0986 40.5734 68.2693 40.5582 67.4423 40.5056C66.7406 40.4614 66.0453 40.508 65.3489 40.5547L65.3484 40.5547L65.348 40.5547L65.3476 40.5547L65.3472 40.5547L65.3468 40.5548C65.2059 40.5642 65.0649 40.5737 64.9238 40.5824C64.5285 40.606 64.1318 40.6208 63.7351 40.6237C63.4783 40.6237 63.2995 40.5115 63.3035 40.3623C63.3035 40.1472 63.4501 40.1153 63.5913 40.0846L63.5914 40.0846C63.6169 40.079 63.6423 40.0735 63.6665 40.067L64.5043 39.844C64.7339 39.7865 64.9467 39.6663 65.123 39.4947C65.2992 39.3231 65.4333 39.1054 65.5127 38.8619C65.6709 38.4471 65.7558 38.0031 65.7628 37.5535C65.7754 35.4938 65.7835 33.4347 65.7871 31.376C65.7871 31.3262 65.7818 31.2776 65.7746 31.2107C65.7703 31.1705 65.7652 31.1236 65.7602 31.0659ZM13.0097 33.9271C12.1787 32.973 11.3457 32.0166 10.2681 31.2859C10.4536 31.184 10.58 31.1131 10.7037 31.0304C11.4347 30.6602 12.126 30.202 12.7651 29.6644C13.4239 29.0973 13.9927 28.4431 14.3517 27.5969C15.0684 25.9118 14.7148 24.1249 13.1012 23.0498C12.5381 22.6934 11.9125 22.4725 11.2658 22.4015C10.2116 22.2538 9.15469 22.304 8.09914 22.369C7.86425 22.3834 7.62895 22.4001 7.39333 22.4167H7.39329H7.39326H7.39323H7.39319H7.39316H7.39312H7.39309H7.39305H7.39302H7.39298C6.49168 22.4806 5.58569 22.5448 4.67971 22.4827L4.54244 22.4733L4.54224 22.4733C3.85658 22.4261 3.17091 22.379 2.48524 22.3513C2.07487 22.3311 1.66387 22.3288 1.25266 22.3266C1.06294 22.3256 0.873176 22.3245 0.683411 22.3217C0.542224 22.3188 0.382212 22.3483 0.382212 22.5196C0.391486 22.5822 0.413948 22.6414 0.447803 22.6927C0.481657 22.744 0.525966 22.7859 0.577187 22.815C0.781414 22.9236 0.995501 23.0082 1.21589 23.0675C1.52352 23.1414 1.80426 23.3138 2.02257 23.5631C2.24088 23.8123 2.38692 24.1271 2.44221 24.4675C2.49472 24.7096 2.52312 24.9572 2.52693 25.2059C2.54306 29.1933 2.5565 33.1807 2.5565 37.168C2.55887 37.6291 2.49674 38.0878 2.37229 38.5282C2.1437 39.302 1.69996 39.8661 0.893176 39.9341C0.785164 39.9411 0.678004 39.9594 0.573149 39.9887C0.42156 40.0266 0.274472 40.0836 0.134801 40.1586C-0.0561384 40.2708 -0.0426971 40.4953 0.163034 40.5661C0.338447 40.6163 0.519902 40.6363 0.700893 40.6252C1.21867 40.6192 1.73644 40.6099 2.25422 40.6006L2.25603 40.6005C3.1307 40.5848 4.00538 40.5691 4.88006 40.5691C5.50419 40.5661 6.12895 40.581 6.75348 40.596H6.7537H6.75392H6.75414H6.75436H6.75458H6.75481H6.75502H6.75524H6.75545H6.75567L6.75625 40.596L6.75683 40.596L6.75741 40.596L6.75799 40.596L6.75858 40.596L6.75916 40.596L6.75975 40.596L6.76033 40.5961L6.76092 40.5961L6.76151 40.5961C7.0479 40.6029 7.33424 40.6098 7.62045 40.6149C7.71629 40.6208 7.81236 40.6208 7.9082 40.6149C8.06015 40.5986 8.1973 40.5484 8.21343 40.3461C8.22957 40.1438 8.10855 40.0655 7.96064 40.0227C7.81332 39.9788 7.66533 39.9402 7.51715 39.9014L7.517 39.9014C7.45559 39.8853 7.39414 39.8693 7.33269 39.8529C7.05016 39.7814 6.78895 39.6318 6.57385 39.4183C6.35875 39.2049 6.1969 38.9345 6.10368 38.633C5.93501 38.1523 5.84753 37.6418 5.84551 37.1267V32.2532V31.8899C5.87841 31.8666 5.91305 31.8463 5.94905 31.8294C6.60255 31.6758 7.15654 31.9254 7.65675 32.3566C8.54153 33.1275 9.27839 34.0475 9.97089 35.0149C10.0964 35.1903 10.2213 35.3661 10.3461 35.5419L10.3464 35.5423L10.3465 35.5424C11.1296 36.6453 11.9113 37.746 12.839 38.7216C13.6625 39.5967 14.693 40.2004 15.8134 40.4642C17.0343 40.7685 18.27 40.733 19.5071 40.6858C19.7094 40.663 19.9074 40.6073 20.0947 40.5204C20.2292 40.4672 20.3543 40.3801 20.3462 40.1807C20.3381 39.9813 20.2184 39.9134 20.0692 39.8661C19.9199 39.8189 19.768 39.782 19.6147 39.7509C19.1511 39.6814 18.7036 39.5166 18.2956 39.2651C17.392 38.6603 16.5562 37.9411 15.8053 37.1222C15.1888 36.441 14.5861 35.7446 13.9835 35.0482L13.9831 35.0478C13.7249 34.7494 13.4667 34.451 13.2075 34.1539C13.1415 34.0784 13.0756 34.0028 13.0097 33.9271ZM5.84148 29.8889V27.554C5.84148 27.3295 5.84067 27.1056 5.83987 26.8815L5.83987 26.8813C5.83812 26.3949 5.83638 25.9076 5.84282 25.4112C5.84751 25.1345 5.87452 24.8587 5.9235 24.5872C6.06738 23.8281 6.50573 23.4087 7.19823 23.2817C7.95805 23.1296 8.74163 23.2204 9.45589 23.5431C10.4671 24.0142 10.9874 24.8988 11.169 26.0536C11.2423 26.5359 11.2314 27.0291 11.1367 27.5068C10.9767 28.3515 10.5262 28.9836 9.92651 29.5034C9.21765 30.1224 8.35657 30.4948 7.45371 30.5726C7.12025 30.6132 6.78451 30.6265 6.44926 30.6125C5.96922 30.5815 5.84148 30.4161 5.84148 29.8889ZM90.5017 31.8175V32.2237L90.5219 37.2108C90.5227 37.6866 90.6015 38.1583 90.7545 38.6034C90.8589 38.9501 91.0501 39.2575 91.3062 39.4902C91.5624 39.7229 91.8731 39.8716 92.2027 39.9193C92.3785 39.958 92.5509 40.0138 92.7177 40.0862C92.7711 40.1012 92.8174 40.1379 92.8473 40.1888C92.8773 40.2397 92.8886 40.3012 92.8791 40.3608C92.8713 40.4256 92.8436 40.4856 92.8005 40.5307C92.7575 40.5758 92.7017 40.6034 92.6424 40.6089C92.5827 40.6183 92.5224 40.6218 92.4622 40.6193C92.211 40.6141 91.9596 40.6079 91.7082 40.6016L91.7073 40.6016L91.7064 40.6016L91.7055 40.6016L91.7046 40.6015L91.7036 40.6015L91.7027 40.6015L91.7018 40.6015L91.7009 40.6015C91.2347 40.5899 90.7684 40.5783 90.3027 40.5735C89.426 40.5646 88.5547 40.5602 87.6726 40.5735C87.1935 40.5796 86.7145 40.5957 86.2354 40.6117C85.9077 40.6227 85.58 40.6336 85.2522 40.6414C85.1203 40.654 84.9875 40.6384 84.8609 40.5956C84.815 40.5723 84.7741 40.5385 84.741 40.4965C84.7078 40.4545 84.6832 40.4052 84.6686 40.352C84.6565 40.2929 84.7601 40.1615 84.8327 40.1334C85.0484 40.0544 85.2697 39.9952 85.4942 39.9562C86.539 39.7775 86.9855 39.1366 87.163 37.8975C87.2092 37.5182 87.2285 37.1356 87.2208 36.753C87.2136 32.9527 87.2015 29.1524 87.1845 25.3521C87.1762 24.9843 87.1237 24.6194 87.0285 24.2667C86.962 23.9839 86.8267 23.7263 86.6373 23.5213C86.4478 23.3163 86.2112 23.1718 85.9528 23.1029C85.9209 23.093 85.8888 23.084 85.8568 23.075C85.8077 23.0613 85.7587 23.0475 85.7107 23.0306C85.5727 22.9895 85.4379 22.9367 85.3073 22.8726L85.2741 22.8546C85.1457 22.7859 84.9988 22.7073 85.0384 22.5063C85.0762 22.3144 85.2156 22.3229 85.3455 22.3308L85.3457 22.3308C85.3637 22.3319 85.3815 22.333 85.3988 22.3335C85.6364 22.3414 85.8741 22.349 86.1118 22.3566L86.1134 22.3567L86.1139 22.3567L86.1141 22.3567L86.1143 22.3567L86.1144 22.3567L86.1146 22.3567L86.1147 22.3567L86.1149 22.3567L86.1151 22.3567L86.1152 22.3567C86.9445 22.3832 87.7742 22.4097 88.6031 22.4487C89.718 22.5122 90.8354 22.5078 91.9499 22.4354C93.0619 22.3527 94.182 22.3321 95.2981 22.3498C96.0428 22.3586 96.7769 22.545 97.4495 22.8962C98.5252 23.4633 99.1801 24.373 99.3172 25.7021C99.4046 26.5498 99.1828 27.3266 98.7969 28.0414C98.4388 28.6703 97.9779 29.221 97.4374 29.6658C96.8021 30.208 96.1133 30.6702 95.3841 31.0437L94.9807 31.2608C94.9843 31.2787 94.9852 31.2948 94.9859 31.3082C94.9871 31.3302 94.9879 31.3454 94.9996 31.3509C95.9276 31.9716 96.6702 32.8209 97.4129 33.6702L97.5544 33.8319C97.7955 34.1065 98.0361 34.3816 98.2767 34.6567C99.0931 35.5903 99.9091 36.5235 100.745 37.4338C101.465 38.1898 102.266 38.846 103.131 39.3876C103.401 39.5634 103.696 39.6277 103.992 39.6922L103.992 39.6922C104.082 39.7117 104.171 39.7313 104.26 39.7539C104.448 39.7926 104.632 39.8515 104.81 39.9296C105.059 40.0537 105.068 40.3446 104.81 40.4627C104.563 40.5935 104.295 40.6698 104.021 40.6872L103.742 40.6874C102.891 40.6885 102.028 40.6896 101.18 40.603C99.8132 40.4769 98.5295 39.832 97.549 38.7792C96.8829 38.0743 96.2599 37.322 95.684 36.5271C95.5841 36.3905 95.4844 36.2538 95.3847 36.1171L95.3816 36.1127L95.3753 36.1041L95.3752 36.104C94.772 35.2769 94.1689 34.4501 93.5326 33.6503C93.1493 33.1952 92.7382 32.7694 92.3022 32.3758C91.9782 32.0556 91.5709 31.8552 91.1377 31.8028C90.9257 31.7935 90.7132 31.7984 90.5017 31.8175ZM90.491 27.526V29.9405C90.491 30.3983 90.6012 30.5416 91.0019 30.5874C91.6643 30.6789 92.3368 30.619 92.9771 30.4114C93.6174 30.2037 94.2117 29.8528 94.7226 29.3808C95.0421 29.1003 95.3081 28.7534 95.5054 28.3599C95.7027 27.9663 95.8273 27.5339 95.8722 27.0874C96.0618 25.4629 95.2645 23.9728 93.8929 23.4574C93.1845 23.1956 92.4246 23.1502 91.6944 23.3259C91.4372 23.3688 91.1977 23.4959 91.0072 23.6906C90.8167 23.8853 90.6841 24.1386 90.6268 24.4173C90.5544 24.7063 90.5133 25.0038 90.5044 25.3034C90.491 26.0492 90.491 26.7876 90.491 27.526ZM73.2728 9.99634C73.2762 9.94503 73.2795 9.89409 73.2795 9.84424C73.5004 9.73543 73.7484 9.71251 73.9827 9.77927C74.3527 9.84165 74.7003 10.0132 74.9885 10.2755C75.4028 10.6362 75.7966 11.0243 76.1678 11.4377C76.7352 12.117 77.2718 12.8289 77.7921 13.554L77.9206 13.7318L77.9207 13.732C78.6339 14.7192 79.342 15.6996 80.1627 16.5814C80.9511 17.4586 81.94 18.0866 83.0255 18.3994C84.2397 18.7375 85.4781 18.7095 86.7139 18.6696C87.0129 18.646 87.3065 18.5702 87.5838 18.4451C87.8353 18.3373 87.8393 18.0538 87.6121 17.8943C87.5389 17.8507 87.4592 17.8217 87.3768 17.8086C87.2953 17.7909 87.2133 17.7769 87.1313 17.7629L87.1312 17.7629C87.0358 17.7467 86.9403 17.7304 86.8456 17.7082C86.0582 17.5092 85.3273 17.101 84.7171 16.5194C84.0528 15.9124 83.3993 15.2863 82.7888 14.6173C81.9536 13.7011 81.1361 12.7656 80.3187 11.8304L80.3185 11.83L80.3158 11.8269L80.3144 11.8254L80.3136 11.8245C80.026 11.4954 79.7384 11.1663 79.4501 10.8381C78.9855 10.3032 78.4667 9.82854 77.9037 9.42336C77.8517 9.37913 77.8035 9.32969 77.7598 9.27568C77.9562 9.1487 78.1522 9.02402 78.3471 8.9C78.8141 8.60282 79.2753 8.30935 79.723 7.99677C80.3457 7.5666 80.8924 7.01624 81.3366 6.37229C81.7763 5.72545 82.0829 5.01068 82.1125 4.19401C82.1595 2.90771 81.6876 1.88872 80.7073 1.17395C79.9355 0.611286 79.0601 0.407489 78.1525 0.326265C77.2428 0.244163 76.3356 0.303186 75.4283 0.36221C74.9811 0.391307 74.5338 0.420404 74.0863 0.432595C73.3548 0.45327 72.622 0.473943 71.8905 0.453267C71.2649 0.43351 70.6384 0.4001 70.0112 0.366654L70.0111 0.366649C69.6069 0.345096 69.2025 0.323527 68.7978 0.305587C68.6382 0.296724 68.478 0.299682 68.3179 0.302636C68.238 0.304112 68.1581 0.305587 68.0784 0.305587C67.9439 0.307064 67.8095 0.352846 67.8095 0.500526C67.8287 0.611639 67.886 0.710443 67.9695 0.776687C68.0566 0.845232 68.1547 0.895315 68.2586 0.924367C68.3407 0.955497 68.4256 0.976484 68.5108 0.997535C68.5428 1.00545 68.5749 1.01337 68.6068 1.02184C68.9094 1.08715 69.1883 1.24749 69.4095 1.48341C69.6308 1.71933 69.785 2.0207 69.8533 2.35096C69.9306 2.69653 69.9699 3.05103 69.9703 3.40687C69.9918 5.09485 69.9918 6.78431 69.9918 8.47377C69.9981 10.6644 70.0012 12.8549 70.0012 15.0455C70.0193 15.6944 69.8913 16.338 69.6288 16.9196C69.5297 17.1386 69.3884 17.3313 69.2147 17.4843C69.0411 17.6373 68.8391 17.747 68.623 17.8057C68.4878 17.8446 68.3516 17.8774 68.2153 17.9103C68.1293 17.931 68.0432 17.9518 67.9574 17.974C67.8272 17.9964 67.7002 18.0371 67.5795 18.0951C67.5414 18.1224 67.509 18.1582 67.4845 18.2002C67.4599 18.2422 67.4437 18.2894 67.437 18.3388C67.4316 18.3949 67.519 18.4939 67.5849 18.5234C67.6953 18.5735 67.8137 18.5986 67.9332 18.5972C68.3434 18.5841 68.754 18.5675 69.1645 18.5509L69.165 18.5509L69.1654 18.5509C69.679 18.5301 70.1926 18.5093 70.7058 18.4953C71.3405 18.4776 71.9765 18.4702 72.6112 18.4865C73.0696 18.4985 73.5275 18.5213 73.9855 18.5442C74.3188 18.5608 74.6522 18.5774 74.9858 18.5899C75.1423 18.598 75.2988 18.576 75.4484 18.5249C75.4935 18.5017 75.5332 18.4679 75.5649 18.4257C75.5965 18.3836 75.6192 18.3342 75.6313 18.2812C75.6283 18.2327 75.6145 18.1858 75.591 18.1446C75.5676 18.1033 75.5352 18.0691 75.4968 18.0449C75.3432 17.9747 75.1825 17.9251 75.0181 17.8972C74.2436 17.7304 73.699 17.2637 73.4798 16.4204C73.3665 16.0049 73.3019 15.5751 73.2876 15.1415C73.2661 13.4787 73.266 11.8158 73.266 10.1529C73.266 10.1008 73.2695 10.0484 73.2728 9.99634ZM73.2687 6.39001V5.5187C73.2687 4.75372 73.2732 3.98774 73.2822 3.22079C73.2785 2.83692 73.3515 2.45684 73.496 2.10729C73.5708 1.91206 73.6863 1.73886 73.8332 1.60163C73.9801 1.4644 74.1543 1.36697 74.3418 1.3172C75.2406 1.04671 76.1988 1.15194 77.0311 1.61256C78.3273 2.32733 78.7226 3.74506 78.6446 4.97376C78.5774 6.04739 78.0947 6.86111 77.3309 7.49908C76.4738 8.21469 75.4223 8.59238 74.3458 8.57124C74.1777 8.57124 74.0096 8.57124 73.8416 8.5609C73.4126 8.53728 73.2687 8.3955 73.2687 7.89339V6.39001ZM50.1852 9.23435C50.2273 9.28191 50.2722 9.32632 50.3197 9.36726C50.9909 9.85612 51.6063 10.4318 52.1525 11.0818C52.357 11.3156 52.5613 11.5498 52.7655 11.784L52.7661 11.7847L52.7667 11.7854C53.6174 12.7608 54.4683 13.7365 55.342 14.6852C55.9739 15.3705 56.6503 16.0143 57.3401 16.6213C58.0325 17.2641 58.8826 17.6674 59.7833 17.7806C59.8789 17.7881 59.9726 17.8136 60.0603 17.8559C60.3118 18.0036 60.3293 18.299 60.0765 18.4466C59.9305 18.5383 59.768 18.5938 59.6005 18.6091L59.3032 18.6191C58.5519 18.6448 57.7988 18.6706 57.0456 18.6445C56.3495 18.6137 55.6612 18.4704 55.0031 18.2192C54.0804 17.8698 53.2469 17.2835 52.572 16.5091C51.7354 15.5808 51.0017 14.5614 50.2675 13.5414L50.2671 13.5408L50.2669 13.5405L50.2668 13.5404C50.0855 13.2885 49.9042 13.0366 49.7213 12.7861C49.0796 11.8804 48.3461 11.058 47.5349 10.3346C47.2167 10.0509 46.8399 9.85722 46.4377 9.77042C46.2007 9.70103 45.9484 9.736 45.7345 9.8679V16.8975C45.6502 16.8759 45.5711 16.857 45.4957 16.8389L45.4956 16.8389C45.3436 16.8025 45.2064 16.7696 45.0715 16.7262C44.4705 16.5297 43.9824 16.1236 43.5239 15.6732C43.3423 15.4954 43.1679 15.3087 42.9934 15.1218C42.8577 14.9765 42.722 14.8311 42.5826 14.6896C42.5321 14.6434 42.4925 14.5845 42.467 14.518C42.4415 14.4514 42.4309 14.3791 42.436 14.3072V13.9911C42.4262 10.3877 42.415 6.78532 42.4024 3.18389C42.4038 2.895 42.3689 2.60728 42.2989 2.32883C42.2261 1.99919 42.0686 1.69942 41.8453 1.46513C41.622 1.23084 41.3421 1.07187 41.039 1.00709C40.9096 0.979635 40.7817 0.944636 40.6557 0.902237C40.5528 0.870462 40.4579 0.812824 40.3787 0.733879C40.3502 0.694334 40.3295 0.6487 40.3179 0.599882C40.3064 0.551064 40.3042 0.500135 40.3115 0.450336C40.3223 0.391264 40.4339 0.324806 40.5051 0.318899C40.7321 0.294777 40.9603 0.286884 41.1882 0.295269C41.6628 0.31424 42.1373 0.33726 42.6118 0.360281C43.5411 0.405361 44.4704 0.450441 45.3996 0.465105C45.8631 0.47495 46.3266 0.438851 46.79 0.402751C47.0217 0.384701 47.2535 0.366652 47.4852 0.354345L47.6315 0.346538C49.0834 0.26887 50.5358 0.191175 51.9669 0.565526C53.2968 0.911098 54.1627 1.82671 54.5217 3.27398C54.6952 3.97989 54.5701 4.68728 54.3146 5.3607C53.9691 6.27484 53.3868 6.98518 52.7011 7.60691C52.1435 8.10625 51.5309 8.5265 50.8777 8.85776C50.7116 8.94351 50.5477 9.03416 50.3716 9.13156C50.3111 9.165 50.2492 9.19924 50.1852 9.23435ZM45.7573 5.49509H45.7412C45.7412 5.73679 45.74 5.97866 45.7388 6.22053C45.7364 6.70426 45.734 7.18799 45.7412 7.67041C45.756 8.51957 45.7923 8.55649 46.5641 8.57422C47.7124 8.61114 48.7787 8.32611 49.7092 7.55965C50.4448 6.95417 50.9745 6.19657 51.0888 5.15542C51.2233 3.85288 50.8441 2.16195 49.1915 1.46342C48.4374 1.14208 47.6101 1.0904 46.8277 1.31574C46.6206 1.36228 46.4283 1.46804 46.2704 1.62233C46.1124 1.77662 45.9943 1.97397 45.9281 2.19444C45.8303 2.50478 45.7746 2.82919 45.7627 3.15731C45.7485 3.70799 45.7516 4.25868 45.7547 4.80576L45.7547 4.80768C45.756 5.03754 45.7573 5.26677 45.7573 5.49509ZM30.5332 22.9627C29.0783 22.1932 27.5266 21.9097 25.5997 21.8979C23.9213 21.8949 22.2714 22.3745 20.8141 23.289C18.0979 24.9549 16.3566 27.3783 16.0419 30.8621C15.9016 32.2064 16.0785 33.5679 16.5556 34.8155C17.482 37.1783 19.0593 38.8604 21.1825 39.8942C23.2519 40.8969 25.4302 41.1376 27.6651 40.7197C29.8615 40.3329 31.896 39.2118 33.4914 37.5091C35.9965 34.8612 36.7226 30.3467 34.5833 26.7772C33.5812 25.118 32.179 23.7973 30.5332 22.9627ZM32.3444 31.2933V31.5709C32.3216 33.4376 31.9451 35.1994 31.0562 36.8032C30.0948 38.54 28.7166 39.5486 26.8677 39.7672C25.1304 39.971 23.5545 39.5501 22.191 38.3184C21.2928 37.5062 20.6621 36.4695 20.1969 35.3087C19.5125 33.6119 19.3403 31.8368 19.5125 30.007C19.6296 28.5697 20.0699 27.1869 20.7939 25.9827C21.8199 24.3021 23.2559 23.3909 25.0874 23.1768C26.1037 23.0421 27.1347 23.168 28.0994 23.5445C29.319 24.0329 30.3503 24.9639 31.0226 26.1836C31.7731 27.5263 32.2131 29.0504 32.3041 30.6228C32.3202 30.8503 32.3323 31.0703 32.3444 31.2933ZM83.4195 26.1127C83.6817 24.8973 83.9507 23.6804 84.2196 22.4709C84.1552 22.3886 84.0732 22.3253 83.9809 22.2866C83.8886 22.248 83.789 22.2352 83.6911 22.2494C83.4927 22.2519 83.2941 22.2534 83.0955 22.2548L83.0947 22.2548C82.6086 22.2584 82.1222 22.2619 81.6365 22.2819C78.9822 22.3911 76.3279 22.465 73.6722 22.369C73.3844 22.3683 73.0969 22.389 72.8116 22.431C72.7149 22.4452 72.6226 22.4847 72.5427 22.5462C72.5139 22.559 72.4893 22.581 72.4719 22.6092C72.4546 22.6375 72.4453 22.6709 72.4453 22.705C72.4453 22.7391 72.4546 22.7724 72.4719 22.8007C72.4893 22.8289 72.5139 22.8509 72.5427 22.8637C72.6664 22.9427 72.7965 23.0089 72.9313 23.0616C73.1697 23.157 73.3854 23.3104 73.5622 23.5104C73.7389 23.7105 73.8722 23.9518 73.9519 24.2165C74.0592 24.5404 74.12 24.8807 74.132 25.2251C74.1495 27.4699 74.1495 29.7131 74.1495 31.9578C74.1495 32.3118 74.1497 32.6658 74.1499 33.0197C74.1506 34.3154 74.1513 35.611 74.1428 36.9066C74.1491 37.3151 74.118 37.7233 74.05 38.125C73.8618 39.0908 73.3925 39.7864 72.4364 39.9503C72.2924 39.9753 72.1495 40.0078 72.0062 40.0405L72.0062 40.0405C71.9382 40.056 71.8701 40.0714 71.8018 40.0862C71.6861 40.1113 71.5396 40.163 71.5517 40.3106C71.5579 40.3936 71.652 40.4766 71.7277 40.5435L71.7466 40.5602C71.8066 40.6042 71.8763 40.6297 71.9483 40.6341C72.1621 40.6633 72.3771 40.68 72.5924 40.6843C73.4365 40.6781 74.2804 40.6701 75.124 40.6621C76.1068 40.6527 77.0893 40.6434 78.0719 40.637C78.3008 40.6361 78.532 40.6486 78.764 40.6612C78.8917 40.6682 79.0196 40.6751 79.1476 40.6798C79.3915 40.6885 79.6354 40.6974 79.8794 40.7064L79.8797 40.7064C80.6796 40.7357 81.4801 40.7651 82.2806 40.7832C82.5565 40.7867 82.832 40.7575 83.1022 40.6961C83.347 40.6555 83.5803 40.5548 83.7848 40.4013C83.9892 40.2479 84.1594 40.0458 84.2828 39.81C84.3184 39.7378 84.3548 39.6664 84.3911 39.5953C84.4795 39.4222 84.5671 39.2506 84.6405 39.0716C84.9712 38.2071 85.1637 37.2863 85.2092 36.3499C85.2213 36.1874 85.2106 36.0146 85.0412 35.957C84.9701 35.9361 84.8946 35.9442 84.8286 35.9798C84.7626 36.0153 84.7105 36.076 84.6821 36.1505C84.5726 36.338 84.4781 36.5357 84.3998 36.7412C83.9923 37.9566 83.1734 38.7024 82.087 39.1041C80.9144 39.5383 79.7204 39.4999 78.5398 39.1425C77.7249 38.8914 77.2651 38.1885 77.2651 37.2669V32.3182C77.2651 32.2332 77.2717 32.1482 77.2785 32.061L77.2832 31.999L77.2868 31.9487L77.2879 31.9298C77.3136 31.9267 77.3359 31.9235 77.3562 31.9205C77.3943 31.915 77.4248 31.9106 77.4547 31.9106C78.4159 31.9112 79.3757 31.8302 80.3255 31.6684C81.4546 31.4933 82.5547 31.1396 83.5916 30.6184C83.785 30.5117 83.9656 30.3793 84.1295 30.2241C84.2707 30.0971 84.3904 29.9258 84.3029 29.7057C84.2155 29.4857 84.0179 29.5019 83.8323 29.5285C83.8191 29.5307 83.8057 29.5323 83.7922 29.534C83.7701 29.5366 83.7478 29.5393 83.7261 29.5448C82.6235 29.8224 81.4957 29.9616 80.3645 29.9597C79.7029 29.9597 79.045 29.9118 78.3832 29.8635L78.3827 29.8635C78.2403 29.8531 78.0977 29.8427 77.9549 29.8327C77.7186 29.8015 77.4843 29.7552 77.253 29.6939C77.2501 29.6545 77.247 29.6195 77.2441 29.5873C77.2387 29.5276 77.2341 29.4774 77.2341 29.4266V25.4658C77.2421 25.2819 77.2587 25.0985 77.2839 24.9165C77.3023 24.7254 77.3593 24.5413 77.4507 24.3776C77.5421 24.2138 77.6657 24.0745 77.8123 23.9698C78.1725 23.7032 78.5894 23.5434 79.0225 23.5061C79.672 23.4397 80.3161 23.512 80.9615 23.5873C81.402 23.624 81.8177 23.8253 82.1394 24.1577C82.4612 24.4901 82.6695 24.9335 82.7297 25.4141C82.7407 25.5583 82.7586 25.7018 82.7835 25.8439C82.8173 26.0099 82.875 26.1689 82.9543 26.315C83.0753 26.5158 83.2837 26.4804 83.3792 26.2604C83.3975 26.2129 83.411 26.1634 83.4195 26.1127ZM25.7973 0.383858C25.5284 1.63914 25.2689 2.8575 25.0161 4.07586C25.0094 4.15411 24.9795 4.22776 24.9309 4.28543C24.8822 4.34309 24.8177 4.38155 24.7471 4.39485C24.6798 4.40022 24.6129 4.37889 24.5586 4.33472C24.5043 4.29055 24.4663 4.22648 24.4513 4.15413C24.3936 3.98142 24.3517 3.80283 24.3263 3.62101C24.1434 2.30961 23.6741 1.775 22.4639 1.5461C21.6908 1.39842 20.9136 1.3423 20.1431 1.57416C19.9588 1.63132 19.779 1.70441 19.6052 1.79273C19.1077 2.04083 18.871 2.49716 18.8213 3.07311C18.8025 3.27983 18.8067 3.49379 18.8109 3.70789L18.8109 3.7081C18.8128 3.79984 18.8146 3.89159 18.8146 3.98282V7.67482C18.9177 7.69108 19.0197 7.70981 19.1208 7.72842L19.1209 7.72842L19.1209 7.72843L19.1209 7.72843C19.3508 7.77068 19.5769 7.81225 19.8056 7.8225C20.5478 7.86681 21.2928 7.90668 22.0363 7.90668C23.1055 7.9007 24.1713 7.77651 25.2178 7.536C25.3204 7.49977 25.4273 7.48036 25.5351 7.47841C25.6508 7.48006 25.7618 7.52842 25.8471 7.61427C25.872 7.67093 25.8849 7.73302 25.8849 7.79592C25.8849 7.85883 25.872 7.92092 25.8471 7.97757C25.7746 8.11352 25.6713 8.22649 25.5472 8.30542C25.2927 8.47987 25.0256 8.63101 24.7485 8.75732C23.5491 9.27568 22.3174 9.65521 21.0225 9.73348C20.6798 9.75374 20.3371 9.77206 19.9944 9.79039L19.9935 9.79044C19.7368 9.80416 19.4801 9.81789 19.2233 9.83243C19.1462 9.83243 19.0685 9.84078 18.984 9.84985L18.984 9.84986L18.9839 9.84986L18.9839 9.84987L18.9838 9.84987C18.9402 9.85455 18.8949 9.85943 18.8468 9.86344C18.8468 9.94007 18.8425 10.0123 18.8383 10.0818L18.8383 10.0819C18.8344 10.1464 18.8307 10.2085 18.8307 10.2696C18.8307 10.7494 18.8325 11.2293 18.8343 11.7093C18.8388 12.8795 18.8432 14.05 18.8213 15.2198C18.8197 15.6583 18.9509 16.085 19.1944 16.4325C19.4378 16.7801 19.7796 17.0289 20.1659 17.1396C21.3627 17.4542 22.5648 17.4793 23.7508 17.0333C24.4488 16.7709 25.0625 16.2917 25.5176 15.654C25.627 15.5031 25.7022 15.3235 25.7777 15.1432L25.7777 15.1432C25.8183 15.0464 25.8589 14.9494 25.9049 14.8565L25.9578 14.7493L25.9578 14.7493C26.0736 14.5142 26.1955 14.2668 26.3365 14.0428C26.3696 14.0006 26.4111 13.9674 26.4577 13.9456C26.5043 13.9239 26.5549 13.9142 26.6055 13.9173C26.748 13.935 26.7655 14.0841 26.7668 14.2259C26.7749 15.3173 26.4979 16.3274 26.0945 17.3139C25.726 18.2 25.1169 18.6711 24.2416 18.6829C23.4389 18.6948 22.6363 18.6789 21.8336 18.663C21.6399 18.6592 21.4461 18.6553 21.2524 18.6519C20.803 18.6439 20.3535 18.6322 19.904 18.6205L19.9038 18.6205C19.1886 18.6018 18.473 18.5831 17.7563 18.5795C17.0289 18.5795 16.3016 18.5897 15.5739 18.6C15.064 18.6071 14.554 18.6143 14.0438 18.6179C13.8402 18.6201 13.637 18.5993 13.4373 18.5559C13.3351 18.5237 13.2424 18.4626 13.1684 18.3787C13.1474 18.3637 13.1306 18.3425 13.12 18.3176C13.1094 18.2926 13.1053 18.265 13.1082 18.2376C13.1112 18.2103 13.121 18.1844 13.1366 18.1629C13.1522 18.1413 13.173 18.125 13.1966 18.1158C13.3249 18.048 13.4604 17.9984 13.6 17.9681C13.6834 17.9498 13.768 17.9385 13.8525 17.9271C13.9588 17.9129 14.0648 17.8986 14.1675 17.8707C14.452 17.8053 14.7172 17.663 14.9391 17.4568C15.161 17.2505 15.3325 16.9867 15.4382 16.6892C15.6188 16.1707 15.71 15.6199 15.7071 15.0647C15.7179 14.6955 15.7143 14.3256 15.7107 13.9559V13.9559L15.7107 13.9557C15.7089 13.771 15.7071 13.5863 15.7071 13.4019C15.7017 10.0357 15.6954 6.67011 15.6883 3.30497C15.691 3.06758 15.6748 2.83039 15.6399 2.59611C15.5946 2.2277 15.4577 1.88015 15.2442 1.59171C15.0307 1.30327 14.7488 1.08513 14.4297 0.961287C14.4006 0.948724 14.3686 0.937761 14.3361 0.926606C14.2006 0.880067 14.0553 0.830182 14.0639 0.646728C14.0743 0.428143 14.2871 0.39236 14.4576 0.363685L14.4781 0.360228C14.6667 0.32287 14.8579 0.30311 15.0496 0.301157C15.482 0.307318 15.9152 0.318151 16.3484 0.328985C17.0576 0.34672 17.7669 0.364457 18.473 0.361707C19.3834 0.361707 20.2938 0.330786 21.2076 0.299748C21.5085 0.289526 21.8098 0.279292 22.1116 0.270146C22.5073 0.25845 22.9028 0.242905 23.2983 0.227361L23.2983 0.22736C23.8515 0.205615 24.4047 0.183872 24.9583 0.172676C25.0007 0.174532 25.0439 0.175112 25.0876 0.175699C25.322 0.17885 25.5706 0.182193 25.7973 0.383858ZM51.476 22.4295C50.1736 22.1295 48.8454 21.9859 47.5147 22.0013C46.2503 21.9676 44.9869 22.103 43.7524 22.4044C42.4319 22.7293 41.1773 23.2314 40.0761 24.1308C37.9246 25.8823 36.6015 28.1507 36.4455 31.1382C36.3581 32.7967 36.658 34.3739 37.4648 35.796C38.9426 38.3805 41.0294 40.0699 43.7577 40.7433C45.0496 41.0666 46.3894 41.0847 47.6881 40.7965C49.0825 40.4967 50.4016 39.87 51.5553 38.9594C52.0536 38.565 52.5192 38.1179 52.984 37.6716L52.9842 37.6714C53.1164 37.5445 53.2486 37.4176 53.3814 37.292C53.4829 37.2079 53.5662 37.1003 53.6255 36.9767C53.6847 36.8532 53.7185 36.7168 53.7242 36.5773C53.7269 36.406 53.6758 36.2347 53.5239 36.2022C53.4378 36.1844 53.3101 36.2893 53.2308 36.372C53.1418 36.468 53.0581 36.5695 52.9747 36.6707L52.9746 36.6708L52.9746 36.6708C52.8475 36.825 52.7209 36.9785 52.5773 37.1104C51.2814 38.3068 49.6707 39.0158 47.9813 39.1336C46.5386 39.2736 45.0901 38.9487 43.8129 38.1988C41.4826 36.8224 39.4616 33.6104 39.9201 29.7618C40.4002 25.7479 43.3839 23.1945 46.1055 23.0808C46.9566 23.0454 47.789 23.097 48.5823 23.4352C49.8409 23.9728 50.7096 24.9106 50.9381 26.4228C50.9826 26.868 50.9974 27.3162 50.9825 27.7637C50.9839 27.9099 51.0067 28.0547 51.1412 28.0753C51.1922 28.0774 51.2429 28.0666 51.2895 28.0438C51.3361 28.021 51.3774 27.9869 51.4101 27.9439C51.5362 27.7374 51.6336 27.5114 51.6992 27.2734C51.9645 26.1767 52.2168 25.0756 52.469 23.9749L52.5907 23.4441C52.6701 23.0941 52.6351 22.9523 52.3473 22.7884C52.0734 22.625 51.7802 22.5042 51.476 22.4295ZM5.93949 10.3523V11.2502C5.93696 11.5485 5.9315 11.847 5.92605 12.1455C5.91414 12.7972 5.90222 13.4491 5.92067 14.1004C5.93879 14.8252 6.0035 15.5476 6.1143 16.2624C6.26759 17.243 6.78662 17.7392 7.6835 17.8869C7.81692 17.9002 7.94644 17.9434 8.06403 18.0139C8.10511 18.049 8.13851 18.0937 8.16178 18.1448C8.18505 18.1959 8.1976 18.2521 8.1985 18.3093C8.18604 18.3572 8.16273 18.4009 8.13076 18.4363C8.09878 18.4716 8.05918 18.4975 8.01563 18.5116C7.78158 18.5684 7.54267 18.5977 7.30297 18.5987L6.95593 18.5921C6.17045 18.5775 5.38448 18.5629 4.60157 18.5101C3.546 18.4419 2.48737 18.4557 1.43358 18.5515C1.21615 18.5694 1.00574 18.5583 0.793845 18.5472H0.793794C0.743627 18.5445 0.693376 18.5419 0.642928 18.5396C0.508463 18.5396 0.395513 18.4865 0.373999 18.3314C0.352484 18.1763 0.474849 18.1069 0.594523 18.0715C0.790841 18.0139 0.988502 17.9593 1.18885 17.9135C2.08842 17.7052 2.48106 17.4069 2.72848 16.1517C2.78478 15.8281 2.81091 15.499 2.80647 15.1696L2.80765 14.713C2.81673 11.222 2.8258 7.73232 2.80647 4.24125C2.79248 3.67549 2.71618 3.11366 2.57922 2.56804C2.48478 2.22861 2.33185 1.91226 2.12876 1.63618C2.02709 1.47967 1.89517 1.34978 1.74244 1.25583C1.58971 1.16187 1.41995 1.10617 1.24533 1.09272C1.03124 1.06688 0.822873 1.00042 0.629485 0.896299C0.590245 0.885295 0.555279 0.860684 0.529785 0.826123C0.504292 0.791563 0.489623 0.748898 0.487962 0.704457C0.486301 0.660015 0.49774 0.616167 0.520569 0.579428C0.543398 0.542689 0.576401 0.515017 0.614688 0.500518C0.784994 0.406971 0.970603 0.35174 1.16061 0.338069C1.46089 0.324303 1.76163 0.32825 2.06153 0.349886C4.23582 0.445878 6.41012 0.420772 8.58441 0.349886C9.24883 0.330567 9.91324 0.322734 10.5777 0.314901C11.0306 0.309561 11.4836 0.304221 11.9366 0.29524C12.1715 0.290793 12.4077 0.280394 12.6434 0.270017C12.8773 0.259719 13.1107 0.249443 13.3418 0.24503C13.5051 0.253447 13.6677 0.273674 13.8285 0.305579C13.7972 0.505086 13.7672 0.700436 13.7376 0.892859C13.6706 1.32858 13.6059 1.7493 13.5341 2.1693C13.3996 2.93281 13.2651 3.69484 13.1226 4.45687C13.119 4.47593 13.1169 4.49653 13.1147 4.51715C13.1095 4.56682 13.1043 4.61668 13.0796 4.6459L13.0588 4.6731C12.9904 4.76335 12.9096 4.86986 12.8254 4.87923C12.7685 4.87544 12.7129 4.85865 12.6622 4.82991C12.6115 4.80118 12.5668 4.76114 12.5309 4.71235C12.4588 4.60686 12.4125 4.48278 12.3965 4.35201C12.3589 4.13183 12.3387 3.9085 12.336 3.6845C12.336 2.77184 11.907 2.16635 11.189 1.79567C10.9054 1.65264 10.6033 1.55898 10.2935 1.51803C9.43337 1.4095 8.56519 1.40208 7.70367 1.49588C7.45418 1.52808 7.20987 1.59765 6.97756 1.70263C6.71022 1.80958 6.4756 1.99681 6.3004 2.24302C6.1252 2.48922 6.01646 2.78451 5.98655 3.09526C5.9499 3.34292 5.92923 3.59312 5.92471 3.84399C5.9205 4.54672 5.92068 5.24904 5.92086 5.95138C5.92102 6.59514 5.92119 7.23892 5.91798 7.88304C5.91798 7.93392 5.92152 7.9822 5.92625 8.04678L5.92625 8.04681C5.92867 8.0797 5.93139 8.11683 5.93411 8.16068C6.11244 8.17664 6.28957 8.19498 6.46592 8.21325L6.46595 8.21325C6.87731 8.25586 7.28445 8.29803 7.69291 8.30836L7.83078 8.31177H7.83079C8.74648 8.33448 9.6642 8.35723 10.5758 8.30098C11.2388 8.26007 11.8986 8.16818 12.5582 8.0763L12.5582 8.07629C12.8512 8.03549 13.1441 7.99469 13.4372 7.95836C13.5303 7.93504 13.6256 7.92463 13.721 7.92735C13.8178 7.94212 13.967 7.98199 13.9899 8.0514C14.0038 8.11216 14.0064 8.17536 13.9976 8.23726C13.9888 8.29915 13.9688 8.35849 13.9388 8.41174C13.8627 8.5136 13.7678 8.59664 13.6605 8.65541C12.6996 9.30891 11.6347 9.75641 10.5221 9.97419C9.14254 10.2711 7.73734 10.3994 6.33213 10.3567C6.24137 10.351 6.15141 10.3514 6.04343 10.3519H6.04339C6.0106 10.3521 5.97614 10.3523 5.93949 10.3523ZM59.5238 10.274V9.88113C59.5938 9.87131 59.6502 9.86194 59.7024 9.85328C59.7444 9.84631 59.7836 9.8398 59.825 9.83387C60.0453 9.8203 60.2657 9.80813 60.4861 9.79596C60.8653 9.77502 61.2443 9.75409 61.6228 9.72607C62.9639 9.6217 64.2807 9.27958 65.5222 8.71298C65.786 8.5862 66.0408 8.43811 66.2847 8.26994C66.3876 8.20271 66.4735 8.10829 66.5348 7.99526C66.5691 7.94002 66.5878 7.87492 66.5887 7.80806C66.5896 7.74119 66.5726 7.67552 66.5398 7.61919C66.507 7.56286 66.4599 7.51836 66.4042 7.49122C66.3486 7.46408 66.2869 7.45551 66.2268 7.46656C66.1199 7.47971 66.0138 7.50093 65.9095 7.53006C64.8516 7.77382 63.774 7.899 62.6931 7.90369C61.9616 7.90222 61.2288 7.86382 60.4986 7.81804C60.277 7.80307 60.0566 7.76116 59.8333 7.71869C59.726 7.69829 59.6181 7.67776 59.509 7.66002C59.509 7.14221 59.507 6.63023 59.505 6.12212C59.5012 5.11733 59.4974 4.12769 59.509 3.13806C59.5003 2.88532 59.5549 2.63482 59.6668 2.41378C59.7787 2.19273 59.9436 2.00959 60.1437 1.88425C60.4676 1.68279 60.822 1.54721 61.1898 1.48404C61.9858 1.33636 62.7684 1.45008 63.5456 1.64058C63.8598 1.7037 64.1519 1.86138 64.3893 2.09605C64.6267 2.33072 64.8001 2.63317 64.8903 2.9697C64.9475 3.22487 64.9923 3.48318 65.0247 3.74355C65.0448 3.88592 65.0814 4.02489 65.1336 4.15705C65.1915 4.28553 65.2909 4.40663 65.4389 4.38595C65.5868 4.36528 65.65 4.25009 65.6836 4.09059C65.8166 3.4557 65.952 2.82124 66.0874 2.18674C66.2011 1.65382 66.3149 1.12087 66.4272 0.587623C66.4796 0.338043 66.4272 0.258296 66.1892 0.222853C66.0111 0.193854 65.8313 0.179537 65.6513 0.180024C65.1681 0.194094 64.6852 0.211888 64.2023 0.229683C63.7729 0.245508 63.3434 0.261334 62.9136 0.274542C62.5961 0.283758 62.2785 0.293895 61.9608 0.304033C61.0059 0.334506 60.0507 0.364992 59.0962 0.370533C58.3996 0.374176 57.7031 0.35704 57.0066 0.339904C56.5736 0.329253 56.1406 0.318601 55.7077 0.31294C55.5045 0.316966 55.3021 0.340184 55.1026 0.382345C55.0952 0.383567 55.0877 0.384782 55.0801 0.38601C54.9318 0.41002 54.7518 0.439164 54.7288 0.626021C54.7037 0.824541 54.8471 0.871015 54.9811 0.91445C55.0125 0.924652 55.0435 0.934687 55.0716 0.946484C55.6566 1.19311 56.0801 1.61843 56.2495 2.29037C56.3324 2.60554 56.3776 2.9312 56.384 3.25916C56.3939 6.81431 56.4015 10.364 56.4069 13.9084C56.4082 14.6972 56.4096 14.6985 56.9526 15.1882L56.9582 15.1932C58.4817 16.5666 60.1853 17.6137 61.9616 18.5278C62.0605 18.5718 62.1656 18.5968 62.2722 18.6016C62.4068 18.6117 62.5413 18.6223 62.6758 18.6328C63.1527 18.6703 63.6291 18.7078 64.1063 18.7227C64.4901 18.741 64.8746 18.7193 65.2546 18.6578C65.8624 18.5455 66.3573 18.2147 66.6262 17.5694C66.6627 17.483 66.7026 17.3983 66.7425 17.3133C66.7907 17.2108 66.839 17.1081 66.8817 17.0023C67.2515 16.1401 67.4412 15.1981 67.437 14.2451C67.437 14.2323 67.4372 14.2194 67.4374 14.2065C67.4391 14.0883 67.4407 13.9691 67.3026 13.9172C67.2393 13.8902 67.1692 13.8904 67.1061 13.9178C67.043 13.9451 66.9916 13.9977 66.9624 14.0649C66.8881 14.1987 66.8251 14.3395 66.7741 14.4858C66.4218 15.4841 65.8396 16.289 64.9669 16.7601C64.3049 17.1268 63.5813 17.3401 62.841 17.3866C62.1008 17.433 61.3598 17.3118 60.664 17.0303C59.8868 16.7335 59.5238 16.131 59.5238 15.2227V10.274Z" fill="#5E312C"/>
</svg>
