<svg width="109" height="43" viewBox="0 0 109 43" fill="none" xmlns="http://www.w3.org/2000/svg">
<path fill-rule="evenodd" clip-rule="evenodd" d="M95.8748 19.4781C93.8659 19.4238 91.9671 18.9452 90.2446 17.8008C88.3349 16.5311 86.9524 14.7511 86.3397 12.3747C85.5934 9.48355 86.1112 6.8143 87.7855 4.44247C89.2918 2.30767 91.3117 1.03344 93.6952 0.47332C96.7243 -0.239286 99.5897 0.290639 102.204 2.13405C104.001 3.39923 105.308 5.15356 105.874 7.42877C106.759 10.9842 105.812 14.0023 103.354 16.4541C101.754 18.0484 99.8362 18.9361 97.7088 19.2743C97.2914 19.3394 96.872 19.3798 96.4533 19.42L96.4532 19.4201C96.2602 19.4386 96.0673 19.4572 95.8748 19.4781ZM102.744 10.0165C102.744 8.00248 102.385 6.26777 101.526 4.68856C100.792 3.34186 99.7825 2.31975 98.4055 1.80643C97.4965 1.46454 96.5319 1.33645 95.5746 1.43051C94.7086 1.51203 93.8769 1.70226 93.1072 2.15972C91.7916 2.93009 90.7698 4.18971 90.2253 5.71217C89.5574 7.49429 89.3663 9.4482 89.6746 11.3451C89.8894 12.728 90.2818 14.0445 91.035 15.1935C92.6143 17.6091 94.7664 18.6176 97.4431 18.1979C99.0155 17.9518 100.26 17.0716 101.161 15.6313C102.194 13.9782 102.746 12.0205 102.744 10.0165ZM33.6002 10.2021V10.6294C33.6002 12.3837 33.6035 14.1376 33.6099 15.8909C33.6062 16.3505 33.6956 16.8053 33.8715 17.2225C33.9914 17.5348 34.1823 17.8082 34.426 18.0165C34.6697 18.2247 34.9581 18.361 35.2635 18.4122C35.4206 18.4399 35.576 18.4777 35.7289 18.5254C35.8093 18.5413 35.8814 18.5897 35.9308 18.6609C35.9803 18.7322 36.0036 18.8212 35.9961 18.9104C35.9768 19.1278 35.8033 19.1822 35.6394 19.1807C35.2448 19.1807 34.8464 19.1674 34.4535 19.1542L34.4534 19.1542L34.2019 19.1459C33.892 19.135 33.5821 19.1206 33.2722 19.1062L33.2721 19.1062C32.599 19.0749 31.9262 19.0437 31.254 19.0478C30.6175 19.0478 29.981 19.0899 29.3445 19.132C29.0474 19.1517 28.7504 19.1713 28.4534 19.1867H28.0486C27.9872 19.1951 27.9249 19.1874 27.8668 19.1641C27.8538 19.1551 27.8401 19.1458 27.8261 19.1363C27.7339 19.074 27.6259 19.0009 27.608 18.921C27.5749 18.7549 27.7222 18.6719 27.8572 18.6281C27.9348 18.6023 28.0156 18.584 28.0959 18.5658L28.096 18.5658C28.1239 18.5595 28.1517 18.5532 28.1794 18.5466C28.2879 18.52 28.398 18.4926 28.507 18.4655C28.6026 18.4417 28.6973 18.4182 28.7893 18.3956C29.0373 18.3384 29.2691 18.2165 29.4649 18.0401C29.6608 17.8637 29.8149 17.6382 29.9143 17.3825C30.095 16.9677 30.1957 16.5164 30.2103 16.057C30.231 15.518 30.2475 14.9775 30.2461 14.4385C30.2369 10.8151 30.2236 7.18665 30.2062 3.55317C30.1986 3.21722 30.1557 2.88336 30.0781 2.55824C29.9198 1.8547 29.4888 1.42744 28.8651 1.22362C28.8166 1.20768 28.768 1.19251 28.7195 1.17737C28.6026 1.14088 28.486 1.10449 28.3721 1.05754C28.268 1.01871 28.1717 0.958225 28.0885 0.879394C28.0593 0.849272 28.0367 0.812301 28.0224 0.771253C28.0081 0.730205 28.0024 0.686143 28.0059 0.642361C28.0234 0.602858 28.0493 0.568533 28.0814 0.542265C28.1135 0.515996 28.1509 0.498549 28.1904 0.491385C28.4353 0.467753 28.6812 0.459182 28.927 0.465717C29.3081 0.479697 29.6889 0.497699 30.0697 0.515698C30.7581 0.548238 31.4464 0.58077 32.1352 0.589518C33.2051 0.603106 34.2501 0.589519 35.3021 0.533658C35.5135 0.522604 35.7249 0.509629 35.9362 0.496657C36.8793 0.438757 37.8212 0.380928 38.765 0.494403C39.3904 0.546865 40.0043 0.707368 40.5839 0.969975C41.757 1.54821 42.5033 2.50691 42.6493 3.93665C42.7169 4.75061 42.5315 5.56573 42.1233 6.2496C41.6505 7.07714 41.0167 7.77984 40.2672 8.3074C39.8563 8.60563 39.4242 8.8678 38.992 9.12995L38.992 9.12998C38.8116 9.2394 38.6313 9.34882 38.4524 9.46085C38.4059 9.48977 38.358 9.51486 38.3062 9.54206L38.3061 9.54207C38.2659 9.56314 38.2233 9.58547 38.1771 9.61183C38.1915 9.63119 38.2026 9.64895 38.2124 9.6645C38.2277 9.68896 38.2396 9.70794 38.2556 9.71902C38.9356 10.2069 39.5589 10.7838 40.1116 11.4371L40.4967 11.8789C41.4818 13.0094 42.4669 14.1399 43.4768 15.2432C44.0822 15.8952 44.7183 16.512 45.3824 17.0912C46.1383 17.757 46.992 18.222 47.9806 18.3292C48.2698 18.3594 48.4405 18.5164 48.4502 18.7006C48.4598 18.8848 48.3414 19.0357 48.0371 19.1293C47.8364 19.1918 47.63 19.2298 47.4216 19.2426C46.1411 19.3045 44.8661 19.2803 43.609 18.9527C42.5988 18.6952 41.6696 18.147 40.9171 17.3644C40.0242 16.4171 39.201 15.3938 38.4552 14.3042L38.4142 14.2462C37.6362 13.1452 36.8575 12.0432 35.8873 11.1337C35.5848 10.8412 35.2526 10.5879 34.8973 10.3788C34.672 10.2494 34.4053 10.2065 34.1447 10.1646L34.1446 10.1646C34.101 10.1576 34.0577 10.1506 34.0147 10.1433C33.8746 10.1389 33.7347 10.1588 33.6002 10.2021ZM33.6071 5.77402H33.6002V8.24248C33.6002 8.75278 33.7489 8.9113 34.2185 8.92489H34.7692C35.7968 8.93129 36.7993 8.5774 37.6304 7.91486C38.6989 7.08449 39.2194 5.95218 39.0666 4.50583C38.9633 3.50788 38.5846 2.66845 37.8149 2.09022C36.8511 1.36855 35.8033 1.21909 34.6839 1.52406C34.4899 1.56864 34.3096 1.66679 34.16 1.8092C34.0103 1.95161 33.8963 2.13357 33.8288 2.33782C33.7077 2.68886 33.6353 3.05782 33.614 3.43239C33.5938 3.97556 33.5985 4.52314 33.6031 5.06896C33.6051 5.30448 33.6071 5.53966 33.6071 5.77402ZM68.0925 31.9276C66.8174 32.3867 65.5031 32.7029 64.1697 32.8712C63.283 32.9738 62.3937 33.0547 61.4971 33.1363L61.4966 33.1363L61.4963 33.1364L61.496 33.1364L61.4957 33.1364L61.4954 33.1365L61.495 33.1365L61.4938 33.1366C61.0717 33.175 60.648 33.2136 60.2221 33.2547C60.2108 33.3078 60.203 33.3618 60.1987 33.4162C60.1987 33.9602 60.1972 34.5042 60.1957 35.0483C60.1926 36.1363 60.1896 37.2243 60.1987 38.3123C60.1938 38.7743 60.2609 39.2339 60.397 39.6711C60.649 40.4562 61.1295 40.9272 61.8923 41.0299C62.0259 41.0469 62.158 41.0751 62.2875 41.1145C62.3542 41.1321 62.4124 41.1764 62.4509 41.2387C62.4893 41.3009 62.5052 41.3767 62.4954 41.4511C62.4943 41.5198 62.4688 41.5852 62.4243 41.6334C62.3798 41.6817 62.3198 41.7089 62.2572 41.7093C62.1004 41.7407 61.9415 41.7578 61.7822 41.7606C61.289 41.7457 60.7964 41.7263 60.304 41.7068C59.9976 41.6947 59.6913 41.6826 59.385 41.6716C59.2122 41.6653 59.0396 41.6575 58.8671 41.6497L58.8668 41.6497H58.8668H58.8667H58.8666H58.8666H58.8665H58.8665H58.8664H58.8664H58.8663H58.8662C58.4119 41.629 57.958 41.6085 57.5041 41.6172C56.9996 41.6281 56.4951 41.6567 55.9905 41.6852L55.9902 41.6852C55.6591 41.704 55.3279 41.7227 54.9968 41.7365C54.839 41.7478 54.6807 41.7242 54.5314 41.667C54.492 41.6545 54.4573 41.6285 54.4323 41.5929C54.4073 41.5572 54.3934 41.5138 54.3924 41.4688C54.3915 41.4239 54.4037 41.3797 54.4272 41.3429C54.4507 41.3061 54.4843 41.2784 54.5231 41.2639C54.6348 41.2086 54.7523 41.1686 54.8729 41.1447C54.9657 41.1207 55.059 41.0992 55.1521 41.0777C55.2992 41.0438 55.446 41.01 55.5902 40.9665C55.8362 40.8991 56.0627 40.7651 56.2492 40.5767C56.4356 40.3884 56.5759 40.1518 56.6573 39.8885C56.8625 39.2967 56.8969 38.6807 56.9231 38.0602C56.9411 37.6554 56.9411 37.2506 56.941 36.8458L56.941 36.7648C56.941 33.3246 56.9364 29.8834 56.9272 26.4411C56.9359 25.9143 56.8638 25.3897 56.7138 24.8891C56.5072 24.2369 56.1231 23.7809 55.4746 23.6269C55.1758 23.5545 54.8797 23.4639 54.5878 23.3597C54.5445 23.3424 54.5052 23.3147 54.4728 23.2787C54.4404 23.2426 54.4158 23.1991 54.4006 23.1514C54.3758 23.0155 54.4777 22.9264 54.6002 22.9143C54.891 22.8737 55.1842 22.857 55.4773 22.8645C56.58 22.973 57.6881 23.0022 58.7943 22.9521C59.5758 22.9 60.3605 22.8836 61.1447 22.8672H61.1447C61.4064 22.8617 61.668 22.8562 61.9295 22.8494C62.0515 22.8487 62.1729 22.867 62.2902 22.9038C62.3521 22.9142 62.408 22.9506 62.446 23.0052C62.4839 23.0598 62.5012 23.1284 62.494 23.1967C62.4968 23.2651 62.4764 23.3322 62.4367 23.3852C62.3971 23.4381 62.341 23.4732 62.2792 23.4835C62.241 23.4925 62.2026 23.5006 62.1642 23.5087L62.1642 23.5087C62.0935 23.5236 62.023 23.5385 61.9543 23.559C61.7515 23.611 61.5515 23.6755 61.3553 23.7522C61.1466 23.8357 60.9581 23.9706 60.8044 24.1465C60.6507 24.3224 60.5358 24.5346 60.4686 24.7668C60.2578 25.4306 60.148 26.1278 60.1437 26.8306C60.1368 27.7454 60.1538 28.6647 60.1711 29.5986C60.178 29.9703 60.185 30.3444 60.1905 30.7213C62.8534 31.1319 65.4737 30.9387 68.1008 30.285C68.0744 29.6735 68.0999 29.0687 68.1253 28.4679C68.1608 27.6282 68.196 26.7963 68.0884 25.9656C68.0302 25.5535 67.9441 25.1468 67.8309 24.7487C67.7724 24.5194 67.6613 24.3104 67.5082 24.1416C67.3552 23.9727 67.1653 23.8496 66.9566 23.784C66.6925 23.691 66.4217 23.6172 66.1533 23.5442L66.1532 23.5441C66.0774 23.5235 66.0018 23.5029 65.9267 23.482C65.9137 23.4783 65.9006 23.4749 65.8873 23.4716L65.8522 23.4633C65.7205 23.4326 65.5883 23.4018 65.5756 23.2027C65.5645 23.0517 65.7132 22.9294 65.9625 22.9234C66.2699 22.9055 66.5782 22.9111 66.885 22.94C68.1657 23.1085 69.4389 23.0548 70.7137 23.001C71.0836 22.9854 71.4536 22.9698 71.824 22.9596C72.0038 22.9551 72.1844 22.9493 72.3649 22.9435C72.6655 22.9338 72.9661 22.9241 73.2628 22.9204C73.385 22.9142 73.507 22.9364 73.6208 22.9853C73.7011 23.0374 73.7594 23.122 73.7833 23.2208C73.7905 23.2505 73.7923 23.2814 73.7885 23.3118C73.7847 23.3422 73.7754 23.3715 73.7612 23.3979C73.7469 23.4243 73.728 23.4474 73.7056 23.4657C73.6832 23.484 73.6576 23.4973 73.6305 23.5047C73.5031 23.554 73.3735 23.5958 73.2422 23.63C72.1682 23.876 71.6367 24.486 71.4894 25.6893C71.4366 26.1303 71.4099 26.5746 71.4095 27.0194V27.0249C71.4095 30.6933 71.4095 34.3616 71.4247 38.03C71.4338 38.542 71.5079 39.0502 71.645 39.5398C71.8749 40.3913 72.3995 40.9061 73.2408 40.9816C73.3986 40.9968 73.5508 41.0538 73.6841 41.1477C73.8879 41.2986 73.8452 41.5538 73.6098 41.6368C73.4917 41.6734 73.3688 41.6882 73.2463 41.6806C72.951 41.6736 72.6556 41.6682 72.3602 41.6628C71.5111 41.6473 70.6619 41.6317 69.815 41.578C69.0964 41.5328 68.3845 41.5804 67.6713 41.6281L67.6709 41.6282L67.6705 41.6282L67.6701 41.6282C67.5255 41.6379 67.3808 41.6476 67.2361 41.6565C66.8313 41.6806 66.4251 41.6957 66.0189 41.6987C65.7559 41.6987 65.5728 41.584 65.5769 41.4315C65.5769 41.2116 65.727 41.179 65.8717 41.1476C65.8978 41.1419 65.9238 41.1363 65.9487 41.1296L66.8065 40.9016C67.0417 40.8428 67.2596 40.72 67.44 40.5445C67.6205 40.3691 67.7578 40.1466 67.8392 39.8976C68.0012 39.4736 68.0881 39.0196 68.0953 38.5599C68.1081 36.4543 68.1164 34.3492 68.1201 32.2446C68.1201 32.1937 68.1147 32.144 68.1073 32.0757C68.1029 32.0345 68.0977 31.9866 68.0925 31.9276ZM14.076 34.8526C13.225 33.8772 12.3721 32.8995 11.2686 32.1525C11.4586 32.0484 11.588 31.9759 11.7147 31.8913C12.4632 31.5128 13.1711 31.0444 13.8255 30.4948C14.5001 29.9151 15.0826 29.2463 15.4502 28.3812C16.1841 26.6585 15.822 24.8317 14.1697 23.7326C13.5931 23.3683 12.9524 23.1424 12.2902 23.0698C11.2107 22.9189 10.1285 22.9702 9.0476 23.0366C8.80706 23.0513 8.56611 23.0684 8.32482 23.0854C7.40179 23.1507 6.47396 23.2163 5.54613 23.1529L5.40531 23.1432L5.40511 23.1432C4.70308 23.095 4.00105 23.0468 3.29902 23.0185C2.87883 22.9978 2.45799 22.9956 2.03695 22.9933H2.03688H2.0368H2.03672H2.03665H2.03657H2.0365H2.03642H2.03634H2.03627H2.03619C1.84214 22.9922 1.64805 22.9912 1.45396 22.9883C1.30939 22.9853 1.14554 23.0155 1.14554 23.1906C1.15503 23.2545 1.17804 23.3151 1.2127 23.3676C1.24737 23.42 1.29274 23.4628 1.34519 23.4926C1.55432 23.6036 1.77354 23.6901 1.99922 23.7507C2.31422 23.8262 2.6017 24.0025 2.82525 24.2573C3.04879 24.5121 3.19834 24.8339 3.25496 25.182C3.30872 25.4294 3.33781 25.6825 3.3417 25.9369C3.35823 30.0132 3.37199 34.0896 3.37199 38.1659C3.37441 38.6372 3.31079 39.1062 3.18336 39.5564C2.94928 40.3475 2.4949 40.9242 1.66876 40.9937C1.55816 41.0008 1.44843 41.0196 1.34106 41.0495C1.18583 41.0882 1.03521 41.1465 0.892192 41.2232C0.696671 41.3379 0.710435 41.5674 0.921101 41.6399C1.10072 41.6912 1.28653 41.7115 1.47186 41.7002C2.00262 41.6941 2.53338 41.6845 3.06414 41.675C3.95985 41.6589 4.85557 41.6429 5.75129 41.6429C6.3912 41.6398 7.03176 41.6551 7.67208 41.6703L7.67267 41.6703L7.67326 41.6704L7.67385 41.6704L7.67445 41.6704L7.67504 41.6704L7.67563 41.6704L7.67622 41.6704L7.67681 41.6704L7.6774 41.6704L7.678 41.6704C7.97122 41.6775 8.26439 41.6845 8.55742 41.6897C8.65557 41.6957 8.75394 41.6957 8.85208 41.6897C9.00767 41.6731 9.14811 41.6217 9.16464 41.4149C9.18116 41.2081 9.05724 41.128 8.90578 41.0843C8.75506 41.0395 8.60365 41 8.45204 40.9604L8.45195 40.9604L8.45185 40.9603L8.4518 40.9603L8.45174 40.9603L8.45169 40.9603L8.45163 40.9603L8.45158 40.9603L8.45153 40.9603L8.45147 40.9603L8.45142 40.9602C8.38856 40.9438 8.32566 40.9274 8.26276 40.9106C7.97346 40.8376 7.70598 40.6847 7.48572 40.4664C7.26546 40.2482 7.09973 39.9718 7.00427 39.6636C6.83156 39.1721 6.74197 38.6503 6.73991 38.1236V33.1414V32.77C6.77359 32.7462 6.80906 32.7254 6.84593 32.7081C7.51511 32.5511 8.08239 32.8063 8.59459 33.2471C9.5006 34.0352 10.2551 34.9758 10.9643 35.9647C11.0929 36.1441 11.2208 36.324 11.3488 36.5039C12.1508 37.6314 12.9512 38.7568 13.9012 39.7542C14.7444 40.6488 15.7997 41.266 16.9469 41.5357C18.1971 41.8467 19.4625 41.8105 20.7293 41.7621C20.9364 41.7389 21.1392 41.6819 21.331 41.593C21.4687 41.5387 21.5967 41.4496 21.5885 41.2458C21.5802 41.042 21.4577 40.9725 21.3048 40.9242C21.152 40.8759 20.9964 40.8382 20.8394 40.8065C20.3647 40.7354 19.9065 40.5669 19.4887 40.3098C18.5634 39.6915 17.7076 38.9562 16.9386 38.1191C16.3073 37.4226 15.6902 36.7106 15.073 35.9986C14.8085 35.6935 14.5441 35.3884 14.2785 35.0845C14.2109 35.0073 14.1435 34.93 14.076 34.8526ZM6.73577 30.7243V28.3374C6.73577 28.1078 6.73495 27.8788 6.73413 27.6496V27.6496C6.73234 27.1523 6.73055 26.6541 6.73715 26.1467C6.74195 25.8638 6.76961 25.5819 6.81977 25.3043C6.9671 24.5283 7.41597 24.0995 8.12507 23.9696C8.90312 23.8142 9.70551 23.907 10.4369 24.2369C11.4723 24.7185 12.0052 25.6228 12.1911 26.8035C12.2662 27.2965 12.255 27.8007 12.158 28.2891C11.9942 29.1527 11.5329 29.7988 10.9188 30.3303C10.1929 30.9631 9.3112 31.3437 8.38669 31.4233C8.04523 31.4648 7.70143 31.4784 7.35814 31.4641C6.86658 31.4324 6.73577 31.2633 6.73577 30.7243ZM93.4276 32.6961V33.1113L93.4483 38.2097C93.4491 38.6961 93.5297 39.1784 93.6865 39.6334C93.7933 39.9878 93.9891 40.302 94.2514 40.5399C94.5137 40.7779 94.8319 40.9299 95.1694 40.9786C95.3495 41.0182 95.5259 41.0753 95.6968 41.1492C95.7515 41.1646 95.7989 41.2021 95.8295 41.2542C95.8601 41.3062 95.8717 41.369 95.862 41.43C95.854 41.4963 95.8257 41.5575 95.7816 41.6037C95.7375 41.6498 95.6804 41.678 95.6196 41.6837C95.5586 41.6932 95.4968 41.6968 95.4351 41.6942C95.1757 41.6889 94.916 41.6825 94.6563 41.676L94.6554 41.676C94.1781 41.6642 93.7007 41.6523 93.2238 41.6474C92.3261 41.6384 91.4339 41.6338 90.5306 41.6474C90.04 41.6537 89.5495 41.6701 89.0589 41.6865C88.7233 41.6977 88.3877 41.7089 88.0522 41.7169C87.9171 41.7297 87.7811 41.7138 87.6515 41.6701C87.6045 41.6462 87.5626 41.6116 87.5287 41.5687C87.4947 41.5257 87.4695 41.4754 87.4546 41.421C87.4422 41.3606 87.5482 41.2262 87.6226 41.1975C87.8435 41.1168 88.07 41.0562 88.3 41.0163C89.3699 40.8337 89.827 40.1784 90.0088 38.9118C90.0561 38.524 90.0759 38.1328 90.068 37.7417C90.0606 33.8566 90.0482 29.9715 90.0308 26.0864C90.0223 25.7104 89.9686 25.3373 89.8711 24.9767C89.8029 24.6876 89.6645 24.4242 89.4704 24.2147C89.2764 24.0052 89.0342 23.8573 88.7695 23.787C88.7369 23.7769 88.7041 23.7677 88.6714 23.7585L88.6712 23.7585C88.621 23.7444 88.5708 23.7304 88.5217 23.713C88.3804 23.6711 88.2423 23.6171 88.1086 23.5515L88.0746 23.5332C87.9431 23.4629 87.7927 23.3825 87.8332 23.1771C87.8719 22.9808 88.0147 22.9895 88.1477 22.9976C88.1662 22.9988 88.1845 22.9999 88.2023 23.0004C88.4455 23.0085 88.6889 23.0162 88.9322 23.024L88.9339 23.0241C89.7837 23.0512 90.634 23.0783 91.4834 23.1182C92.6251 23.1831 93.7693 23.1786 94.9105 23.1046C96.0492 23.02 97.1962 22.9989 98.339 23.017C99.1016 23.026 99.8533 23.2166 100.542 23.5756C101.644 24.1554 102.314 25.0854 102.455 26.4442C102.544 27.3108 102.317 28.1049 101.922 28.8356C101.555 29.4786 101.083 30.0416 100.53 30.4964C99.8791 31.0506 99.1738 31.5231 98.4272 31.905L98.0141 32.1269C98.0177 32.1452 98.0186 32.1616 98.0194 32.1753V32.1754C98.0206 32.1979 98.0214 32.2134 98.0334 32.219C98.9837 32.8536 99.7441 33.7218 100.505 34.5901L100.649 34.7554C100.896 35.0361 101.143 35.3174 101.389 35.5987L101.389 35.5989C102.225 36.5533 103.061 37.5072 103.917 38.4377C104.653 39.2106 105.474 39.8814 106.36 40.4351C106.636 40.6147 106.939 40.6805 107.242 40.7464C107.333 40.7664 107.425 40.7864 107.516 40.8095C107.709 40.8491 107.897 40.9093 108.079 40.9892C108.334 41.116 108.344 41.4134 108.079 41.5342C107.826 41.6679 107.552 41.7458 107.271 41.7637L106.985 41.7639H106.985C106.114 41.765 105.23 41.7661 104.362 41.6776C102.962 41.5486 101.648 40.8894 100.644 39.8131C99.9619 39.0925 99.3239 38.3234 98.7342 37.5107C98.6288 37.3667 98.5235 37.2226 98.4182 37.0785C97.8005 36.2329 97.1829 35.3875 96.5312 34.5697C96.1387 34.1045 95.7178 33.6692 95.2713 33.2668C94.9395 32.9394 94.5225 32.7346 94.0789 32.681C93.8617 32.6715 93.6442 32.6765 93.4276 32.6961ZM93.4166 28.3087V30.7772C93.4166 31.2452 93.5295 31.3917 93.9398 31.4385C94.6181 31.532 95.3067 31.4708 95.9624 31.2585C96.618 31.0462 97.2266 30.6875 97.7497 30.205C98.0769 29.9182 98.3493 29.5636 98.5513 29.1612C98.7533 28.7589 98.881 28.3168 98.927 27.8603C99.1211 26.1996 98.3046 24.6762 96.9002 24.1493C96.1747 23.8818 95.3966 23.8353 94.6489 24.015C94.3855 24.0588 94.1402 24.1887 93.9452 24.3878C93.7502 24.5868 93.6144 24.8457 93.5557 25.1307C93.4816 25.4262 93.4395 25.7302 93.4304 26.0365C93.4166 26.7985 93.4166 27.553 93.4166 28.3075V28.3087ZM75.7853 10.3879C75.7887 10.3355 75.7921 10.2834 75.7921 10.2324C76.0183 10.1212 76.2723 10.0978 76.5122 10.166C76.8911 10.2298 77.247 10.4051 77.5421 10.6733C77.9663 11.042 78.3696 11.4388 78.7497 11.8615C79.3307 12.556 79.8801 13.2837 80.413 14.0249L80.5447 14.2068L80.5447 14.2069C81.2749 15.2162 82.0001 16.2184 82.8405 17.1199C83.6478 18.0167 84.6603 18.6587 85.7719 18.9785C87.0153 19.3242 88.2834 19.2955 89.5488 19.2547C89.8549 19.2306 90.1557 19.1531 90.4396 19.0253C90.6971 18.9151 90.7012 18.6252 90.4685 18.4621C90.3936 18.4175 90.312 18.3879 90.2276 18.3746C90.1442 18.3564 90.0602 18.3421 89.9761 18.3278C89.8784 18.3112 89.7807 18.2946 89.6837 18.2719C88.8774 18.0685 88.129 17.6512 87.5041 17.0565C86.8239 16.436 86.1547 15.7959 85.5296 15.112C84.6744 14.1754 83.8372 13.219 83.0004 12.263L83.0002 12.2628L83 12.2626C82.7038 11.9242 82.4076 11.5859 82.1107 11.2485C81.635 10.7017 81.1037 10.2164 80.5273 9.80215C80.474 9.75694 80.4247 9.7064 80.3799 9.65118C80.5786 9.52292 80.7769 9.39696 80.9741 9.27166L80.9767 9.26999L80.9791 9.2685L80.9797 9.26809L80.9804 9.26768L80.9813 9.2671L80.9816 9.2669C81.4597 8.96316 81.9318 8.66321 82.3902 8.34373C83.0278 7.90396 83.5876 7.34132 84.0425 6.683C84.4928 6.02172 84.8067 5.291 84.837 4.4561C84.8852 3.14111 84.4019 2.09937 83.3981 1.36865C82.6078 0.793431 81.7114 0.585086 80.782 0.50205C79.8505 0.418116 78.9215 0.478456 77.9925 0.538797C77.5345 0.568543 77.0765 0.59829 76.6182 0.610752C75.8692 0.631889 75.1188 0.653023 74.3698 0.631887C73.7292 0.611688 73.0877 0.577533 72.4454 0.543339L72.4453 0.543336C72.0314 0.521301 71.6173 0.499251 71.2029 0.480911C71.0394 0.471849 70.8754 0.474874 70.7115 0.477894C70.6297 0.479403 70.5479 0.480911 70.4662 0.480911C70.3285 0.482421 70.1908 0.529224 70.1908 0.6802C70.2106 0.793792 70.2692 0.894801 70.3547 0.962524C70.444 1.0326 70.5444 1.0838 70.6507 1.1135C70.7348 1.14532 70.8218 1.16678 70.909 1.1883C70.9418 1.19638 70.9746 1.20448 71.0074 1.21314C71.3172 1.27991 71.6027 1.44383 71.8293 1.68502C72.0559 1.92621 72.2137 2.2343 72.2838 2.57193C72.3629 2.92521 72.4031 3.28762 72.4035 3.6514C72.4256 5.37705 72.4256 7.10422 72.4256 8.83138C72.432 11.0709 72.4352 13.3103 72.4352 15.5498C72.4537 16.2131 72.3227 16.8712 72.0538 17.4657C71.9524 17.6896 71.8077 17.8866 71.6298 18.043C71.452 18.1994 71.2452 18.3115 71.0239 18.3715C70.8854 18.4113 70.746 18.4449 70.6064 18.4785C70.5183 18.4997 70.4302 18.5209 70.3423 18.5437C70.209 18.5665 70.079 18.6081 69.9554 18.6674C69.9164 18.6953 69.8832 18.7319 69.858 18.7748C69.8329 18.8178 69.8163 18.8661 69.8095 18.9166C69.8039 18.9739 69.8934 19.0751 69.9609 19.1053C70.0739 19.1565 70.1952 19.1822 70.3175 19.1808C70.7378 19.1674 71.1583 19.1504 71.5789 19.1334C72.1049 19.1121 72.631 19.0909 73.1567 19.0766C73.8066 19.0585 74.4579 19.0509 75.1078 19.0675C75.5771 19.0798 76.046 19.1031 76.5149 19.1265L76.5151 19.1265C76.8564 19.1435 77.1978 19.1605 77.5394 19.1732C77.6996 19.1815 77.8599 19.159 78.0131 19.1068C78.0592 19.0831 78.0999 19.0485 78.1323 19.0054C78.1647 18.9623 78.1879 18.9118 78.2003 18.8577C78.1973 18.8081 78.1831 18.7601 78.1591 18.718C78.1351 18.6758 78.1019 18.6409 78.0626 18.6161C77.9054 18.5443 77.7408 18.4936 77.5724 18.4651C76.7794 18.2945 76.2217 17.8175 75.9973 16.9554C75.8812 16.5305 75.815 16.0912 75.8004 15.6479C75.7783 13.9479 75.7783 12.248 75.7783 10.548C75.7783 10.4947 75.7818 10.4411 75.7853 10.3879ZM75.7811 6.70111V5.81036C75.7811 5.0283 75.7857 4.24524 75.7949 3.46117C75.7911 3.06874 75.8658 2.68017 76.0138 2.32282C76.0904 2.12324 76.2087 1.94617 76.3591 1.80588C76.5095 1.66559 76.6879 1.56598 76.8799 1.5151C77.8002 1.23857 78.7815 1.34616 79.6337 1.81705C80.961 2.54777 81.3658 3.99714 81.286 5.25326C81.2171 6.35085 80.7228 7.18272 79.9407 7.83494C79.0631 8.56652 77.9863 8.95264 76.884 8.93102C76.7119 8.93102 76.5398 8.93102 76.3677 8.92045C75.9284 8.8963 75.7811 8.75136 75.7811 8.23805V6.70111ZM52.1426 9.60886C52.1856 9.65749 52.2316 9.70289 52.2803 9.74475C52.9676 10.2445 53.5977 10.833 54.157 11.4976C54.3669 11.7371 54.5764 11.977 54.786 12.2169L54.7862 12.2171C55.6573 13.2142 56.5285 14.2115 57.423 15.1814C58.0702 15.8819 58.7627 16.5402 59.4691 17.1607C60.1781 17.8178 61.0486 18.2302 61.9709 18.3458C62.0688 18.3536 62.1647 18.3796 62.2546 18.4228C62.5121 18.5738 62.53 18.8758 62.2711 19.0267C62.1216 19.1205 61.9553 19.1771 61.7837 19.1928L61.4793 19.2031C60.71 19.2294 59.9388 19.2557 59.1676 19.229C58.4547 19.1975 57.75 19.051 57.076 18.7942C56.1312 18.437 55.2777 17.8376 54.5866 17.0459C53.7299 16.0969 52.9786 15.0547 52.2268 14.012C52.041 13.7542 51.8551 13.4963 51.6676 13.2398C51.0104 12.314 50.2593 11.4732 49.4287 10.7336C49.1028 10.4436 48.717 10.2456 48.3051 10.1569C48.0624 10.086 47.8041 10.1217 47.585 10.2566V17.443C47.4988 17.421 47.4178 17.4016 47.3406 17.3831L47.3405 17.3831C47.1848 17.3459 47.0443 17.3123 46.9062 17.2679C46.2907 17.0671 45.7909 16.6519 45.3214 16.1914C45.1355 16.0097 44.9571 15.8189 44.7785 15.6279L44.7784 15.6279L44.7784 15.6279L44.7784 15.6278L44.7783 15.6278L44.7783 15.6277L44.7783 15.6277L44.7782 15.6276L44.7781 15.6276C44.6392 15.4791 44.5002 15.3305 44.3576 15.1859C44.3059 15.1386 44.2653 15.0784 44.2392 15.0104C44.213 14.9424 44.2022 14.8685 44.2075 14.7949V14.4718C44.1974 10.788 44.1859 7.10518 44.1731 3.42339C44.1745 3.12805 44.1388 2.83391 44.067 2.54924C43.9925 2.21225 43.8313 1.90579 43.6026 1.66627C43.3739 1.42676 43.0873 1.26423 42.7769 1.19801C42.6444 1.16994 42.5134 1.13416 42.3845 1.09082C42.279 1.05833 42.1819 0.999409 42.1008 0.918703C42.0716 0.878275 42.0504 0.831622 42.0385 0.781715C42.0267 0.731808 42.0244 0.679742 42.032 0.628832C42.043 0.568442 42.1573 0.500501 42.2302 0.494462C42.4627 0.469802 42.6963 0.461732 42.9297 0.470305C43.4156 0.489698 43.9015 0.513231 44.3874 0.536764L44.3875 0.536767C45.339 0.582853 46.2906 0.62894 47.2422 0.643931C47.7168 0.653996 48.1913 0.61709 48.6659 0.580185C48.9032 0.561733 49.1405 0.54328 49.3778 0.530699L49.5275 0.522718C51.0143 0.443317 52.5016 0.363887 53.967 0.746593C55.3287 1.09988 56.2155 2.03592 56.5831 3.51549C56.7607 4.23715 56.6327 4.96032 56.3711 5.64877C56.0172 6.58331 55.421 7.30951 54.7188 7.94511C54.1478 8.45559 53.5205 8.88522 52.8517 9.22388C52.6816 9.31152 52.5137 9.40419 52.3335 9.50373L52.3334 9.50377C52.2715 9.53796 52.2081 9.57297 52.1426 9.60886ZM47.6084 5.78616H47.5919C47.5919 6.03326 47.5907 6.28052 47.5895 6.52779V6.52837C47.587 7.0227 47.5846 7.51704 47.5919 8.01003C47.6071 8.87814 47.6442 8.91588 48.4346 8.934C49.6104 8.97175 50.7023 8.68036 51.6552 7.8968C52.4083 7.2778 52.9508 6.50329 53.0679 5.43892C53.2056 4.10731 52.8173 2.37864 51.125 1.66452C50.3528 1.33602 49.5057 1.28318 48.7045 1.51355C48.4924 1.56113 48.2955 1.66924 48.1338 1.82698C47.972 1.98471 47.8511 2.18647 47.7833 2.41185C47.6832 2.72912 47.6262 3.06078 47.6139 3.39621C47.5994 3.95875 47.6026 4.52128 47.6058 5.08015V5.08034V5.08054V5.08074V5.08093V5.08113V5.08132V5.08151L47.6058 5.08348C47.6071 5.31845 47.6084 5.55277 47.6084 5.78616ZM32.0199 23.6436C30.5301 22.857 28.9411 22.5671 26.968 22.555C25.2493 22.552 23.5598 23.0423 22.0676 23.9772C19.2862 25.6802 17.5032 28.1577 17.181 31.7193C17.0373 33.0936 17.2184 34.4854 17.7069 35.7609C18.6556 38.1765 20.2707 39.8961 22.4449 40.9529C24.5639 41.9781 26.7945 42.2242 29.0829 41.7969C31.3321 41.4015 33.4154 40.2554 35.0491 38.5147C37.6142 35.8077 38.3578 31.1924 36.1671 27.5433C35.141 25.847 33.7052 24.4969 32.0199 23.6436ZM33.8746 32.1601V32.4439C33.8511 34.3523 33.4656 36.1534 32.5555 37.793C31.571 39.5685 30.1597 40.5997 28.2664 40.8231C26.4875 41.0314 24.8737 40.6012 23.4776 39.342C22.5578 38.5117 21.912 37.4518 21.4356 36.2651C20.7348 34.5304 20.5585 32.7157 20.7348 30.8451C20.8547 29.3758 21.3056 27.9621 22.0469 26.731C23.0975 25.0129 24.5681 24.0814 26.4434 23.8625C27.4842 23.7248 28.5399 23.8535 29.5277 24.2384C30.7765 24.7377 31.8326 25.6895 32.5211 26.9364C33.2896 28.3091 33.7401 29.8672 33.8333 31.4747C33.8498 31.7072 33.8622 31.9321 33.8746 32.1601ZM86.1758 26.8639C86.4443 25.6213 86.7197 24.3773 86.9951 23.1408C86.9292 23.0567 86.8451 22.992 86.7507 22.9525C86.6562 22.9129 86.5542 22.8998 86.454 22.9143C86.2505 22.917 86.0468 22.9185 85.8431 22.92C85.3454 22.9236 84.8474 22.9272 84.3501 22.9476C81.632 23.0593 78.914 23.1348 76.1947 23.0366C75.8999 23.0359 75.6055 23.0571 75.3134 23.1C75.2144 23.1146 75.1199 23.155 75.038 23.2178C75.0086 23.2309 74.9834 23.2534 74.9656 23.2823C74.9478 23.3112 74.9383 23.3453 74.9383 23.3801C74.9383 23.415 74.9478 23.449 74.9656 23.478C74.9834 23.5069 75.0086 23.5293 75.038 23.5424C75.1647 23.6231 75.2979 23.6909 75.436 23.7447C75.6802 23.8422 75.901 23.9991 76.082 24.2036C76.263 24.4081 76.3994 24.6548 76.481 24.9253C76.591 25.2565 76.6532 25.6044 76.6655 25.9565C76.6834 28.2513 76.6834 30.5447 76.6834 32.8395C76.6834 33.2012 76.6836 33.5629 76.6838 33.9246V33.9278C76.6845 35.2515 76.6852 36.5751 76.6766 37.8987C76.683 38.3163 76.6512 38.7336 76.5816 39.1442C76.3888 40.1316 75.9082 40.8427 74.9293 41.0103C74.7818 41.0359 74.6356 41.0691 74.4889 41.1024L74.4888 41.1025L74.4887 41.1025C74.4191 41.1183 74.3494 41.1341 74.2794 41.1492C74.161 41.1749 74.0109 41.2277 74.0233 41.3787C74.0296 41.4635 74.126 41.5484 74.2036 41.6167L74.2229 41.6338C74.2844 41.6788 74.3557 41.7049 74.4295 41.7093C74.6483 41.7392 74.8685 41.7563 75.089 41.7607C75.9523 41.7544 76.8152 41.7462 77.678 41.738L77.6811 41.738C78.6875 41.7284 79.6937 41.7188 80.6999 41.7123C80.9343 41.7114 81.1711 41.7242 81.4087 41.7371L81.409 41.7371C81.5396 41.7442 81.6705 41.7513 81.8014 41.7561C82.0513 41.7649 82.3013 41.7741 82.5513 41.7833H82.5514H82.5515H82.5516H82.5517C83.3706 41.8133 84.1901 41.8433 85.0096 41.8618C85.2921 41.8654 85.5742 41.8355 85.8509 41.7727C86.1016 41.7313 86.3405 41.6283 86.5498 41.4714C86.7592 41.3146 86.9335 41.1079 87.0598 40.8669C87.0962 40.7932 87.1334 40.7204 87.1705 40.6479L87.1707 40.6474C87.2612 40.4704 87.3509 40.295 87.4261 40.112C87.7648 39.2282 87.9618 38.2868 88.0085 37.3295C88.0209 37.1634 88.0099 36.9868 87.8364 36.9279C87.7636 36.9065 87.6863 36.9148 87.6187 36.9512C87.5511 36.9875 87.4978 37.0495 87.4688 37.1257C87.3566 37.3174 87.2598 37.5195 87.1796 37.7296C86.7624 38.9721 85.9239 39.7346 84.8113 40.1452C83.6107 40.5891 82.388 40.5498 81.179 40.1845C80.3446 39.9278 79.8737 39.2092 79.8737 38.2671V33.2079C79.8737 33.1209 79.8805 33.034 79.8875 32.9448C79.8909 32.9008 79.8944 32.8562 79.8972 32.8108C79.9234 32.8077 79.9463 32.8043 79.967 32.8013L79.9671 32.8013C80.0061 32.7957 80.0373 32.7912 80.0679 32.7912C81.0521 32.7918 82.035 32.709 83.0076 32.5436C84.1638 32.3646 85.2903 32.003 86.3521 31.4701C86.5501 31.3611 86.7351 31.2257 86.9028 31.067C87.0474 30.9372 87.17 30.7621 87.0805 30.5371C86.991 30.3122 86.7886 30.3288 86.5985 30.3559C86.585 30.3582 86.5713 30.3599 86.5575 30.3615C86.5348 30.3642 86.512 30.3669 86.4898 30.3726C85.3607 30.6564 84.2059 30.7987 83.0475 30.7968C82.3701 30.7968 81.6964 30.7477 81.0188 30.6984C80.8727 30.6878 80.7265 30.6771 80.5801 30.667C80.3382 30.635 80.0982 30.5877 79.8614 30.525L79.859 30.4935L79.8563 30.4613L79.8523 30.4164L79.8522 30.416C79.8467 30.355 79.8421 30.3037 79.8421 30.2518V26.2026C79.8502 26.0146 79.8672 25.8271 79.893 25.641C79.9119 25.4457 79.9702 25.2575 80.0638 25.09C80.1574 24.9226 80.2839 24.7802 80.4341 24.6732C80.803 24.4006 81.2299 24.2373 81.6733 24.1992C82.3384 24.1312 82.9979 24.2052 83.6589 24.2822C84.1099 24.3197 84.5356 24.5255 84.865 24.8653C85.1945 25.2051 85.4078 25.6584 85.4695 26.1498C85.4807 26.2972 85.4991 26.4438 85.5246 26.5891C85.5592 26.7588 85.6182 26.9214 85.6994 27.0707C85.8233 27.276 86.0368 27.2398 86.1345 27.0149C86.1532 26.9663 86.1671 26.9157 86.1758 26.8639ZM27.1705 0.560844C26.8951 1.84414 26.6294 3.08969 26.3705 4.33524C26.3637 4.41523 26.333 4.49053 26.2832 4.54948C26.2335 4.60843 26.1673 4.64775 26.0951 4.66135C26.0261 4.66684 25.9576 4.64502 25.9021 4.59987C25.8465 4.55472 25.8075 4.48922 25.7922 4.41525C25.7331 4.23869 25.6902 4.05612 25.6642 3.87023C25.4769 2.52957 24.9964 1.98303 23.7571 1.74902C22.9654 1.59805 22.1696 1.54068 21.3806 1.77771C21.1919 1.83615 21.0078 1.91086 20.8298 2.00115C20.3204 2.25479 20.0781 2.72131 20.0271 3.31011C20.0078 3.52142 20.0122 3.74012 20.0165 3.95897V3.959V3.95903V3.95906C20.0184 4.05291 20.0202 4.14679 20.0202 4.24012V8.01451C20.1259 8.03113 20.2303 8.05029 20.3339 8.06932C20.5693 8.11251 20.8008 8.15501 21.035 8.16549C21.7951 8.21078 22.5579 8.25155 23.3193 8.25155C24.4141 8.24543 25.5055 8.11847 26.577 7.8726C26.6821 7.83555 26.7916 7.81572 26.902 7.81372C27.0204 7.8154 27.1341 7.86485 27.2214 7.95261C27.2469 8.01053 27.2602 8.07401 27.2602 8.13832C27.2602 8.20262 27.2469 8.2661 27.2214 8.32402C27.1473 8.463 27.0415 8.57849 26.9144 8.65918C26.6538 8.83752 26.3802 8.99204 26.0965 9.12117C24.8683 9.65109 23.6071 10.0391 22.2811 10.1191C21.9301 10.1398 21.5792 10.1586 21.2282 10.1773C20.9651 10.1913 20.7019 10.2054 20.4388 10.2203C20.3598 10.2203 20.2802 10.2288 20.1937 10.2381C20.149 10.2429 20.1025 10.2479 20.0533 10.252C20.0533 10.3303 20.0488 10.4042 20.0445 10.4752C20.0406 10.5412 20.0368 10.6047 20.0368 10.6672C20.0368 11.1575 20.0386 11.648 20.0405 12.1386V12.1387V12.1389V12.139C20.045 13.3354 20.0496 14.532 20.0271 15.7279C20.0255 16.1762 20.1599 16.6123 20.4091 16.9677C20.6584 17.323 21.0084 17.5773 21.404 17.6905C22.6295 18.0121 23.8604 18.0378 25.0749 17.5818C25.7896 17.3135 26.4181 16.8237 26.8841 16.1717C26.9961 16.0175 27.0731 15.8339 27.1504 15.6496L27.1504 15.6496C27.1919 15.5506 27.2335 15.4514 27.2807 15.3565L27.3349 15.2468C27.4534 15.0065 27.5782 14.7536 27.7226 14.5246C27.7565 14.4815 27.799 14.4475 27.8467 14.4253C27.8944 14.403 27.9462 14.3931 27.998 14.3963C28.144 14.4144 28.1619 14.5669 28.1632 14.7118C28.1715 15.8275 27.8879 16.8602 27.4748 17.8687C27.0975 18.7746 26.4738 19.2562 25.5774 19.2682C24.7556 19.2804 23.9337 19.2642 23.1119 19.2479L23.1117 19.2479C22.9133 19.244 22.7149 19.2401 22.5166 19.2365C22.0564 19.2284 21.5962 19.2164 21.1359 19.2044L21.1358 19.2044C20.4033 19.1854 19.6705 19.1663 18.9366 19.1626C18.1919 19.1626 17.4472 19.173 16.7023 19.1834H16.7022H16.7022L16.7018 19.1834C16.1797 19.1908 15.6574 19.1981 15.135 19.2018C14.9265 19.2041 14.7184 19.1828 14.514 19.1384C14.4093 19.1055 14.3144 19.043 14.2386 18.9572C14.2171 18.9419 14.1999 18.9202 14.189 18.8948C14.1782 18.8693 14.174 18.841 14.177 18.813C14.18 18.7851 14.1901 18.7586 14.2061 18.7366C14.2221 18.7146 14.2433 18.6979 14.2675 18.6885C14.3988 18.6192 14.5376 18.5685 14.6806 18.5375C14.7659 18.5188 14.8526 18.5072 14.9391 18.4956H14.9391C15.048 18.481 15.1565 18.4665 15.2616 18.4379C15.553 18.3711 15.8246 18.2256 16.0518 18.0147C16.279 17.8038 16.4546 17.5342 16.5628 17.2301C16.7478 16.7 16.8412 16.1369 16.8382 15.5693C16.8492 15.1918 16.8455 14.8137 16.8419 14.4357V14.4356V14.4354V14.4352C16.84 14.2465 16.8382 14.0579 16.8382 13.8694C16.8327 10.4281 16.8263 6.98738 16.8189 3.54714C16.8218 3.30446 16.8052 3.06197 16.7694 2.82246C16.723 2.44584 16.5828 2.09053 16.3642 1.79565C16.1455 1.50078 15.8569 1.27776 15.5301 1.15116C15.5003 1.13832 15.4676 1.12711 15.4344 1.11571L15.4344 1.1157C15.2955 1.06813 15.1467 1.01713 15.1556 0.82958C15.1662 0.606117 15.3841 0.569536 15.5587 0.540221L15.5797 0.536687C15.7729 0.498495 15.9686 0.478294 16.1649 0.476298C16.6077 0.482596 17.0513 0.493671 17.4949 0.504747C18.2211 0.522877 18.9474 0.54101 19.6705 0.538198C20.6027 0.538198 21.5349 0.506587 22.4706 0.474857L22.4707 0.474855C22.7788 0.464406 23.0874 0.453944 23.3964 0.444594C23.8016 0.432637 24.2066 0.416745 24.6115 0.400855C25.178 0.378624 25.7444 0.356395 26.3113 0.34495C26.3548 0.346847 26.399 0.34744 26.4437 0.34804C26.6837 0.351262 26.9384 0.354679 27.1705 0.560844ZM53.4655 23.0985C52.1318 22.7917 50.7717 22.6449 49.4091 22.6607C48.1144 22.6263 46.8207 22.7647 45.5565 23.0728C44.2044 23.405 42.9197 23.9183 41.792 24.8377C39.589 26.6283 38.2341 28.9473 38.0744 32.0015C37.9849 33.697 38.292 35.3094 39.1181 36.7633C40.6313 39.4054 42.7683 41.1325 45.562 41.821C46.8849 42.1515 48.2568 42.17 49.5867 41.8754C51.0145 41.5688 52.3652 40.9282 53.5467 39.9972C54.0569 39.5941 54.5337 39.137 55.0097 38.6807L55.0098 38.6806L55.01 38.6805C55.1453 38.5507 55.2806 38.421 55.4165 38.2927C55.5205 38.2067 55.6058 38.0966 55.6665 37.9703C55.7272 37.844 55.7617 37.7046 55.7676 37.562C55.7704 37.3868 55.7181 37.2117 55.5625 37.1785C55.4744 37.1604 55.3436 37.2676 55.2623 37.3521C55.1713 37.4502 55.0856 37.5539 55.0002 37.6573L55.0002 37.6573L55.0001 37.6575C54.8699 37.8151 54.7403 37.9721 54.5932 38.107C53.2662 39.3301 51.6169 40.0549 49.8869 40.1754C48.4096 40.3185 46.9263 39.9864 45.6185 39.2197C43.2323 37.8126 41.1628 34.5289 41.6323 30.5944C42.1239 26.4909 45.1792 23.8806 47.9661 23.7643C48.8377 23.7281 49.69 23.7809 50.5024 24.1267C51.7911 24.6762 52.6806 25.6349 52.9147 27.1809C52.9602 27.636 52.9754 28.0942 52.9601 28.5518C52.9615 28.7012 52.9849 28.8492 53.1226 28.8703C53.1748 28.8724 53.2268 28.8614 53.2745 28.8381C53.3222 28.8148 53.3645 28.7799 53.398 28.7359C53.5271 28.5248 53.6269 28.2938 53.694 28.0505C53.9657 26.9292 54.2241 25.8034 54.4824 24.6779L54.6069 24.1357C54.6882 23.7779 54.6523 23.633 54.3577 23.4654C54.0772 23.2983 53.7769 23.1749 53.4655 23.0985ZM6.83633 10.7517V11.6696C6.83373 11.9746 6.82815 12.2798 6.82256 12.585V12.585V12.585C6.81037 13.2512 6.79817 13.9177 6.81705 14.5835C6.83561 15.3244 6.90187 16.063 7.01533 16.7938C7.17229 17.7962 7.70378 18.3035 8.62217 18.4545C8.7588 18.4681 8.89142 18.5123 9.01184 18.5843C9.0539 18.6202 9.0881 18.6659 9.11193 18.7182C9.13576 18.7704 9.14861 18.8279 9.14953 18.8863C9.13677 18.9353 9.11291 18.98 9.08016 19.0161C9.04742 19.0523 9.00687 19.0788 8.96227 19.0931C8.72261 19.1513 8.47797 19.1811 8.23251 19.1822L7.87702 19.1755C7.07275 19.1605 6.26796 19.1456 5.46631 19.0916C4.38542 19.0219 3.30139 19.036 2.22232 19.1339C1.99964 19.1522 1.78417 19.1409 1.56716 19.1295C1.5158 19.1268 1.46435 19.1241 1.4127 19.1218C1.27501 19.1218 1.15935 19.0675 1.13732 18.9089C1.11529 18.7504 1.24059 18.6795 1.36313 18.6432C1.56416 18.5843 1.76656 18.5285 1.97172 18.4817C2.89287 18.2688 3.29493 17.9638 3.54828 16.6805C3.60593 16.3497 3.63269 16.0133 3.62814 15.6765L3.62935 15.2098V15.2097C3.63864 11.6409 3.64793 8.07329 3.62814 4.50434C3.61382 3.92594 3.53569 3.35158 3.39544 2.79378C3.29873 2.44678 3.14214 2.12337 2.93418 1.84113C2.83007 1.68112 2.69498 1.54834 2.53858 1.45229C2.38219 1.35624 2.20836 1.2993 2.02955 1.28554C1.81033 1.25912 1.59696 1.19118 1.39893 1.08474C1.35875 1.07349 1.32294 1.04833 1.29684 1.013C1.27073 0.977664 1.25571 0.934048 1.25401 0.888614C1.25231 0.843181 1.26402 0.798354 1.2874 0.760795C1.31078 0.723237 1.34457 0.694947 1.38378 0.680124C1.55817 0.58449 1.74823 0.528026 1.9428 0.51405C2.25029 0.499977 2.55824 0.504012 2.86533 0.52613C5.09179 0.624265 7.31824 0.598599 9.5447 0.52613C10.2251 0.506381 10.9054 0.498373 11.5858 0.490365C12.0496 0.484906 12.5135 0.479446 12.9773 0.470266C13.2178 0.465719 13.4597 0.455088 13.7011 0.444479C13.9406 0.433951 14.1796 0.423446 14.4162 0.418934C14.5834 0.427539 14.7499 0.448218 14.9146 0.480835C14.8826 0.684718 14.8518 0.884354 14.8215 1.081L14.8215 1.08121L14.8215 1.08122C14.7529 1.52667 14.6866 1.95677 14.6131 2.38615C14.4754 3.16669 14.3377 3.94573 14.1918 4.72476C14.1881 4.74425 14.1859 4.7653 14.1837 4.78638V4.78639C14.1784 4.83717 14.173 4.88814 14.1477 4.91801L14.1265 4.94582C14.0564 5.03808 13.9736 5.14697 13.8875 5.15655C13.8291 5.15268 13.7722 5.13551 13.7203 5.10613C13.6684 5.07676 13.6226 5.03582 13.5859 4.98595C13.512 4.8781 13.4646 4.75126 13.4482 4.61757C13.4097 4.39247 13.389 4.16416 13.3863 3.93516C13.3863 3.00213 12.947 2.38313 12.2118 2.00418C11.9214 1.85796 11.612 1.7622 11.2948 1.72034C10.414 1.60939 9.52502 1.6018 8.64283 1.6977C8.38735 1.73062 8.13718 1.80174 7.8993 1.90906C7.62555 2.0184 7.3853 2.20981 7.20589 2.46151C7.02649 2.71321 6.91514 3.01509 6.88452 3.33277C6.84698 3.58596 6.82582 3.84175 6.82119 4.09821C6.81688 4.8166 6.81706 5.53458 6.81725 6.25257C6.81742 6.91072 6.81759 7.56889 6.81429 8.2274C6.81429 8.2794 6.81792 8.32876 6.82277 8.39477L6.82277 8.39478C6.82524 8.42842 6.82803 8.46639 6.83082 8.51123C7.01343 8.52754 7.1948 8.5463 7.37537 8.56497L7.37545 8.56498C7.79666 8.60853 8.21356 8.65164 8.63181 8.66221L8.77302 8.6657C9.71068 8.6889 10.6504 8.71217 11.5839 8.65466C12.2628 8.61284 12.9384 8.51889 13.6139 8.42496C13.9138 8.38325 14.2138 8.34154 14.514 8.3044C14.6092 8.28056 14.7068 8.26991 14.8045 8.27269C14.9036 8.28779 15.0565 8.32855 15.0799 8.39951C15.0941 8.46163 15.0968 8.52624 15.0878 8.58952C15.0788 8.65279 15.0583 8.71345 15.0275 8.76789C14.9496 8.87203 14.8525 8.95692 14.7425 9.017C13.7586 9.68509 12.6681 10.1426 11.5288 10.3652C10.1162 10.6688 8.67731 10.7999 7.23838 10.7562C7.14545 10.7505 7.05333 10.7509 6.94276 10.7514H6.94272L6.94232 10.7514C6.90886 10.7516 6.8737 10.7517 6.83633 10.7517ZM61.7055 10.6717V10.2701C61.7772 10.2601 61.835 10.2505 61.8884 10.2416C61.9314 10.2345 61.9716 10.2278 62.014 10.2218C62.2396 10.2079 62.4653 10.1955 62.6909 10.183C63.0792 10.1616 63.4673 10.1402 63.8549 10.1116C65.2281 10.0049 66.5766 9.65512 67.8479 9.07588C68.118 8.94627 68.3789 8.79488 68.6286 8.62295C68.734 8.55423 68.822 8.4577 68.8847 8.34214C68.9198 8.28567 68.9391 8.21912 68.94 8.15076C68.9409 8.08241 68.9235 8.01527 68.8899 7.95768C68.8563 7.90009 68.808 7.8546 68.751 7.82686C68.6941 7.79912 68.6309 7.79035 68.5694 7.80164C68.4599 7.81509 68.3513 7.83678 68.2445 7.86657C67.1612 8.11576 66.0577 8.24374 64.9509 8.24854C64.2019 8.24703 63.4514 8.20777 62.7038 8.16097C62.4768 8.14567 62.2512 8.10282 62.0225 8.0594C61.9126 8.03855 61.8021 8.01756 61.6904 7.99943C61.6904 7.47006 61.6884 6.94665 61.6864 6.4272C61.6824 5.39999 61.6785 4.38827 61.6904 3.37655C61.6815 3.11817 61.7374 2.86208 61.852 2.6361C61.9666 2.41012 62.1355 2.22289 62.3403 2.09476C62.672 1.8888 63.0349 1.7502 63.4115 1.68562C64.2266 1.53465 65.028 1.6509 65.8239 1.84566C66.1456 1.91018 66.4447 2.07138 66.6878 2.31129C66.9309 2.55119 67.1085 2.86039 67.2008 3.20444C67.2593 3.4653 67.3053 3.72937 67.3385 3.99555C67.359 4.1411 67.3965 4.28317 67.45 4.41828C67.5092 4.54963 67.6111 4.67343 67.7625 4.65229C67.914 4.63116 67.9787 4.5134 68.0131 4.35034C68.1494 3.70106 68.2881 3.05223 68.4268 2.40335C68.5432 1.85876 68.6596 1.31414 68.7746 0.769198C68.8283 0.514049 68.7746 0.432522 68.5309 0.396288C68.3485 0.366642 68.1644 0.352006 67.9801 0.352504C67.4852 0.366887 66.9908 0.385079 66.4963 0.403271C66.0565 0.419449 65.6168 0.435628 65.1767 0.44913C64.8516 0.458552 64.5263 0.468915 64.201 0.479279C63.2233 0.510433 62.2451 0.541599 61.2677 0.547263C60.5544 0.550988 59.8412 0.533469 59.1279 0.515951C58.6846 0.505062 58.2412 0.494173 57.7979 0.488385C57.5899 0.492501 57.3826 0.516237 57.1783 0.559339C57.1707 0.560588 57.163 0.56183 57.1552 0.563086C57.0034 0.587632 56.8191 0.617427 56.7955 0.808453C56.7698 1.0114 56.9167 1.05891 57.0539 1.10332C57.0861 1.11375 57.1178 1.12401 57.1466 1.13607C57.7455 1.3882 58.1793 1.82301 58.3528 2.50995C58.4376 2.83215 58.4839 3.16507 58.4905 3.50035C58.5006 7.13484 58.5084 10.7638 58.5139 14.3872C58.5152 15.1937 58.5166 15.1949 59.0727 15.6956L59.0784 15.7007C60.6384 17.1048 62.383 18.1752 64.2019 19.1097C64.3031 19.1547 64.4107 19.1802 64.5199 19.1852C64.6577 19.1955 64.7955 19.2063 64.9332 19.2171C65.4215 19.2554 65.9093 19.2937 66.398 19.309C66.791 19.3277 67.1847 19.3055 67.5739 19.2426C68.1963 19.1278 68.703 18.7897 68.9783 18.1299C69.0158 18.0417 69.0566 17.955 69.0974 17.8682C69.1468 17.7634 69.1963 17.6584 69.24 17.5501C69.6186 16.6687 69.8129 15.7057 69.8086 14.7314C69.8086 14.7184 69.8088 14.7052 69.809 14.692C69.8107 14.5711 69.8124 14.4493 69.6709 14.3963C69.6062 14.3686 69.5343 14.3688 69.4697 14.3968C69.4051 14.4248 69.3526 14.4785 69.3226 14.5472C69.2466 14.684 69.1821 14.828 69.1298 14.9775C68.7691 15.9981 68.1729 16.8209 67.2793 17.3026C66.6014 17.6775 65.8604 17.8955 65.1024 17.943C64.3444 17.9905 63.5856 17.8666 62.8732 17.5788C62.0773 17.2754 61.7055 16.6594 61.7055 15.7309V10.6717Z" fill="#5E312C"/>
</svg>
