<svg width="95" height="95" viewBox="0 0 95 95" fill="none" xmlns="http://www.w3.org/2000/svg">
<path d="M27.0357 47.1031L35.9319 55.7946M48.3868 67.9627L35.9319 55.7946M48.3868 81C48.1021 75.4954 48.216 63.2693 50.9489 58.4021C51.7507 56.9741 53.4543 54.8129 55.6197 52.318M73.1541 34.0659C68.7286 38.3649 60.8348 46.3093 55.6197 52.318M55.6197 52.318C51.2159 45.0751 46.6787 28.5033 63.7596 20.1595C85.1107 9.72965 91.089 14.0754 91.943 21.8978C92.7971 29.7201 84.2037 67.9628 55.6197 52.318ZM35.9319 55.7946C31.8278 59.8506 21.7594 67.9627 9.80274 48.766C-6.22066 23.04 8.73655 15.9748 27.0356 28.7756C45.6726 41.8128 39.6949 53.1871 35.9319 55.7946Z" stroke="white" stroke-width="6" stroke-linecap="round"/>
</svg>
