<svg width="95" height="95" viewBox="0 0 95 95" fill="none" xmlns="http://www.w3.org/2000/svg">
<path d="M85.5603 50.5268C84.6339 49.8146 83.5719 49.2979 82.439 49.0082C81.3061 48.7185 80.126 48.6619 78.9704 48.8417C85.6205 42.1439 88.9844 35.485 88.9844 28.9568C88.9844 19.606 81.4456 12.0003 72.1787 12.0003C69.7199 11.9849 67.2875 12.5066 65.0522 13.5288C62.817 14.551 60.8331 16.049 59.2399 17.9174C57.6466 16.049 55.6628 14.551 53.4275 13.5288C51.1923 12.5066 48.7598 11.9849 46.301 12.0003C37.0342 12.0003 29.4953 19.606 29.4953 28.9568C29.4953 32.8426 30.6426 36.619 33.0576 40.6143C31.0797 41.1142 29.2747 42.1397 27.8346 43.5817L19.8248 51.5653H9.66563C8.16301 51.5653 6.72194 52.1608 5.65942 53.2208C4.59691 54.2808 4 55.7184 4 57.2175L4 71.3479C4 72.8469 4.59691 74.2845 5.65942 75.3445C6.72194 76.4045 8.16301 77 9.66563 77H46.4922C46.7238 76.9999 46.9545 76.9714 47.1792 76.9152L69.8417 71.2631C69.9861 71.2287 70.1271 71.1814 70.2631 71.1218L84.027 65.2789L84.1828 65.2082C85.5056 64.5488 86.6384 63.5643 87.4744 62.3474C88.3104 61.1305 88.8221 59.7213 88.9613 58.2526C89.1005 56.7839 88.8626 55.3041 88.2701 53.9524C87.6776 52.6008 86.7499 51.4219 85.5744 50.5268H85.5603ZM46.301 17.6525C48.4951 17.6204 50.6488 18.242 52.4869 19.4376C54.325 20.6332 55.7639 22.3486 56.6195 24.3644C56.8329 24.8827 57.196 25.3261 57.6626 25.6381C58.1292 25.9501 58.6782 26.1167 59.2399 26.1167C59.8016 26.1167 60.3506 25.9501 60.8172 25.6381C61.2837 25.3261 61.6468 24.8827 61.8602 24.3644C62.7159 22.3486 64.1547 20.6332 65.9928 19.4376C67.8309 18.242 69.9847 17.6204 72.1787 17.6525C78.2162 17.6525 83.3188 22.8277 83.3188 28.9568C83.3188 35.8489 77.7275 43.6453 67.1505 51.53L63.2235 52.4308C63.5682 50.9782 63.5789 49.4666 63.2547 48.0093C62.9305 46.5519 62.2798 45.1867 61.3515 44.016C60.4232 42.8452 59.2413 41.8992 57.8944 41.2489C56.5475 40.5986 55.0706 40.2609 53.5742 40.2611H39.651C36.5951 36.1491 35.161 32.5317 35.161 28.9568C35.161 22.8277 40.2636 17.6525 46.301 17.6525ZM9.66563 57.2175H18.1641V71.3479H9.66563V57.2175ZM81.7005 60.1178L68.2447 65.8335L46.1381 71.3479H23.8297V55.5607L31.843 47.57C32.3672 47.0429 32.9912 46.6249 33.6787 46.3405C34.3663 46.0561 35.1036 45.9108 35.8479 45.9132H53.5742C54.7012 45.9132 55.782 46.3598 56.5789 47.1548C57.3758 47.9498 57.8235 49.028 57.8235 50.1523C57.8235 51.2766 57.3758 52.3548 56.5789 53.1498C55.782 53.9448 54.7012 54.3914 53.5742 54.3914H43.6594C42.9081 54.3914 42.1875 54.6892 41.6563 55.2192C41.125 55.7491 40.8266 56.468 40.8266 57.2175C40.8266 57.967 41.125 58.6858 41.6563 59.2158C42.1875 59.7458 42.9081 60.0436 43.6594 60.0436H54.9907C55.2039 60.043 55.4164 60.0193 55.6245 59.9729L79.3493 54.5292L79.4591 54.5009C80.1833 54.3004 80.9563 54.3741 81.6294 54.7079C82.3024 55.0417 82.8279 55.612 83.1048 56.3091C83.3817 57.0063 83.3904 57.7809 83.1292 58.484C82.868 59.1871 82.3553 59.769 81.6899 60.1178H81.7005Z" fill="white"/>
</svg>
