<svg width="95" height="95" viewBox="0 0 95 95" fill="none" xmlns="http://www.w3.org/2000/svg">
<path fill-rule="evenodd" clip-rule="evenodd" d="M71.5356 16.4062H57.3193C56.8234 14.3687 55.6287 12.5528 53.9291 11.2531C52.2295 9.95335 50.1247 9.24609 47.9562 9.24609C45.7878 9.24609 43.683 9.95335 41.9834 11.2531C40.2838 12.5528 39.089 14.3687 38.5932 16.4062H24.388C22.2035 16.4062 20.1083 17.243 18.5625 18.7329C17.0168 20.2227 16.147 22.2438 16.144 24.3522V71.3332C16.147 73.4426 17.0165 75.4648 18.5619 76.9563C20.1073 78.4479 22.2025 79.2871 24.388 79.2899H47.3801L51.8123 75.0121H24.388C23.3779 75.0093 22.4101 74.6208 21.6959 73.9315C20.9817 73.2421 20.5792 72.308 20.5763 71.3332V24.3522C20.5792 23.3783 20.9821 22.4453 21.6966 21.7577C22.4111 21.0701 23.379 20.684 24.388 20.684H29.0307C28.9689 20.9183 28.9354 21.1587 28.931 21.4005V25.9991C28.9295 26.375 29.005 26.7475 29.153 27.0952C29.301 27.4428 29.5187 27.7589 29.7936 28.0252C30.0684 28.2914 30.3951 28.5027 30.7547 28.6469C31.1144 28.7911 31.5 28.8653 31.8895 28.8653H63.5022C64.2898 28.8653 65.0451 28.5633 65.602 28.0258C66.1589 27.4883 66.4718 26.7593 66.4718 25.9991V21.4005C66.4691 21.1579 66.4318 20.9168 66.361 20.684H71.5245C72.5316 20.6868 73.4966 21.0742 74.2087 21.7615C74.9209 22.4488 75.3222 23.3802 75.3251 24.3522V52.3077L79.7573 48.0298V24.3522C79.7573 22.2466 78.8915 20.2271 77.3499 18.7373C75.8084 17.2474 73.7171 16.409 71.5356 16.4062ZM52.6433 20.684C52.2283 21.5447 51.5673 22.2731 50.7379 22.7835C49.9085 23.294 48.9454 23.5651 47.9618 23.5651C46.9782 23.5651 46.015 23.294 45.1856 22.7835C44.3563 22.2731 43.6952 21.5447 43.2802 20.684C42.8985 19.9193 42.724 19.0737 42.7731 18.2263C42.8223 17.3789 43.0934 16.5573 43.5612 15.8386C44.029 15.1198 44.678 14.5274 45.4477 14.1168C46.2173 13.7062 47.0824 13.4908 47.9618 13.4908C48.8412 13.4908 49.7062 13.7062 50.4759 14.1168C51.2455 14.5274 51.8946 15.1198 52.3624 15.8386C52.8301 16.5573 53.1013 17.3789 53.1504 18.2263C53.1996 19.0737 53.0251 19.9193 52.6433 20.684ZM80.2401 52.5758L78.5284 54.236C77.8982 54.8472 77.9007 55.8359 78.534 56.4441L83.5293 61.2419C84.1626 61.8502 85.1869 61.8478 85.8171 61.2365L87.5288 59.5763C88.159 58.9651 88.1565 57.9765 87.5232 57.3682L82.5279 52.5704C81.8946 51.9622 80.8703 51.9646 80.2401 52.5758ZM76.4716 57.9362L82.0119 63.2834C82.2335 63.5062 82.3545 63.8048 82.3483 64.1136C82.342 64.4224 82.2091 64.7161 81.9786 64.9304L66.887 79.5712L61.657 84.6404L61.1251 85.1644C60.9162 85.3677 60.6348 85.4863 60.3384 85.496L54.7981 85.7526C54.6393 85.7599 54.4806 85.7359 54.3316 85.6822C54.1826 85.6285 54.0465 85.5461 53.9315 85.4401C53.8165 85.3341 53.725 85.2067 53.6626 85.0655C53.6001 84.9244 53.568 84.7725 53.5682 84.619V78.9402C53.5657 78.7926 53.595 78.646 53.6541 78.5098C53.7132 78.3736 53.8009 78.2507 53.9117 78.1488L54.4214 77.6462L59.6514 72.577L74.7542 57.9362C74.8665 57.8266 75.0002 57.7396 75.1476 57.6802C75.295 57.6208 75.4532 57.5902 75.6129 57.5902C75.7726 57.5902 75.9308 57.6208 76.0782 57.6802C76.2256 57.7396 76.3593 57.8266 76.4716 57.9362Z" fill="white"/>
<path d="M57.3193 16.4062L56.8335 16.5244L56.9264 16.9062H57.3193V16.4062ZM71.5356 16.4062L71.5362 15.9062H71.5356V16.4062ZM53.9291 11.2531L54.2328 10.8559L54.2328 10.8559L53.9291 11.2531ZM41.9834 11.2531L42.2871 11.6503L42.2871 11.6503L41.9834 11.2531ZM38.5932 16.4062V16.9062H38.9861L39.079 16.5244L38.5932 16.4062ZM24.388 16.4062L24.388 16.9062H24.388V16.4062ZM18.5625 18.7329L18.9095 19.0929L18.9095 19.0929L18.5625 18.7329ZM16.144 24.3522L15.644 24.3515V24.3522H16.144ZM16.144 71.3332L15.644 71.3332L15.644 71.3339L16.144 71.3332ZM18.5619 76.9563L18.9091 76.5965L18.9091 76.5965L18.5619 76.9563ZM24.388 79.2899L24.3873 79.7899H24.388V79.2899ZM47.3801 79.2899V79.7899H47.582L47.7273 79.6497L47.3801 79.2899ZM51.8123 75.0121L52.1595 75.3719L53.0503 74.5121H51.8123V75.0121ZM24.388 75.0121L24.3866 75.5121H24.388V75.0121ZM21.6959 73.9315L21.3487 74.2912L21.3487 74.2912L21.6959 73.9315ZM20.5763 71.3332H20.0763L20.0763 71.3347L20.5763 71.3332ZM20.5763 24.3522L20.0763 24.3507V24.3522H20.5763ZM21.6966 21.7577L21.3499 21.3974L21.3499 21.3974L21.6966 21.7577ZM24.388 20.684L24.388 21.184H24.388V20.684ZM29.0307 20.684L29.5142 20.8114L29.6796 20.184H29.0307V20.684ZM28.931 21.4005L28.431 21.3912V21.4005H28.931ZM28.931 25.9991L29.431 26.0011V25.9991H28.931ZM29.7936 28.0252L30.1415 27.666L30.1415 27.666L29.7936 28.0252ZM30.7547 28.6469L30.5687 29.111L30.5687 29.111L30.7547 28.6469ZM31.8895 28.8653L31.8895 28.3653L31.8895 28.3653L31.8895 28.8653ZM65.602 28.0258L65.9492 28.3856L65.9492 28.3856L65.602 28.0258ZM66.4718 21.4005H66.9718L66.9717 21.395L66.4718 21.4005ZM66.361 20.684V20.184H65.6861L65.8826 20.8296L66.361 20.684ZM71.5245 20.684L71.5259 20.184H71.5245V20.684ZM74.2087 21.7615L73.8615 22.1212L73.8615 22.1212L74.2087 21.7615ZM75.3251 24.3522L75.8251 24.3522L75.8251 24.3507L75.3251 24.3522ZM75.3251 52.3077H74.8251V53.4851L75.6724 52.6674L75.3251 52.3077ZM79.7573 48.0298L80.1046 48.3896L80.2573 48.2422V48.0298H79.7573ZM79.7573 24.3522L79.2573 24.3522V24.3522H79.7573ZM77.3499 18.7373L77.6974 18.3777L77.6974 18.3777L77.3499 18.7373ZM52.6433 20.684L52.1959 20.4606L52.1929 20.4668L52.6433 20.684ZM45.1856 22.7835L45.4477 22.3577L45.4477 22.3577L45.1856 22.7835ZM43.2802 20.684L43.7307 20.4668L43.7276 20.4606L43.2802 20.684ZM42.7731 18.2263L43.2723 18.2552L43.2723 18.2552L42.7731 18.2263ZM43.5612 15.8386L43.1421 15.5658L43.1421 15.5658L43.5612 15.8386ZM45.4477 14.1168L45.2123 13.6757L45.2123 13.6757L45.4477 14.1168ZM50.4759 14.1168L50.7112 13.6757L50.7112 13.6757L50.4759 14.1168ZM52.3624 15.8386L52.7814 15.5658L52.7814 15.5658L52.3624 15.8386ZM78.5284 54.236L78.1803 53.8771L78.1803 53.8771L78.5284 54.236ZM80.2401 52.5758L80.5882 52.9347L80.5882 52.9347L80.2401 52.5758ZM78.534 56.4441L78.8803 56.0835L78.8803 56.0835L78.534 56.4441ZM83.5293 61.2419L83.1829 61.6025L83.1829 61.6025L83.5293 61.2419ZM85.8171 61.2365L85.469 60.8776L85.469 60.8776L85.8171 61.2365ZM87.5288 59.5763L87.8769 59.9353L87.8769 59.9353L87.5288 59.5763ZM87.5232 57.3682L87.1769 57.7288L87.1769 57.7288L87.5232 57.3682ZM82.5279 52.5704L82.8743 52.2098L82.8743 52.2098L82.5279 52.5704ZM82.0119 63.2834L82.3664 62.9307L82.3591 62.9237L82.0119 63.2834ZM76.4716 57.9362L76.1224 58.294L76.1244 58.296L76.4716 57.9362ZM82.3483 64.1136L82.8482 64.1237L82.8482 64.1236L82.3483 64.1136ZM81.9786 64.9304L81.6381 64.5641L81.6305 64.5715L81.9786 64.9304ZM66.887 79.5712L67.235 79.9302L67.2351 79.9301L66.887 79.5712ZM61.657 84.6404L61.309 84.2814L61.306 84.2842L61.657 84.6404ZM61.1251 85.1644L61.4738 85.5228L61.476 85.5206L61.1251 85.1644ZM60.3384 85.496L60.3221 84.9962L60.3152 84.9965L60.3384 85.496ZM54.7981 85.7526L54.8209 86.2521L54.8213 86.2521L54.7981 85.7526ZM54.3316 85.6822L54.5012 85.2118L54.5012 85.2118L54.3316 85.6822ZM53.9315 85.4401L54.2704 85.0725L54.2704 85.0725L53.9315 85.4401ZM53.6626 85.0655L53.2053 85.2679L53.2053 85.2679L53.6626 85.0655ZM53.5682 84.619L54.0682 84.6196V84.619H53.5682ZM53.5682 78.9402H54.0683L54.0681 78.9319L53.5682 78.9402ZM53.6541 78.5098L53.1954 78.3107L53.1954 78.3107L53.6541 78.5098ZM53.9117 78.1488L54.2502 78.5168L54.2566 78.511L54.2628 78.5048L53.9117 78.1488ZM54.4214 77.6462L54.0734 77.2871L54.0703 77.2902L54.4214 77.6462ZM59.6514 72.577L59.9994 72.936L59.9994 72.936L59.6514 72.577ZM74.7542 57.9362L75.1022 58.2952L75.1034 58.294L74.7542 57.9362ZM57.3193 16.9062H71.5356V15.9062H57.3193V16.9062ZM53.6254 11.6503C55.2362 12.8821 56.3652 14.6005 56.8335 16.5244L57.8051 16.2879C57.2816 14.137 56.0212 12.2235 54.2328 10.8559L53.6254 11.6503ZM47.9562 9.74609C50.0165 9.74609 52.0142 10.4182 53.6254 11.6503L54.2328 10.8559C52.4447 9.48852 50.2329 8.74609 47.9562 8.74609V9.74609ZM42.2871 11.6503C43.8983 10.4182 45.896 9.74609 47.9562 9.74609V8.74609C45.6796 8.74609 43.4677 9.48852 41.6796 10.8559L42.2871 11.6503ZM39.079 16.5244C39.5472 14.6005 40.6763 12.8821 42.2871 11.6503L41.6796 10.8559C39.8912 12.2235 38.6309 14.137 38.1074 16.2879L39.079 16.5244ZM24.388 16.9062H38.5932V15.9062H24.388V16.9062ZM18.9095 19.0929C20.3603 17.6946 22.3304 16.9062 24.388 16.9062L24.388 15.9062C22.0766 15.9062 19.8563 16.7914 18.2156 18.3729L18.9095 19.0929ZM16.644 24.3529C16.6468 22.3828 17.4594 20.4906 18.9095 19.0929L18.2156 18.3729C16.5743 19.9549 15.6472 22.1048 15.644 24.3515L16.644 24.3529ZM16.644 71.3332V24.3522H15.644V71.3332H16.644ZM18.9091 76.5965C17.4592 75.1971 16.6468 73.3037 16.644 71.3325L15.644 71.3339C15.6472 73.5815 16.5738 75.7324 18.2146 77.3161L18.9091 76.5965ZM24.3886 78.7899C22.3299 78.7872 20.3596 77.9966 18.9091 76.5965L18.2146 77.3161C19.8549 78.8992 22.075 79.7869 24.3873 79.7899L24.3886 78.7899ZM47.3801 78.7899H24.388V79.7899H47.3801V78.7899ZM51.465 74.6523L47.0328 78.9301L47.7273 79.6497L52.1595 75.3719L51.465 74.6523ZM24.388 75.5121H51.8123V74.5121H24.388V75.5121ZM21.3487 74.2912C22.1576 75.0719 23.25 75.5089 24.3866 75.5121L24.3894 74.5121C23.5059 74.5096 22.6627 74.1696 22.0431 73.5717L21.3487 74.2912ZM20.0763 71.3347C20.0796 72.4474 20.5392 73.51 21.3487 74.2912L22.0432 73.5717C21.4242 72.9743 21.0788 72.1686 21.0763 71.3317L20.0763 71.3347ZM20.0763 24.3522V71.3332H21.0763V24.3522H20.0763ZM21.3499 21.3974C20.5398 22.177 20.0796 23.2387 20.0763 24.3507L21.0763 24.3537C21.0788 23.518 21.4244 22.7136 22.0433 22.118L21.3499 21.3974ZM24.388 20.184C23.2522 20.184 22.1594 20.6184 21.3499 21.3974L22.0433 22.118C22.6629 21.5217 23.5057 21.184 24.388 21.184L24.388 20.184ZM29.0307 20.184H24.388V21.184H29.0307V20.184ZM29.4309 21.4098C29.4346 21.2081 29.4626 21.0073 29.5142 20.8114L28.5472 20.5565C28.4753 20.8293 28.4363 21.1094 28.431 21.3912L29.4309 21.4098ZM29.431 25.9991V21.4005H28.431V25.9991H29.431ZM29.613 26.8993C29.4915 26.6138 29.4298 26.3086 29.431 26.0011L28.431 25.9972C28.4292 26.4414 28.5184 26.8812 28.6929 27.291L29.613 26.8993ZM30.1415 27.666C29.9139 27.4455 29.7346 27.1848 29.613 26.8993L28.6929 27.291C28.8674 27.7009 29.1236 28.0722 29.4457 28.3843L30.1415 27.666ZM30.9408 28.1828C30.6406 28.0625 30.3691 27.8866 30.1415 27.666L29.4457 28.3843C29.7678 28.6963 30.1495 28.943 30.5687 29.111L30.9408 28.1828ZM31.8895 28.3653C31.5634 28.3653 31.241 28.3031 30.9408 28.1828L30.5687 29.111C30.9878 29.279 31.4366 29.3653 31.8895 29.3653L31.8895 28.3653ZM63.5022 28.3653H31.8895V29.3653H63.5022V28.3653ZM65.2548 27.666C64.7929 28.1118 64.1628 28.3653 63.5022 28.3653V29.3653C64.4168 29.3653 65.2973 29.0148 65.9492 28.3856L65.2548 27.666ZM65.9718 25.9991C65.9718 26.6208 65.7161 27.2208 65.2548 27.666L65.9492 28.3856C66.6018 27.7558 66.9718 26.8977 66.9718 25.9991H65.9718ZM65.9718 21.4005V25.9991H66.9718V21.4005H65.9718ZM65.8826 20.8296C65.9397 21.0171 65.9697 21.211 65.9718 21.406L66.9717 21.395C66.9686 21.1047 66.9239 20.8165 66.8393 20.5384L65.8826 20.8296ZM71.5245 20.184H66.361V21.184H71.5245V20.184ZM74.556 21.4017C73.7492 20.623 72.6595 20.1871 71.5259 20.184L71.5231 21.184C72.4037 21.1864 73.244 21.5253 73.8615 22.1212L74.556 21.4017ZM75.8251 24.3507C75.8218 23.2408 75.3633 22.181 74.556 21.4017L73.8615 22.1212C74.4784 22.7166 74.8226 23.5196 74.8251 24.3537L75.8251 24.3507ZM75.8251 52.3077V24.3522H74.8251V52.3077H75.8251ZM79.4101 47.6701L74.9779 51.9479L75.6724 52.6674L80.1046 48.3896L79.4101 47.6701ZM79.2573 24.3522V48.0298H80.2573V24.3522H79.2573ZM77.0024 19.0968C78.4485 20.4944 79.2573 22.385 79.2573 24.3522L80.2573 24.3522C80.2573 22.1083 79.3344 19.9599 77.6974 18.3777L77.0024 19.0968ZM71.5349 16.9062C73.5896 16.9088 75.5558 17.6986 77.0024 19.0968L77.6974 18.3777C76.0609 16.7962 73.8447 15.9092 71.5362 15.9062L71.5349 16.9062ZM51 23.2094C51.9091 22.6498 52.6364 21.8497 53.0937 20.9011L52.1929 20.4668C51.8203 21.2397 51.2254 21.8964 50.4758 22.3577L51 23.2094ZM47.9618 24.0651C49.037 24.0651 50.091 23.7688 51 23.2094L50.4758 22.3577C49.7261 22.8191 48.8538 23.0651 47.9618 23.0651V24.0651ZM44.9236 23.2094C45.8326 23.7688 46.8866 24.0651 47.9618 24.0651V23.0651C47.0697 23.0651 46.1974 22.8191 45.4477 22.3577L44.9236 23.2094ZM42.8299 20.9011C43.2872 21.8497 44.0144 22.6498 44.9236 23.2094L45.4477 22.3577C44.6981 21.8964 44.1032 21.2397 43.7306 20.4668L42.8299 20.9011ZM42.274 18.1974C42.2197 19.1326 42.4124 20.0651 42.8329 20.9073L43.7276 20.4606C43.3845 19.7736 43.2282 19.0149 43.2723 18.2552L42.274 18.1974ZM43.1421 15.5658C42.6274 16.3567 42.3282 17.2621 42.274 18.1974L43.2723 18.2552C43.3163 17.4956 43.5594 16.7579 43.9802 16.1113L43.1421 15.5658ZM45.2123 13.6757C44.3696 14.1253 43.6568 14.7751 43.1421 15.5658L43.9802 16.1113C44.4012 15.4646 44.9865 14.9295 45.683 14.5579L45.2123 13.6757ZM47.9618 12.9908C47.001 12.9908 46.055 13.2261 45.2123 13.6757L45.683 14.5579C46.3797 14.1863 47.1638 13.9908 47.9618 13.9908V12.9908ZM50.7112 13.6757C49.8685 13.2261 48.9226 12.9908 47.9618 12.9908V13.9908C48.7598 13.9908 49.5439 14.1863 50.2405 14.5579L50.7112 13.6757ZM52.7814 15.5658C52.2668 14.7751 51.554 14.1253 50.7112 13.6757L50.2405 14.5579C50.937 14.9295 51.5224 15.4646 51.9433 16.1113L52.7814 15.5658ZM53.6496 18.1974C53.5954 17.2621 53.2961 16.3567 52.7814 15.5658L51.9433 16.1113C52.3641 16.7579 52.6072 17.4956 52.6513 18.2552L53.6496 18.1974ZM53.0906 20.9073C53.5111 20.0651 53.7038 19.1326 53.6496 18.1974L52.6513 18.2552C52.6953 19.0149 52.539 19.7736 52.196 20.4606L53.0906 20.9073ZM78.8765 54.5949L80.5882 52.9347L79.892 52.2169L78.1803 53.8771L78.8765 54.5949ZM78.8803 56.0835C78.4511 55.6713 78.4495 55.009 78.8765 54.5949L78.1803 53.8771C77.3468 54.6855 77.3502 56.0004 78.1876 56.8047L78.8803 56.0835ZM83.8756 60.8813L78.8803 56.0835L78.1876 56.8047L83.1829 61.6025L83.8756 60.8813ZM85.469 60.8776C85.0321 61.3013 84.3148 61.3031 83.8756 60.8813L83.1829 61.6025C84.0104 62.3972 85.3417 62.3942 86.1652 61.5954L85.469 60.8776ZM87.1807 59.2174L85.469 60.8776L86.1652 61.5954L87.8769 59.9353L87.1807 59.2174ZM87.1769 57.7288C87.6061 58.1411 87.6077 58.8033 87.1807 59.2174L87.8769 59.9353C88.7104 59.1269 88.707 57.8119 87.8696 57.0076L87.1769 57.7288ZM82.1816 52.9311L87.1769 57.7288L87.8696 57.0076L82.8743 52.2098L82.1816 52.9311ZM80.5882 52.9347C81.0251 52.511 81.7424 52.5092 82.1816 52.9311L82.8743 52.2098C82.0468 51.4151 80.7155 51.4181 79.892 52.2169L80.5882 52.9347ZM82.3591 62.9237L76.8189 57.5764L76.1244 58.296L81.6646 63.6432L82.3591 62.9237ZM82.8482 64.1236C82.8572 63.6766 82.6818 63.2478 82.3663 62.9308L81.6574 63.6361C81.7853 63.7646 81.8518 63.933 81.8484 64.1035L82.8482 64.1236ZM82.3191 65.2966C82.6466 64.9921 82.8391 64.5707 82.8482 64.1237L81.8484 64.1035C81.8449 64.274 81.7716 64.4402 81.6382 64.5642L82.3191 65.2966ZM67.2351 79.9301L82.3268 65.2893L81.6305 64.5715L66.5388 79.2123L67.2351 79.9301ZM62.005 84.9994L67.235 79.9302L66.539 79.2122L61.309 84.2814L62.005 84.9994ZM61.476 85.5206L62.0079 84.9966L61.306 84.2842L60.7742 84.8083L61.476 85.5206ZM60.3547 85.9957C60.7732 85.982 61.1739 85.8146 61.4738 85.5228L60.7764 84.8061C60.6585 84.9208 60.4964 84.9905 60.3221 84.9962L60.3547 85.9957ZM54.8213 86.2521L60.3615 85.9954L60.3152 84.9965L54.775 85.2532L54.8213 86.2521ZM54.162 86.1525C54.3728 86.2286 54.5969 86.2623 54.8209 86.2521L54.7753 85.2532C54.6816 85.2574 54.5883 85.2432 54.5012 85.2118L54.162 86.1525ZM53.5927 85.8078C53.7573 85.9595 53.9511 86.0765 54.162 86.1525L54.5012 85.2118C54.4142 85.1804 54.3358 85.1327 54.2704 85.0725L53.5927 85.8078ZM53.2053 85.2679C53.2959 85.4725 53.428 85.656 53.5927 85.8078L54.2704 85.0725C54.2051 85.0123 54.1542 84.9409 54.1198 84.8632L53.2053 85.2679ZM53.0682 84.6184C53.0679 84.8421 53.1148 85.0632 53.2053 85.2679L54.1198 84.8632C54.0855 84.7856 54.0681 84.7028 54.0682 84.6196L53.0682 84.6184ZM53.0682 78.9402V84.619H54.0682V78.9402H53.0682ZM53.1954 78.3107C53.1081 78.512 53.0646 78.7292 53.0683 78.9485L54.0681 78.9319C54.0669 78.8559 54.0819 78.78 54.1127 78.7089L53.1954 78.3107ZM53.5732 77.7808C53.4118 77.9293 53.2828 78.1095 53.1954 78.3107L54.1127 78.7089C54.1436 78.6377 54.1901 78.5721 54.2502 78.5168L53.5732 77.7808ZM54.0703 77.2902L53.5606 77.7928L54.2628 78.5048L54.7725 78.0022L54.0703 77.2902ZM59.3034 72.218L54.0734 77.2872L54.7694 78.0052L59.9994 72.936L59.3034 72.218ZM74.4061 57.5772L59.3034 72.218L59.9994 72.936L75.1022 58.2952L74.4061 57.5772ZM74.9607 57.2164C74.7536 57.2999 74.5645 57.4226 74.4049 57.5783L75.1034 58.294C75.1684 58.2306 75.2468 58.1793 75.3344 58.1439L74.9607 57.2164ZM75.6129 57.0902C75.3894 57.0902 75.1678 57.133 74.9607 57.2164L75.3344 58.1439C75.4222 58.1086 75.5169 58.0902 75.6129 58.0902V57.0902ZM76.265 57.2164C76.0579 57.133 75.8363 57.0902 75.6129 57.0902V58.0902C75.7089 58.0902 75.8036 58.1086 75.8913 58.1439L76.265 57.2164ZM76.8208 57.5783C76.6612 57.4226 76.4722 57.2999 76.265 57.2164L75.8913 58.1439C75.979 58.1793 76.0574 58.2306 76.1224 58.294L76.8208 57.5783Z" fill="white"/>
</svg>
